<svg preserveAspectRatio="none" width="100%" height="100%" overflow="visible" style="display: block;" viewBox="0 0 195 168" fill="none" xmlns="http://www.w3.org/2000/svg">
<path id="Vector 1" d="M56.8837 2.24516L58.3314 0.865239L57.7403 0.245157H56.8837V2.24516ZM56.7837 2.24516V0.245157H56.7761L56.7685 0.245215L56.7837 2.24516ZM17.8837 2.06981L17.9067 0.0699413L17.8837 2.06981ZM11.8837 2.00078L11.9067 0.000908147L11.8837 2.00078ZM2.93723 16.908L0.947375 17.1093L2.93723 16.908ZM2.86321 34.908L0.869837 34.7453L2.86321 34.908ZM2.66821 64.908L0.672284 64.7804L2.66821 64.908ZM2.3073 82.908L0.308487 82.8391L2.3073 82.908ZM2.422 109.908L0.426709 110.045L2.422 109.908ZM2.68179 130.908L0.681933 130.884L2.68179 130.908ZM2.53822 154.908L0.539335 154.975L2.53822 154.908ZM5.43107 164.35L5.76741 162.379L5.43107 164.35ZM8.02386 164.793L7.68753 166.764L8.02386 164.793ZM10.6166 165.235L10.953 163.263L10.6166 165.235ZM16.2094 165.384L16.4038 167.375L16.2094 165.384ZM22.2094 164.799L22.0151 162.808L22.2094 164.799ZM28.2094 164.72L28.0671 166.715L28.2094 164.72ZM31.2094 164.934L31.3518 162.939L31.2094 164.934ZM34.2094 165.148L34.0671 167.143L34.2094 165.148ZM46.2094 165.87L46.0968 167.867L46.2094 165.87ZM51.128 165.944L51.2273 167.941L51.128 165.944ZM54.9651 165.753L54.8658 163.755L54.9651 165.753ZM56.8837 165.451H58.8837V164.992L58.6831 164.578L56.8837 165.451ZM56.7837 165.245V163.245H53.5904L54.9843 166.118L56.7837 165.245ZM56.8837 2.34516L58.8835 2.36989L58.8837 2.35752V2.34516H56.8837ZM56.7625 17.2452L54.7626 17.2625L56.7625 17.2452ZM56.8145 23.2452L58.8144 23.2278L56.8145 23.2452ZM56.7488 29.2452L54.7497 29.1841L56.7488 29.2452ZM56.5654 35.2452L58.5645 35.3062L56.5654 35.2452ZM56.171 53.2452L58.171 53.25L56.171 53.2452ZM56.1637 56.2452L54.1637 56.2403L56.1637 56.2452ZM56.1565 59.2452L58.1565 59.25L56.1565 59.2452ZM56.4343 63.9238L58.406 63.5889L56.4343 63.9238ZM57.0044 67.2811L58.9762 66.9462L57.0044 67.2811ZM57.0866 68.9598L56.2024 70.7537L56.6205 70.9598H57.0866V68.9598ZM56.8837 68.8598L57.7678 67.0658L54.8837 65.6444V68.8598H56.8837ZM56.9527 2.31754L55.505 3.69746L55.5427 3.73702L55.5825 3.77446L56.9527 2.31754ZM61.2935 6.3999L62.6637 4.94298L61.2935 6.3999ZM67.6047 12.7487L69.114 11.4365L67.6047 12.7487ZM71.5454 17.2815L73.0547 15.9693L71.5454 17.2815ZM74.9242 21.9178L73.2049 22.9396L74.9242 21.9178ZM76.3327 24.2877L78.052 23.2659L76.3327 24.2877ZM77.7412 26.6576L76.0219 27.6794L77.7412 26.6576ZM79.3802 32.0274L77.386 32.1806L79.3802 32.0274ZM79.6106 35.0274L77.6165 35.1806L79.6106 35.0274ZM79.8411 38.0274L81.8352 37.8742L79.8411 38.0274ZM79.8466 44.0274L81.841 44.177L79.8466 44.0274ZM79.3968 50.0274L77.4024 49.8779L79.3968 50.0274ZM79.1534 59.0274L81.1534 59.0336L79.1534 59.0274ZM79.1442 62.0274L77.1442 62.0213L79.1442 62.0274ZM79.3297 66.0105L77.3678 66.3992L79.3297 66.0105ZM79.5245 66.9936L77.5626 67.3823L77.5646 67.3923L77.5667 67.4022L79.5245 66.9936ZM79.914 68.8598H81.914V68.6533L81.8718 68.4511L79.914 68.8598ZM56.8837 69.0598H54.8837V69.0875L54.8845 69.1152L56.8837 69.0598ZM57.0488 75.0098L55.0496 75.0652L57.0488 75.0098ZM57.0581 83.9598L59.0554 84.0635L57.0581 83.9598ZM56.7464 89.9598L54.7491 89.856L56.7464 89.9598ZM56.5633 95.9598L54.5634 95.9416L56.5633 95.9598ZM56.5087 101.96L58.5086 101.978L56.5087 101.96ZM56.5565 107.96L58.5559 107.91L56.5565 107.96ZM56.6316 110.96L54.6322 111.01L56.6316 110.96ZM56.7067 113.96L58.706 113.91L56.7067 113.96ZM56.767 119.96L58.7669 119.97L56.767 119.96ZM56.7374 125.96L54.7374 125.95L56.7374 125.96ZM56.9318 131.96L54.9367 132.099L56.9318 131.96ZM57.141 134.96L59.1362 134.821L57.141 134.96ZM56.9037 146.96L58.8919 147.177L56.9037 146.96ZM56.5758 149.96L54.5877 149.742L56.5758 149.96ZM56.5885 155.96L54.6013 156.185L56.5885 155.96ZM56.9291 158.96L54.9419 159.185L56.9291 158.96ZM57.2698 161.96L59.257 161.734L57.2698 161.96ZM57.4287 165.031L56.6976 163.17L57.4287 165.031ZM57.247 165.102L57.4804 167.089L57.7374 167.059L57.9781 166.964L57.247 165.102ZM56.8837 165.145L56.6503 163.159L54.8837 163.366V165.145H56.8837ZM56.9837 68.9598V70.9598H57.0644L57.1448 70.9533L56.9837 68.9598ZM61.5397 68.5916L61.3786 66.5981L61.5397 68.5916ZM68.3988 68.4457L68.2067 70.4364L68.3988 68.4457ZM70.7019 68.668L70.894 66.6773L70.7019 68.668ZM73.0049 68.8904L72.8127 70.8811L73.0049 68.8904ZM76.4594 68.8916L76.0823 66.9274L76.4594 68.8916ZM78.7625 68.4493L79.1397 70.4134L78.7625 68.4493ZM79.914 68.594L81.8432 69.1213L81.914 68.8624V68.594H79.914ZM79.814 68.9598L77.8848 68.4324L77.1939 70.9598H79.814V68.9598ZM100.425 68.9598L101.734 67.447L101.17 66.9598H100.425V68.9598ZM100.425 69.0598L102.425 69.0861L102.425 69.0729V69.0598H100.425ZM100.347 75.0098L102.347 75.0361L100.347 75.0098ZM100.152 83.9598L102.15 84.0375L100.152 83.9598ZM100.035 86.9598L98.0366 86.882L100.035 86.9598ZM99.9184 89.9598L97.9199 89.882L99.9184 89.9598ZM99.8925 95.9598L101.892 95.8993L99.8925 95.9598ZM100.074 101.96L98.075 102.02L100.074 101.96ZM100.23 106.147L102.227 106.038L100.23 106.147ZM100.295 107.335L98.2981 107.444L98.2984 107.449L100.295 107.335ZM100.425 109.61H102.425V109.553L102.422 109.495L100.425 109.61ZM100.501 69.0252L99.1927 70.5379L99.1941 70.5392L100.501 69.0252ZM111.895 78.6285L113.111 77.0407L111.895 78.6285ZM116.667 82.2835L115.45 83.8712L116.667 82.2835ZM120.875 86.3203L119.333 87.5933L120.875 86.3203ZM124.522 90.7389L122.979 92.0119L124.522 90.7389ZM126.56 95.9482L128.555 95.8052L126.56 95.9482ZM126.99 101.948L124.995 102.091L126.99 101.948ZM127.078 106.139L125.089 105.925L127.078 106.139ZM126.95 107.329L128.937 107.552L128.938 107.542L126.95 107.329ZM126.694 109.61L124.707 109.387L124.694 109.498V109.61H126.694ZM80.014 68.9598V70.9598H80.0551L80.0961 70.9581L80.014 68.9598ZM84.0663 68.7932L83.9841 66.7949L84.0663 68.7932ZM90.1697 68.6026L90.1931 70.6025L90.1697 68.6026ZM94.2719 68.5545L94.2485 66.5546L94.2719 68.5545ZM97.3486 68.7769L97.8159 66.8322L97.3486 68.7769ZM99.3998 69.2698L99.8671 67.3251L99.3998 69.2698ZM100.425 69.238H102.425V68.8895L102.307 68.5615L100.425 69.238ZM100.325 68.9598V66.9598H97.4812L98.4432 69.6362L100.325 68.9598ZM100.425 109.81L102.421 109.94L102.425 109.875V109.81H100.425ZM100.036 115.76L102.032 115.89L100.036 115.76ZM99.8374 124.71L97.8414 124.836L99.8374 124.71ZM100.217 130.71L102.213 130.583L100.217 130.71ZM100.407 136.71L102.407 136.71L100.407 136.71ZM100.407 142.71L98.4073 142.71L100.407 142.71ZM100.698 151.71L98.7003 151.806L100.698 151.71ZM100.856 159.594L102.851 159.734L100.856 159.594ZM100.724 161.477L98.7286 161.337L100.724 161.477ZM100.591 163.361L102.586 163.501L100.591 163.361ZM100.442 165.245L98.4698 165.577L98.7502 167.245H100.442V165.245ZM100.425 165.145L102.398 164.814L98.4254 165.145H100.425ZM100.525 109.71V111.71H100.547L100.569 111.709L100.525 109.71ZM105.729 109.597L105.772 111.597L105.729 109.597ZM113.56 109.443L113.592 111.443L113.56 109.443ZM118.814 109.359L118.782 107.359L118.814 109.359ZM122.754 109.555L123.112 107.587L122.754 109.555ZM125.381 110.032L125.738 108.065L125.381 110.032ZM126.694 109.99H128.694V109.645L128.578 109.319L126.694 109.99ZM126.594 109.71V107.71H123.759L124.71 110.381L126.594 109.71ZM155.842 109.71L157.097 108.152L156.547 107.71H155.842V109.71ZM155.842 109.81H153.842V109.836L153.843 109.863L155.842 109.81ZM155.999 115.76L157.998 115.707L155.999 115.76ZM156.272 124.71L158.27 124.633L156.272 124.71ZM156.387 127.71L154.389 127.787L156.387 127.71ZM156.503 130.71L154.504 130.787L156.503 130.71ZM156.313 136.71L158.303 136.912L156.313 136.71ZM155.702 142.71L153.712 142.507L155.702 142.71ZM155.847 151.71L153.853 151.86L155.847 151.71ZM156.072 154.71L154.078 154.86L156.072 154.71ZM156.109 159.594L154.119 159.394L156.109 159.594ZM155.92 161.477L157.91 161.677L155.92 161.477ZM155.692 165.245V167.245H156.299L156.803 166.908L155.692 165.245ZM155.842 165.145H157.842V161.404L154.731 163.482L155.842 165.145ZM155.842 165.245V167.245H156.027L156.209 167.211L155.842 165.245ZM155.92 109.772L157.223 108.255L157.199 108.235L157.175 108.215L155.92 109.772ZM160.436 113.651L159.133 115.168L160.436 113.651ZM167.47 119.185L168.569 117.514L167.47 119.185ZM169.989 120.841L171.088 119.17L169.989 120.841ZM172.508 122.496L171.409 124.168L172.508 122.496ZM177.239 126.187L178.593 124.715L177.239 126.187ZM179.452 128.223L178.098 129.695L179.452 128.223ZM181.665 130.258L183.019 128.786L181.665 130.258ZM186.014 134.257L187.367 132.784L186.014 134.257ZM190.286 138.183L188.933 139.656L190.286 138.183ZM192.301 143.146L194.3 143.227L192.301 143.146ZM192.18 146.146L190.182 146.065L192.18 146.146ZM190.667 153.919L192.292 155.085L190.667 153.919ZM188.124 157.464L186.498 156.299L188.124 157.464ZM183.895 159.747L184.235 161.718L183.895 159.747ZM180.939 160.257L181.279 162.228L180.939 160.257ZM177.982 160.767L177.642 158.796L177.982 160.767ZM172.066 161.77L171.737 159.798L172.066 161.77ZM169.106 162.264L169.435 164.236L169.106 162.264ZM166.146 162.757L165.817 160.784L166.146 162.757ZM161.372 163.864L162.012 165.758L161.372 163.864ZM157.742 165.09L157.102 163.195L157.742 165.09ZM155.906 165.589L153.94 165.956L155.906 165.589ZM155.885 165.474L153.933 165.036L153.843 165.437L153.919 165.841L155.885 165.474ZM155.94 165.227L157.892 165.665L158.557 162.704L155.573 163.261L155.94 165.227ZM126.794 109.71L126.795 107.71H126.794V109.71ZM132.574 109.712L132.575 107.712L132.574 109.712ZM141.268 109.598L141.348 111.596L141.268 109.598ZM151.47 109.473L151.163 111.449L151.47 109.473ZM152.927 109.7L152.62 111.676L152.927 109.7ZM154.385 109.926L154.692 107.95L154.385 109.926ZM155.842 109.931H157.842V109.501L157.665 109.108L155.842 109.931ZM155.742 109.71V107.71H152.645L153.919 110.533L155.742 109.71ZM155.742 165.245V163.245H155.72L155.699 163.246L155.742 165.245ZM149.792 165.374L149.835 167.373L149.792 165.374ZM140.842 165.512L140.835 163.512L140.842 165.512ZM134.842 165.532L134.849 167.532L134.842 165.532ZM128.842 165.433L128.914 163.434L128.842 165.433ZM122.842 165.216L122.77 167.214L122.842 165.216ZM116.842 165.047L116.802 167.046L116.842 165.047ZM104.134 165.073L104.245 167.07L104.134 165.073ZM102.28 165.177L102.168 163.18L102.28 165.177ZM100.425 165.263L100.078 163.293L98.4254 163.584V165.263H100.425ZM100.525 165.245L100.872 167.215L100.525 163.245V165.245ZM100.325 165.245L100.3 167.245L100.312 167.245H100.325V165.245ZM94.3754 165.168L94.3495 167.168L94.3754 165.168ZM85.4254 165.215L85.5077 167.213L85.4254 165.215ZM79.4254 165.462L79.343 163.464L79.4254 165.462ZM73.4254 165.673L73.3673 163.674L73.4254 165.673ZM58.7691 165.696L58.8535 163.697L58.7691 165.696ZM56.8837 165.431L55.1233 164.481L54.8837 164.926V165.431H56.8837ZM56.9837 165.245L58.744 166.194L60.3345 163.245H56.9837V165.245ZM56.8837 2.24516V0.245157H56.7837V2.24516V4.24516H56.8837V2.24516ZM56.7837 2.24516L56.7685 0.245215L50.8185 0.290422L50.8337 2.29036L50.8489 4.29031L56.7989 4.2451L56.7837 2.24516ZM50.8337 2.29036L50.8185 0.290422C46.8518 0.320561 43.868 0.343692 41.8676 0.359816L41.8837 2.35975L41.8998 4.35969C43.8993 4.34357 46.8823 4.32044 50.8489 4.29031L50.8337 2.29036ZM41.8837 2.35975L41.8676 0.359816L38.8676 0.383995L38.8837 2.38393L38.8998 4.38386L41.8998 4.35969L41.8837 2.35975ZM38.8837 2.38393L38.8676 0.383995L35.8676 0.408174L35.8837 2.40811L35.8998 4.40804L38.8998 4.38386L38.8837 2.38393ZM35.8837 2.40811L35.8676 0.408174C33.8912 0.424103 31.9148 0.40506 29.9383 0.351044L29.8837 2.3503L29.829 4.34955C31.8526 4.40486 33.8762 4.42435 35.8998 4.40804L35.8837 2.40811ZM29.8837 2.3503L29.9383 0.351044L26.9383 0.269053L26.8837 2.26831L26.829 4.26756L29.829 4.34955L29.8837 2.3503ZM26.8837 2.26831L26.9383 0.269053L23.9383 0.187063L23.8837 2.18632L23.829 4.18557L26.829 4.26756L26.8837 2.26831ZM23.8837 2.18632L23.9383 0.187063C21.9278 0.132114 19.9172 0.0930738 17.9067 0.0699413L17.8837 2.06981L17.8607 4.06968C19.8501 4.09257 21.8396 4.1312 23.829 4.18557L23.8837 2.18632ZM17.8837 2.06981L17.9067 0.0699413L14.9067 0.0354247L14.8837 2.03529L14.8607 4.03516L17.8607 4.06968L17.8837 2.06981ZM14.8837 2.03529L14.9067 0.0354247L11.9067 0.000908147L11.8837 2.00078L11.8607 4.00064L14.8607 4.03516L14.8837 2.03529ZM11.8837 2.00078L11.9067 0.000908147C9.57828 -0.0258815 7.47775 0.538131 5.85974 1.94025L7.16952 3.4517L8.4793 4.96315C9.14684 4.38468 10.1891 3.98141 11.8607 4.00064L11.8837 2.00078ZM7.16952 3.4517L5.85974 1.94025L4.14558 3.4257L5.45536 4.93715L6.76514 6.4486L8.4793 4.96315L7.16952 3.4517ZM5.45536 4.93715L4.14558 3.4257L2.43142 4.91114L3.7412 6.42259L5.05097 7.93404L6.76514 6.4486L5.45536 4.93715ZM3.7412 6.42259L2.43142 4.91114C0.64232 6.46152 0.0965168 8.69597 0.34058 11.1093L2.33043 10.908L4.32028 10.7068C4.15981 9.12009 4.55452 8.36425 5.05097 7.93404L3.7412 6.42259ZM2.33043 10.908L0.34058 11.1093L0.643978 14.1093L2.63383 13.908L4.62368 13.7068L4.32028 10.7068L2.33043 10.908ZM2.63383 13.908L0.643978 14.1093L0.947375 17.1093L2.93723 16.908L4.92708 16.7068L4.62368 13.7068L2.63383 13.908ZM2.93723 16.908L0.947375 17.1093C1.14217 19.0354 1.22887 20.9609 1.20761 22.8859L3.20749 22.908L5.20737 22.9301C5.23028 20.8552 5.13681 18.7806 4.92708 16.7068L2.93723 16.908ZM3.20749 22.908L1.20761 22.8859L1.17448 25.8859L3.17436 25.908L5.17424 25.9301L5.20737 22.9301L3.20749 22.908ZM3.17436 25.908L1.17448 25.8859L1.14135 28.8859L3.14123 28.908L5.1411 28.9301L5.17424 25.9301L3.17436 25.908ZM3.14123 28.908L1.14135 28.8859C1.11978 30.8389 1.02929 32.7919 0.869837 34.7453L2.86321 34.908L4.85658 35.0708C5.02364 33.0241 5.1185 30.9772 5.1411 28.9301L3.14123 28.908ZM2.86321 34.908L0.869837 34.7453L0.624948 37.7453L2.61832 37.908L4.61169 38.0707L4.85658 35.0708L2.86321 34.908ZM2.61832 37.908L0.624948 37.7453L0.38006 40.7453L2.37343 40.908L4.3668 41.0707L4.61169 38.0707L2.61832 37.908ZM2.37343 40.908L0.38006 40.7453C0.207343 42.8612 0.219307 44.9775 0.415885 47.0931L2.40731 46.908L4.39873 46.723C4.22362 44.8385 4.213 42.9549 4.3668 41.0707L2.37343 40.908ZM2.40731 46.908L0.415885 47.0931L0.694649 50.0931L2.68607 49.908L4.67749 49.723L4.39873 46.723L2.40731 46.908ZM2.68607 49.908L0.694649 50.0931L0.973413 53.0931L2.96483 52.908L4.95626 52.723L4.67749 49.723L2.68607 49.908ZM2.96483 52.908L0.973413 53.0931C1.14962 54.9894 1.17707 56.8848 1.05588 58.7804L3.0518 58.908L5.04773 59.0356C5.18227 56.9312 5.15173 54.8267 4.95626 52.723L2.96483 52.908ZM3.0518 58.908L1.05588 58.7804L0.864081 61.7804L2.86001 61.908L4.85593 62.0356L5.04773 59.0356L3.0518 58.908ZM2.86001 61.908L0.864081 61.7804L0.672284 64.7804L2.66821 64.908L4.66413 65.0356L4.85593 62.0356L2.86001 61.908ZM2.66821 64.908L0.672284 64.7804C0.541942 66.8192 0.471183 68.8581 0.460024 70.8971L2.45999 70.908L4.45996 70.919C4.4707 68.958 4.53875 66.9969 4.66413 65.0356L2.66821 64.908ZM2.45999 70.908L0.460024 70.8971L0.443604 73.8971L2.44357 73.908L4.44354 73.919L4.45996 70.919L2.45999 70.908ZM2.44357 73.908L0.443604 73.8971L0.427184 76.8971L2.42715 76.908L4.42712 76.919L4.44354 73.919L2.44357 73.908ZM2.42715 76.908L0.427184 76.8971C0.416344 78.8777 0.376778 80.8584 0.308487 82.8391L2.3073 82.908L4.30611 82.9769C4.37573 80.9576 4.41607 78.9383 4.42712 76.919L2.42715 76.908ZM2.3073 82.908L0.308487 82.8391L0.205051 85.8391L2.20386 85.908L4.20268 85.9769L4.30611 82.9769L2.3073 82.908ZM2.20386 85.908L0.205051 85.8391L0.101615 88.8391L2.10043 88.908L4.09924 88.9769L4.20268 85.9769L2.20386 85.908ZM2.10043 88.908L0.101615 88.8391C0.0318434 90.8628 -0.00199856 92.8864 9.12448e-05 94.9101L2.00009 94.908L4.00009 94.906C3.99805 92.9296 4.0311 90.9533 4.09924 88.9769L2.10043 88.908ZM2.00009 94.908L9.12448e-05 94.9101L0.00318928 97.9101L2.00319 97.908L4.00319 97.906L4.00009 94.906L2.00009 94.908ZM2.00319 97.908L0.00318928 97.9101L0.00628731 100.91L2.00629 100.908L4.00629 100.906L4.00319 97.906L2.00319 97.908ZM2.00629 100.908L0.00628731 100.91C0.00839934 102.955 0.0797793 105 0.220403 107.045L2.21569 106.908L4.21098 106.771C4.07653 104.816 4.0083 102.861 4.00629 100.906L2.00629 100.908ZM2.21569 106.908L0.220403 107.045L0.426709 110.045L2.422 109.908L4.41728 109.771L4.21098 106.771L2.21569 106.908ZM2.422 109.908L0.426709 110.045L0.633015 113.045L2.6283 112.908L4.62359 112.771L4.41728 109.771L2.422 109.908ZM2.6283 112.908L0.633015 113.045C0.766975 114.993 0.824457 116.941 0.805493 118.889L2.8054 118.908L4.8053 118.928C4.82529 116.875 4.76471 114.823 4.62359 112.771L2.6283 112.908ZM2.8054 118.908L0.805493 118.889L0.776282 121.889L2.77619 121.908L4.77609 121.927L4.8053 118.928L2.8054 118.908ZM2.77619 121.908L0.776282 121.889L0.747071 124.889L2.74698 124.908L4.74688 124.927L4.77609 121.927L2.77619 121.908ZM2.74698 124.908L0.747071 124.889C0.727611 126.887 0.705898 128.886 0.681933 130.884L2.68179 130.908L4.68165 130.932C4.70565 128.931 4.72739 126.929 4.74688 124.927L2.74698 124.908ZM2.68179 130.908L0.681933 130.884L0.645957 133.884L2.64581 133.908L4.64567 133.932L4.68165 130.932L2.68179 130.908ZM2.64581 133.908L0.645957 133.884L0.609981 136.884L2.60984 136.908L4.60969 136.932L4.64567 133.932L2.64581 133.908ZM2.60984 136.908L0.609981 136.884C0.585991 138.885 0.562689 140.885 0.540075 142.885L2.53995 142.908L4.53982 142.931C4.56242 140.931 4.58571 138.932 4.60969 136.932L2.60984 136.908ZM2.53995 142.908L0.540075 142.885L0.50616 145.885L2.50603 145.908L4.5059 145.931L4.53982 142.931L2.53995 142.908ZM2.50603 145.908L0.50616 145.885L0.472246 148.885L2.47212 148.908L4.47199 148.931L4.5059 145.931L2.50603 145.908ZM2.47212 148.908L0.472246 148.885C0.4493 150.915 0.471664 152.945 0.539335 154.975L2.53822 154.908L4.53711 154.841C4.47142 152.871 4.44972 150.901 4.47199 148.931L2.47212 148.908ZM2.53822 154.908L0.539335 154.975L0.639356 157.975L2.63825 157.908L4.63713 157.841L4.53711 154.841L2.53822 154.908ZM2.63825 157.908L0.639356 157.975L0.739377 160.975L2.73827 160.908L4.73716 160.841L4.63713 157.841L2.63825 157.908ZM2.73827 160.908L0.739377 160.975C0.781672 162.243 1.09462 163.489 1.88621 164.501C2.70164 165.543 3.84522 166.109 5.09474 166.322L5.43107 164.35L5.76741 162.379C5.28841 162.297 5.11892 162.141 5.03675 162.036C4.93073 161.901 4.76154 161.573 4.73716 160.841L2.73827 160.908ZM5.43107 164.35L5.09474 166.322L7.68753 166.764L8.02386 164.793L8.3602 162.821L5.76741 162.379L5.43107 164.35ZM8.02386 164.793L7.68753 166.764L10.2803 167.207L10.6166 165.235L10.953 163.263L8.3602 162.821L8.02386 164.793ZM10.6166 165.235L10.2803 167.207C12.2074 167.535 14.2521 167.585 16.4038 167.375L16.2094 165.384L16.0151 163.394C14.1668 163.574 12.4829 163.524 10.953 163.263L10.6166 165.235ZM16.2094 165.384L16.4038 167.375L19.4038 167.082L19.2094 165.092L19.0151 163.101L16.0151 163.394L16.2094 165.384ZM19.2094 165.092L19.4038 167.082L22.4038 166.789L22.2094 164.799L22.0151 162.808L19.0151 163.101L19.2094 165.092ZM22.2094 164.799L22.4038 166.789C24.2921 166.605 26.1795 166.58 28.0671 166.715L28.2094 164.72L28.3518 162.725C26.2394 162.574 24.1268 162.602 22.0151 162.808L22.2094 164.799ZM28.2094 164.72L28.0671 166.715L31.0671 166.929L31.2094 164.934L31.3518 162.939L28.3518 162.725L28.2094 164.72ZM31.2094 164.934L31.0671 166.929L34.0671 167.143L34.2094 165.148L34.3518 163.153L31.3518 162.939L31.2094 164.934ZM34.2094 165.148L34.0671 167.143C36.077 167.286 38.0869 167.415 40.0968 167.528L40.2094 165.531L40.3221 163.534C38.332 163.422 36.3419 163.295 34.3518 163.153L34.2094 165.148ZM40.2094 165.531L40.0968 167.528L43.0968 167.697L43.2094 165.7L43.3221 163.704L40.3221 163.534L40.2094 165.531ZM43.2094 165.7L43.0968 167.697L46.0968 167.867L46.2094 165.87L46.3221 163.873L43.3221 163.704L43.2094 165.7ZM46.2094 165.87L46.0968 167.867C48.1328 167.981 49.8499 168.01 51.2273 167.941L51.128 165.944L51.0287 163.946C49.848 164.005 48.2861 163.984 46.3221 163.873L46.2094 165.87ZM51.128 165.944L51.2273 167.941L53.1459 167.846L53.0466 165.848L52.9472 163.851L51.0287 163.946L51.128 165.944ZM53.0466 165.848L53.1459 167.846L55.0645 167.75L54.9651 165.753L54.8658 163.755L52.9472 163.851L53.0466 165.848ZM54.9651 165.753L55.0645 167.75C55.712 167.718 56.2351 167.684 56.6098 167.645C56.7864 167.627 56.9908 167.601 57.1765 167.562C57.2533 167.546 57.4353 167.506 57.6371 167.42C57.7294 167.381 57.9485 167.282 58.1763 167.087C58.3884 166.905 58.8837 166.396 58.8837 165.554H56.8837H54.8837C54.8837 164.721 55.374 164.22 55.5761 164.047C55.7939 163.861 55.998 163.771 56.0703 163.74C56.1637 163.7 56.2377 163.678 56.2725 163.668C56.3117 163.657 56.3397 163.651 56.3511 163.648C56.3769 163.643 56.3414 163.651 56.1982 163.666C55.9335 163.693 55.4972 163.724 54.8658 163.755L54.9651 165.753ZM56.8837 165.554H58.8837V165.451H56.8837H54.8837V165.554H56.8837ZM56.8837 165.451L58.6831 164.578L58.5831 164.372L56.7837 165.245L54.9843 166.118L55.0843 166.324L56.8837 165.451ZM56.7837 165.245V167.245H56.8837V165.245V163.245H56.7837V165.245ZM56.8837 2.24516H54.8837V2.34516H56.8837H58.8837V2.24516H56.8837ZM56.8837 2.34516L54.8838 2.32043L54.8103 8.27043L56.8101 8.29516L58.81 8.31989L58.8835 2.36989L56.8837 2.34516ZM56.8101 8.29516L54.8103 8.27043C54.7612 12.2403 54.7451 15.2407 54.7626 17.2625L56.7625 17.2452L58.7624 17.2278C58.7453 15.2496 58.7609 12.2833 58.81 8.31989L56.8101 8.29516ZM56.7625 17.2452L54.7626 17.2625L54.7886 20.2625L56.7885 20.2452L58.7884 20.2278L58.7624 17.2278L56.7625 17.2452ZM56.7885 20.2452L54.7886 20.2625L54.8145 23.2625L56.8145 23.2452L58.8144 23.2278L58.7884 20.2278L56.7885 20.2452ZM56.8145 23.2452L54.8145 23.2625C54.8316 25.2363 54.81 27.2102 54.7497 29.1841L56.7488 29.2452L58.7478 29.3062C58.8097 27.2801 58.8319 25.254 58.8144 23.2278L56.8145 23.2452ZM56.7488 29.2452L54.7497 29.1841L54.658 32.1841L56.6571 32.2452L58.6561 32.3062L58.7478 29.3062L56.7488 29.2452ZM56.6571 32.2452L54.658 32.1841L54.5663 35.1841L56.5654 35.2452L58.5645 35.3062L58.6561 32.3062L56.6571 32.2452ZM56.5654 35.2452L54.5663 35.1841C54.5051 37.188 54.4498 39.192 54.4005 41.1959L56.3999 41.2452L58.3993 41.2944C58.4484 39.2983 58.5035 37.3023 58.5645 35.3062L56.5654 35.2452ZM56.3999 41.2452L54.4005 41.1959L54.3266 44.1959L56.326 44.2452L58.3254 44.2944L58.3993 41.2944L56.3999 41.2452ZM56.326 44.2452L54.3266 44.1959L54.2528 47.1959L56.2522 47.2452L58.2516 47.2944L58.3254 44.2944L56.326 44.2452ZM56.2522 47.2452L54.2528 47.1959C54.2032 49.2107 54.1759 51.2255 54.171 53.2403L56.171 53.2452L58.171 53.25C58.1758 51.2648 58.2027 49.2796 58.2516 47.2944L56.2522 47.2452ZM56.171 53.2452L54.171 53.2403L54.1637 56.2403L56.1637 56.2452L58.1637 56.25L58.171 53.25L56.171 53.2452ZM56.1637 56.2452L54.1637 56.2403L54.1565 59.2403L56.1565 59.2452L58.1565 59.25L58.1637 56.25L56.1637 56.2452ZM56.1565 59.2452L54.1565 59.2403C54.1515 61.2823 54.2443 62.9737 54.4625 64.2587L56.4343 63.9238L58.406 63.5889C58.2441 62.6357 58.1517 61.208 58.1565 59.25L56.1565 59.2452ZM56.4343 63.9238L54.4625 64.2587L54.7476 65.9373L56.7193 65.6025L58.6911 65.2676L58.406 63.5889L56.4343 63.9238ZM56.7193 65.6025L54.7476 65.9373L55.0326 67.616L57.0044 67.2811L58.9762 66.9462L58.6911 65.2676L56.7193 65.6025ZM57.0044 67.2811L55.0326 67.616C55.1263 68.1673 55.1808 68.5391 55.2047 68.7576C55.2182 68.8804 55.2141 68.8873 55.2147 68.8319C55.2148 68.8271 55.2132 68.6611 55.2686 68.4426C55.2934 68.3444 55.3701 68.064 55.589 67.7669C55.8445 67.4201 56.3807 66.9598 57.188 66.9598V68.9598V70.9598C58.0038 70.9598 58.5475 70.495 58.8094 70.1395C59.0347 69.8336 59.1169 69.5401 59.1462 69.4245C59.2104 69.171 59.2136 68.9525 59.2145 68.8778C59.2167 68.6825 59.1982 68.4795 59.181 68.3226C59.1437 67.9815 59.0726 67.5141 58.9762 66.9462L57.0044 67.2811ZM57.188 68.9598V66.9598H57.0866V68.9598V70.9598H57.188V68.9598ZM57.0866 68.9598L57.9707 67.1658L57.7678 67.0658L56.8837 68.8598L55.9995 70.6537L56.2024 70.7537L57.0866 68.9598ZM56.8837 68.8598H54.8837V68.9598H56.8837H58.8837V68.8598H56.8837ZM56.8837 2.24516L55.436 3.62508L55.505 3.69746L56.9527 2.31754L58.4004 0.937624L58.3314 0.865239L56.8837 2.24516ZM56.9527 2.31754L55.5825 3.77446L59.9233 7.85683L61.2935 6.3999L62.6637 4.94298L58.3229 0.86062L56.9527 2.31754ZM61.2935 6.3999L59.9233 7.85683C62.806 10.5678 64.8499 12.6284 66.0953 14.0609L67.6047 12.7487L69.114 11.4365C67.7323 9.84711 65.5688 7.67512 62.6637 4.94298L61.2935 6.3999ZM67.6047 12.7487L66.0953 14.0609L68.0657 16.3273L69.575 15.0151L71.0844 13.7029L69.114 11.4365L67.6047 12.7487ZM69.575 15.0151L68.0657 16.3273L70.036 18.5937L71.5454 17.2815L73.0547 15.9693L71.0844 13.7029L69.575 15.0151ZM71.5454 17.2815L70.036 18.5937C71.278 20.0223 72.3322 21.4712 73.2049 22.9396L74.9242 21.9178L76.6435 20.896C75.6382 19.2045 74.4399 17.5627 73.0547 15.9693L71.5454 17.2815ZM74.9242 21.9178L73.2049 22.9396L74.6134 25.3095L76.3327 24.2877L78.052 23.2659L76.6435 20.896L74.9242 21.9178ZM76.3327 24.2877L74.6134 25.3095L76.0219 27.6794L77.7412 26.6576L79.4605 25.6357L78.052 23.2659L76.3327 24.2877ZM77.7412 26.6576L76.0219 27.6794C76.7897 28.9712 77.2538 30.4589 77.386 32.1806L79.3802 32.0274L81.3743 31.8742C81.1992 29.5959 80.5707 27.5037 79.4605 25.6357L77.7412 26.6576ZM79.3802 32.0274L77.386 32.1806L77.6165 35.1806L79.6106 35.0274L81.6048 34.8742L81.3743 31.8742L79.3802 32.0274ZM79.6106 35.0274L77.6165 35.1806L77.847 38.1806L79.8411 38.0274L81.8352 37.8742L81.6048 34.8742L79.6106 35.0274ZM79.8411 38.0274L77.847 38.1806C77.9929 40.0799 77.9947 41.9787 77.8522 43.8779L79.8466 44.0274L81.841 44.177C81.9986 42.0762 81.9966 39.975 81.8352 37.8742L79.8411 38.0274ZM79.8466 44.0274L77.8522 43.8779L77.6273 46.8779L79.6217 47.0274L81.6161 47.177L81.841 44.177L79.8466 44.0274ZM79.6217 47.0274L77.6273 46.8779L77.4024 49.8779L79.3968 50.0274L81.3912 50.177L81.6161 47.177L79.6217 47.0274ZM79.3968 50.0274L77.4024 49.8779C77.2488 51.9255 77.1689 53.9733 77.1626 56.0213L79.1626 56.0274L81.1626 56.0336C81.1686 54.0816 81.2448 52.1294 81.3912 50.177L79.3968 50.0274ZM79.1626 56.0274L77.1626 56.0213L77.1534 59.0213L79.1534 59.0274L81.1534 59.0336L81.1626 56.0336L79.1626 56.0274ZM79.1534 59.0274L77.1534 59.0213L77.1442 62.0213L79.1442 62.0274L81.1442 62.0336L81.1534 59.0336L79.1534 59.0274ZM79.1442 62.0274L77.1442 62.0213C77.1381 63.9875 77.1928 65.5157 77.3678 66.3992L79.3297 66.0105L81.2916 65.6218C81.2069 65.1945 81.1379 64.0674 81.1442 62.0336L79.1442 62.0274ZM79.3297 66.0105L77.3678 66.3992L77.5626 67.3823L79.5245 66.9936L81.4863 66.6049L81.2916 65.6218L79.3297 66.0105ZM79.5245 66.9936L77.5667 67.4022L77.9562 69.2684L79.914 68.8598L81.8718 68.4511L81.4823 66.5849L79.5245 66.9936ZM79.914 68.8598H77.914V68.9598H79.914H81.914V68.8598H79.914ZM56.8837 68.9598H54.8837V69.0598H56.8837H58.8837V68.9598H56.8837ZM56.8837 69.0598L54.8845 69.1152L55.0496 75.0652L57.0488 75.0098L59.048 74.9543L58.8829 69.0043L56.8837 69.0598ZM57.0488 75.0098L55.0496 75.0652C55.1593 79.0196 55.1604 81.9382 55.0607 83.856L57.0581 83.9598L59.0554 84.0635C59.1635 81.9813 59.1584 78.9333 59.048 74.9543L57.0488 75.0098ZM57.0581 83.9598L55.0607 83.856L54.9049 86.856L56.9022 86.9598L58.8995 87.0635L59.0554 84.0635L57.0581 83.9598ZM56.9022 86.9598L54.9049 86.856L54.7491 89.856L56.7464 89.9598L58.7437 90.0635L58.8995 87.0635L56.9022 86.9598ZM56.7464 89.9598L54.7491 89.856C54.6437 91.8845 54.5818 93.913 54.5634 95.9416L56.5633 95.9598L58.5632 95.978C58.5811 94.0065 58.6413 92.035 58.7437 90.0635L56.7464 89.9598ZM56.5633 95.9598L54.5634 95.9416L54.5361 98.9416L56.536 98.9598L58.5359 98.978L58.5632 95.978L56.5633 95.9598ZM56.536 98.9598L54.5361 98.9416L54.5088 101.942L56.5087 101.96L58.5086 101.978L58.5359 98.978L56.536 98.9598ZM56.5087 101.96L54.5088 101.942C54.4904 103.964 54.5065 105.987 54.5571 108.01L56.5565 107.96L58.5559 107.91C58.5064 105.932 58.4906 103.955 58.5086 101.978L56.5087 101.96ZM56.5565 107.96L54.5571 108.01L54.6322 111.01L56.6316 110.96L58.631 110.91L58.5559 107.91L56.5565 107.96ZM56.6316 110.96L54.6322 111.01L54.7073 114.01L56.7067 113.96L58.706 113.91L58.631 110.91L56.6316 110.96ZM56.7067 113.96L54.7073 114.01C54.7569 115.99 54.7768 117.97 54.767 119.95L56.767 119.96L58.7669 119.97C58.7769 117.95 58.7566 115.93 58.706 113.91L56.7067 113.96ZM56.767 119.96L54.767 119.95L54.7522 122.95L56.7522 122.96L58.7521 122.97L58.7669 119.97L56.767 119.96ZM56.7522 122.96L54.7522 122.95L54.7374 125.95L56.7374 125.96L58.7374 125.97L58.7521 122.97L56.7522 122.96ZM56.7374 125.96L54.7374 125.95C54.7273 128 54.7937 130.049 54.9367 132.099L56.9318 131.96L58.927 131.821C58.7909 129.87 58.7277 127.92 58.7374 125.97L56.7374 125.96ZM56.9318 131.96L54.9367 132.099L55.1459 135.099L57.141 134.96L59.1362 134.821L58.927 131.821L56.9318 131.96ZM57.141 134.96L55.1459 135.099L55.3551 138.099L57.3502 137.96L59.3454 137.821L59.1362 134.821L57.141 134.96ZM57.3502 137.96L55.3551 138.099C55.4863 139.98 55.4491 141.86 55.2434 143.742L57.2316 143.96L59.2197 144.177C59.4512 142.059 59.4932 139.94 59.3454 137.821L57.3502 137.96ZM57.2316 143.96L55.2434 143.742L54.9155 146.742L56.9037 146.96L58.8919 147.177L59.2197 144.177L57.2316 143.96ZM56.9037 146.96L54.9155 146.742L54.5877 149.742L56.5758 149.96L58.564 150.177L58.8919 147.177L56.9037 146.96ZM56.5758 149.96L54.5877 149.742C54.353 151.89 54.3575 154.038 54.6013 156.185L56.5885 155.96L58.5758 155.734C58.3654 153.881 58.3615 152.03 58.564 150.177L56.5758 149.96ZM56.5885 155.96L54.6013 156.185L54.9419 159.185L56.9291 158.96L58.9164 158.734L58.5758 155.734L56.5885 155.96ZM56.9291 158.96L54.9419 159.185L55.2825 162.185L57.2698 161.96L59.257 161.734L58.9164 158.734L56.9291 158.96ZM57.2698 161.96L55.2825 162.185C55.3949 163.175 55.4592 163.882 55.4825 164.331C55.4881 164.44 55.4909 164.526 55.4917 164.59C55.4925 164.657 55.4909 164.686 55.4909 164.685C55.491 164.684 55.4921 164.666 55.4964 164.634C55.5003 164.606 55.5101 164.54 55.5332 164.453C55.5528 164.38 55.6039 164.204 55.7237 164C55.8339 163.812 56.1219 163.396 56.6976 163.17L57.4287 165.031L58.1598 166.893C58.7507 166.661 59.0525 166.231 59.175 166.022C59.3072 165.796 59.3695 165.592 59.3987 165.482C59.4585 165.257 59.4756 165.053 59.4829 164.939C59.4988 164.688 59.4915 164.401 59.4771 164.124C59.4474 163.549 59.3717 162.744 59.257 161.734L57.2698 161.96ZM57.4287 165.031L56.6976 163.17L56.5159 163.241L57.247 165.102L57.9781 166.964L58.1598 166.893L57.4287 165.031ZM57.247 165.102L57.0136 163.116L56.6503 163.159L56.8837 165.145L57.1171 167.131L57.4804 167.089L57.247 165.102ZM56.8837 165.145H54.8837V165.245H56.8837H58.8837V165.145H56.8837ZM56.8837 68.9598V70.9598H56.9837V68.9598V66.9598H56.8837V68.9598ZM56.9837 68.9598L57.1448 70.9533L61.7008 70.5851L61.5397 68.5916L61.3786 66.5981L56.8226 66.9663L56.9837 68.9598ZM61.5397 68.5916L61.7008 70.5851C64.7109 70.3418 66.8535 70.3058 68.2067 70.4364L68.3988 68.4457L68.591 66.455C66.8735 66.2891 64.4434 66.3504 61.3786 66.5981L61.5397 68.5916ZM68.3988 68.4457L68.2067 70.4364L70.5097 70.6588L70.7019 68.668L70.894 66.6773L68.591 66.455L68.3988 68.4457ZM70.7019 68.668L70.5097 70.6588L72.8127 70.8811L73.0049 68.8904L73.1971 66.8996L70.894 66.6773L70.7019 68.668ZM73.0049 68.8904L72.8127 70.8811C74.3913 71.0335 75.7772 71.0591 76.8366 70.8557L76.4594 68.8916L76.0823 66.9274C75.6063 67.0188 74.6892 67.0437 73.1971 66.8996L73.0049 68.8904ZM76.4594 68.8916L76.8366 70.8557L77.9881 70.6345L77.611 68.6704L77.2338 66.7063L76.0823 66.9274L76.4594 68.8916ZM77.611 68.6704L77.9881 70.6345L79.1397 70.4134L78.7625 68.4493L78.3853 66.4852L77.2338 66.7063L77.611 68.6704ZM78.7625 68.4493L79.1397 70.4134C79.3085 70.381 79.4412 70.3589 79.5418 70.3449C79.5916 70.338 79.6294 70.3336 79.6568 70.331C79.6848 70.3282 79.6956 70.328 79.6925 70.3281C79.6914 70.3281 79.66 70.3293 79.6071 70.3254C79.5616 70.3221 79.446 70.3115 79.2948 70.2685C79.1631 70.2311 78.8498 70.1267 78.542 69.8436C78.1743 69.5054 77.914 68.9973 77.914 68.4111H79.914H81.914C81.914 67.7943 81.6417 67.2599 81.25 66.8996C80.9182 66.5945 80.5689 66.4723 80.3892 66.4212C80.0339 66.3201 79.7086 66.3253 79.5597 66.3303C79.2042 66.3421 78.7894 66.4076 78.3853 66.4852L78.7625 68.4493ZM79.914 68.4111H77.914V68.594H79.914H81.914V68.4111H79.914ZM79.914 68.594L77.9848 68.0666L77.8848 68.4324L79.814 68.9598L81.7432 69.4871L81.8432 69.1213L79.914 68.594ZM79.814 68.9598V70.9598H79.914V68.9598V66.9598H79.814V68.9598ZM100.425 68.9598H98.4254V69.0598H100.425H102.425V68.9598H100.425ZM100.425 69.0598L98.4255 69.0334L98.3471 74.9834L100.347 75.0098L102.347 75.0361L102.425 69.0861L100.425 69.0598ZM100.347 75.0098L98.3471 74.9834C98.2949 78.9461 98.2301 81.9086 98.1533 83.882L100.152 83.9598L102.15 84.0375C102.229 82.011 102.294 79.0068 102.347 75.0361L100.347 75.0098ZM100.152 83.9598L98.1533 83.882L98.0366 86.882L100.035 86.9598L102.034 87.0375L102.15 84.0375L100.152 83.9598ZM100.035 86.9598L98.0366 86.882L97.9199 89.882L99.9184 89.9598L101.917 90.0375L102.034 87.0375L100.035 86.9598ZM99.9184 89.9598L97.9199 89.882C97.8403 91.9281 97.8315 93.9742 97.8934 96.0203L99.8925 95.9598L101.892 95.8993C101.832 93.9453 101.841 91.9915 101.917 90.0375L99.9184 89.9598ZM99.8925 95.9598L97.8934 96.0203L97.9842 99.0203L99.9833 98.9598L101.982 98.8993L101.892 95.8993L99.8925 95.9598ZM99.9833 98.9598L97.9842 99.0203L98.075 102.02L100.074 101.96L102.073 101.899L101.982 98.8993L99.9833 98.9598ZM100.074 101.96L98.075 102.02C98.1355 104.019 98.1881 105.438 98.233 106.257L100.23 106.147L102.227 106.038C102.185 105.273 102.134 103.9 102.073 101.899L100.074 101.96ZM100.23 106.147L98.233 106.257L98.2981 107.444L100.295 107.335L102.292 107.225L102.227 106.038L100.23 106.147ZM100.295 107.335L98.2984 107.449L98.4286 109.724L100.425 109.61L102.422 109.495L102.292 107.22L100.295 107.335ZM100.425 109.61H98.4254V109.71H100.425H102.425V109.61H100.425ZM100.425 68.9598L99.1171 70.4725L99.1927 70.5379L100.501 69.0252L101.809 67.5124L101.734 67.447L100.425 68.9598ZM100.501 69.0252L99.1941 70.5392L103.698 74.427L105.005 72.9131L106.312 71.3991L101.808 67.5112L100.501 69.0252ZM105.005 72.9131L103.698 74.427C106.708 77.0249 109.04 78.9611 110.679 80.2162L111.895 78.6285L113.111 77.0407C111.569 75.8591 109.308 73.985 106.312 71.3991L105.005 72.9131ZM111.895 78.6285L110.679 80.2162L113.065 82.0437L114.281 80.456L115.497 78.8683L113.111 77.0407L111.895 78.6285ZM114.281 80.456L113.065 82.0437L115.45 83.8712L116.667 82.2835L117.883 80.6958L115.497 78.8683L114.281 80.456ZM116.667 82.2835L115.45 83.8712C116.926 85.0019 118.219 86.243 119.333 87.5933L120.875 86.3203L122.418 85.0474C121.102 83.4519 119.588 82.0018 117.883 80.6958L116.667 82.2835ZM120.875 86.3203L119.333 87.5933L121.156 89.8026L122.699 88.5296L124.241 87.2567L122.418 85.0474L120.875 86.3203ZM122.699 88.5296L121.156 89.8026L122.979 92.0119L124.522 90.7389L126.064 89.466L124.241 87.2567L122.699 88.5296ZM124.522 90.7389L122.979 92.0119C123.916 93.1476 124.45 94.4837 124.565 96.0913L126.56 95.9482L128.555 95.8052C128.383 93.4127 127.558 91.276 126.064 89.466L124.522 90.7389ZM126.56 95.9482L124.565 96.0913L124.78 99.0913L126.775 98.9482L128.77 98.8052L128.555 95.8052L126.56 95.9482ZM126.775 98.9482L124.78 99.0913L124.995 102.091L126.99 101.948L128.985 101.805L128.77 98.8052L126.775 98.9482ZM126.99 101.948L124.995 102.091C125.139 104.097 125.153 105.33 125.089 105.925L127.078 106.139L129.066 106.352C129.173 105.36 129.128 103.799 128.985 101.805L126.99 101.948ZM127.078 106.139L125.089 105.925L124.961 107.116L126.95 107.329L128.938 107.542L129.066 106.352L127.078 106.139ZM126.95 107.329L124.962 107.106L124.707 109.387L126.694 109.61L128.682 109.832L128.937 107.552L126.95 107.329ZM126.694 109.61H124.694V109.71H126.694H128.694V109.61H126.694ZM79.914 68.9598V70.9598H80.014V68.9598V66.9598H79.914V68.9598ZM80.014 68.9598L80.0961 70.9581L84.1484 70.7915L84.0663 68.7932L83.9841 66.7949L79.9319 66.9614L80.014 68.9598ZM84.0663 68.7932L84.1484 70.7915C86.8453 70.6807 88.856 70.6182 90.1931 70.6025L90.1697 68.6026L90.1462 66.6028C88.7485 66.6192 86.6903 66.6837 83.9841 66.7949L84.0663 68.7932ZM90.1697 68.6026L90.1931 70.6025L92.2443 70.5784L92.2208 68.5786L92.1973 66.5787L90.1462 66.6028L90.1697 68.6026ZM92.2208 68.5786L92.2443 70.5784L94.2954 70.5544L94.2719 68.5545L94.2485 66.5546L92.1973 66.5787L92.2208 68.5786ZM94.2719 68.5545L94.2954 70.5544C95.622 70.5388 96.4458 70.6169 96.8813 70.7215L97.3486 68.7769L97.8159 66.8322C96.8841 66.6083 95.6568 66.5381 94.2485 66.5546L94.2719 68.5545ZM97.3486 68.7769L96.8813 70.7215L97.9069 70.968L98.3742 69.0233L98.8415 67.0787L97.8159 66.8322L97.3486 68.7769ZM98.3742 69.0233L97.9069 70.968L98.9325 71.2144L99.3998 69.2698L99.8671 67.3251L98.8415 67.0787L98.3742 69.0233ZM99.3998 69.2698L98.9325 71.2144C99.2908 71.3005 99.6528 71.3767 99.9608 71.409C100.086 71.4221 100.371 71.4485 100.69 71.3953C100.838 71.3706 101.198 71.2982 101.566 71.0372C102.026 70.7109 102.425 70.1285 102.425 69.3771H100.425H98.4254C98.4254 69.062 98.5017 68.7292 98.6743 68.4194C98.8423 68.118 99.061 67.9102 99.2523 67.7745C99.599 67.5286 99.9269 67.4674 100.033 67.4498C100.171 67.4267 100.273 67.4269 100.31 67.4274C100.333 67.4277 100.351 67.4287 100.361 67.4293C100.371 67.43 100.377 67.4306 100.377 67.4307C100.377 67.4307 100.365 67.4294 100.339 67.4252C100.312 67.421 100.277 67.4148 100.231 67.4059C100.139 67.3879 100.019 67.3616 99.8671 67.3251L99.3998 69.2698ZM100.425 69.3771H102.425V69.238H100.425H98.4254V69.3771H100.425ZM100.425 69.238L102.307 68.5615L102.207 68.2833L100.325 68.9598L98.4432 69.6362L98.5432 69.9145L100.425 69.238ZM100.325 68.9598V70.9598H100.425V68.9598V66.9598H100.325V68.9598ZM100.425 109.71H98.4254V109.81H100.425H102.425V109.71H100.425ZM100.425 109.81L98.4296 109.679L98.0407 115.629L100.036 115.76L102.032 115.89L102.421 109.94L100.425 109.81ZM100.036 115.76L98.0407 115.629C97.7802 119.616 97.7065 122.703 97.8414 124.836L99.8374 124.71L101.833 124.583C101.715 122.716 101.774 119.837 102.032 115.89L100.036 115.76ZM99.8374 124.71L97.8414 124.836L98.0312 127.836L100.027 127.71L102.023 127.583L101.833 124.583L99.8374 124.71ZM100.027 127.71L98.0312 127.836L98.221 130.836L100.217 130.71L102.213 130.583L102.023 127.583L100.027 127.71ZM100.217 130.71L98.221 130.836C98.3449 132.794 98.4069 134.752 98.407 136.71L100.407 136.71L102.407 136.71C102.407 134.667 102.342 132.625 102.213 130.583L100.217 130.71ZM100.407 136.71L98.407 136.71L98.4072 139.71L100.407 139.71L102.407 139.71L102.407 136.71L100.407 136.71ZM100.407 139.71L98.4072 139.71L98.4073 142.71L100.407 142.71L102.407 142.71L102.407 139.71L100.407 139.71ZM100.407 142.71L98.4073 142.71C98.4074 144.742 98.4567 146.774 98.555 148.806L100.553 148.71L102.55 148.613C102.455 146.645 102.407 144.677 102.407 142.71L100.407 142.71ZM100.553 148.71L98.555 148.806L98.7003 151.806L100.698 151.71L102.696 151.613L102.55 148.613L100.553 148.71ZM100.698 151.71L98.7003 151.806L98.8455 154.806L100.843 154.71L102.841 154.613L102.696 151.613L100.698 151.71ZM100.843 154.71L98.8455 154.806C98.9404 156.768 98.9414 158.308 98.861 159.453L100.856 159.594L102.851 159.734C102.947 158.367 102.94 156.652 102.841 154.613L100.843 154.71ZM100.856 159.594L98.861 159.453L98.7286 161.337L100.724 161.477L102.719 161.618L102.851 159.734L100.856 159.594ZM100.724 161.477L98.7286 161.337L98.5962 163.221L100.591 163.361L102.586 163.501L102.719 161.618L100.724 161.477ZM100.591 163.361L98.5962 163.221C98.5522 163.848 98.5186 164.316 98.4955 164.625C98.4839 164.781 98.4753 164.891 98.4695 164.961C98.4681 164.978 98.4669 164.991 98.466 165C98.4651 165.011 98.4647 165.015 98.4648 165.014C98.4649 165.013 98.4653 165.009 98.466 165.003C98.4665 164.998 98.4681 164.985 98.4706 164.966C98.4718 164.958 98.479 164.904 98.4933 164.835C98.4979 164.813 98.5191 164.709 98.5639 164.582C98.5815 164.532 98.6413 164.363 98.7637 164.171C98.8244 164.075 98.9546 163.887 99.1751 163.705C99.4006 163.518 99.8372 163.245 100.451 163.245V165.245V167.245C101.064 167.245 101.501 166.972 101.726 166.786C101.947 166.603 102.077 166.415 102.138 166.319C102.26 166.127 102.32 165.958 102.338 165.908C102.383 165.78 102.404 165.675 102.409 165.652C102.424 165.58 102.432 165.523 102.434 165.51C102.439 165.469 102.443 165.433 102.444 165.418C102.448 165.38 102.452 165.336 102.456 165.294C102.463 165.206 102.473 165.082 102.484 164.923C102.508 164.605 102.542 164.13 102.586 163.501L100.591 163.361ZM100.451 165.245V163.245H100.442V165.245V167.245H100.451V165.245ZM100.442 165.245L102.414 164.914L102.398 164.814L100.425 165.145L98.453 165.477L98.4698 165.577L100.442 165.245ZM100.425 165.145H98.4254V165.245H100.425H102.425V165.145H100.425ZM100.425 109.71V111.71H100.525V109.71V107.71H100.425V109.71ZM100.525 109.71L100.569 111.709L105.772 111.597L105.729 109.597L105.686 107.598L100.482 107.71L100.525 109.71ZM105.729 109.597L105.772 111.597C109.241 111.522 111.846 111.471 113.592 111.443L113.56 109.443L113.528 107.443C111.771 107.471 109.156 107.523 105.686 107.598L105.729 109.597ZM113.56 109.443L113.592 111.443L116.219 111.401L116.187 109.401L116.155 107.401L113.528 107.443L113.56 109.443ZM116.187 109.401L116.219 111.401L118.846 111.358L118.814 109.359L118.782 107.359L116.155 107.401L116.187 109.401ZM118.814 109.359L118.846 111.358C120.566 111.331 121.72 111.4 122.396 111.523L122.754 109.555L123.112 107.587C122.037 107.392 120.564 107.33 118.782 107.359L118.814 109.359ZM122.754 109.555L122.396 111.523L123.71 111.762L124.067 109.794L124.425 107.826L123.112 107.587L122.754 109.555ZM124.067 109.794L123.71 111.762L125.023 112L125.381 110.032L125.738 108.065L124.425 107.826L124.067 109.794ZM125.381 110.032L125.023 112C125.475 112.082 125.888 112.146 126.217 112.171C126.358 112.181 126.614 112.196 126.887 112.158C127.004 112.142 127.319 112.093 127.659 111.9C128.054 111.677 128.694 111.107 128.694 110.131H126.694H124.694C124.694 109.717 124.824 109.322 125.054 108.996C125.266 108.694 125.517 108.517 125.688 108.42C126.001 108.243 126.275 108.205 126.337 108.196C126.501 108.174 126.593 108.188 126.515 108.182C126.406 108.174 126.162 108.142 125.738 108.065L125.381 110.032ZM126.694 110.131H128.694V109.99H126.694H124.694V110.131H126.694ZM126.694 109.99L128.578 109.319L128.478 109.039L126.594 109.71L124.71 110.381L124.81 110.662L126.694 109.99ZM126.594 109.71V111.71H126.694V109.71V107.71H126.594V109.71ZM155.842 109.71H153.842V109.81H155.842H157.842V109.71H155.842ZM155.842 109.81L153.843 109.863L154 115.813L155.999 115.76L157.998 115.707L157.841 109.757L155.842 109.81ZM155.999 115.76L154 115.813C154.104 119.781 154.196 122.774 154.273 124.787L156.272 124.71L158.27 124.633C158.194 122.645 158.103 119.672 157.998 115.707L155.999 115.76ZM156.272 124.71L154.273 124.787L154.389 127.787L156.387 127.71L158.386 127.633L158.27 124.633L156.272 124.71ZM156.387 127.71L154.389 127.787L154.504 130.787L156.503 130.71L158.501 130.633L158.386 127.633L156.387 127.71ZM156.503 130.71L154.504 130.787C154.578 132.693 154.518 134.6 154.323 136.507L156.313 136.71L158.303 136.912C158.516 134.82 158.582 132.726 158.501 130.633L156.503 130.71ZM156.313 136.71L154.323 136.507L154.018 139.507L156.008 139.71L157.997 139.912L158.303 136.912L156.313 136.71ZM156.008 139.71L154.018 139.507L153.712 142.507L155.702 142.71L157.692 142.912L157.997 139.912L156.008 139.71ZM155.702 142.71L153.712 142.507C153.497 144.624 153.468 146.742 153.627 148.86L155.622 148.71L157.616 148.56C157.475 146.678 157.5 144.796 157.692 142.912L155.702 142.71ZM155.622 148.71L153.627 148.86L153.853 151.86L155.847 151.71L157.841 151.56L157.616 148.56L155.622 148.71ZM155.847 151.71L153.853 151.86L154.078 154.86L156.072 154.71L158.067 154.56L157.841 151.56L155.847 151.71ZM156.072 154.71L154.078 154.86C154.224 156.802 154.228 158.301 154.119 159.394L156.109 159.594L158.099 159.793C158.241 158.374 158.221 156.617 158.067 154.56L156.072 154.71ZM156.109 159.594L154.119 159.394L153.93 161.278L155.92 161.477L157.91 161.677L158.099 159.793L156.109 159.594ZM155.92 161.477L153.93 161.278L153.741 163.162L155.731 163.361L157.721 163.561L157.91 161.677L155.92 161.477ZM155.731 163.361L153.741 163.162C153.678 163.796 153.634 164.299 153.612 164.653C153.602 164.822 153.594 165.005 153.597 165.165C153.598 165.23 153.602 165.387 153.634 165.566C153.646 165.637 153.688 165.866 153.817 166.126C153.892 166.277 154.4 167.245 155.617 167.245V165.245V163.245C156.192 163.245 156.645 163.487 156.937 163.745C157.199 163.976 157.337 164.221 157.401 164.349C157.525 164.6 157.563 164.814 157.572 164.865C157.587 164.948 157.592 165.01 157.593 165.035C157.596 165.065 157.596 165.084 157.596 165.089C157.596 165.093 157.596 165.04 157.605 164.895C157.621 164.622 157.659 164.183 157.721 163.561L155.731 163.361ZM155.617 165.245V167.245H155.692V165.245V163.245H155.617V165.245ZM155.692 165.245L156.803 166.908L156.953 166.808L155.842 165.145L154.731 163.482L154.582 163.582L155.692 165.245ZM155.842 165.145H153.842V165.245H155.842H157.842V165.145H155.842ZM155.842 109.71L154.587 111.267L154.665 111.33L155.92 109.772L157.175 108.215L157.097 108.152L155.842 109.71ZM155.92 109.772L154.617 111.29L159.133 115.168L160.436 113.651L161.739 112.134L157.223 108.255L155.92 109.772ZM160.436 113.651L159.133 115.168C162.158 117.767 164.582 119.68 166.372 120.857L167.47 119.185L168.569 117.514C167 116.483 164.734 114.707 161.739 112.134L160.436 113.651ZM167.47 119.185L166.372 120.857L168.891 122.512L169.989 120.841L171.088 119.17L168.569 117.514L167.47 119.185ZM169.989 120.841L168.891 122.512L171.409 124.168L172.508 122.496L173.606 120.825L171.088 119.17L169.989 120.841ZM172.508 122.496L171.409 124.168C172.998 125.212 174.49 126.376 175.885 127.659L177.239 126.187L178.593 124.715C177.038 123.285 175.376 121.988 173.606 120.825L172.508 122.496ZM177.239 126.187L175.885 127.659L178.098 129.695L179.452 128.223L180.806 126.751L178.593 124.715L177.239 126.187ZM179.452 128.223L178.098 129.695L180.311 131.73L181.665 130.258L183.019 128.786L180.806 126.751L179.452 128.223ZM181.665 130.258L180.311 131.73C181.786 133.087 183.236 134.42 184.66 135.729L186.014 134.257L187.367 132.784C185.943 131.476 184.493 130.143 183.019 128.786L181.665 130.258ZM186.014 134.257L184.66 135.729L186.797 137.692L188.15 136.22L189.503 134.747L187.367 132.784L186.014 134.257ZM188.15 136.22L186.797 137.692L188.933 139.656L190.286 138.183L191.639 136.71L189.503 134.747L188.15 136.22ZM190.286 138.183L188.933 139.656C189.907 140.551 190.361 141.629 190.303 143.065L192.301 143.146L194.3 143.227C194.403 140.663 193.514 138.433 191.639 136.71L190.286 138.183ZM192.301 143.146L190.303 143.065L190.182 146.065L192.18 146.146L194.179 146.227L194.3 143.227L192.301 143.146ZM192.18 146.146L190.182 146.065L190.061 149.065L192.059 149.146L194.058 149.227L194.179 146.227L192.18 146.146ZM192.059 149.146L190.061 149.065C189.99 150.817 189.591 151.987 189.042 152.753L190.667 153.919L192.292 155.085C193.438 153.487 193.967 151.475 194.058 149.227L192.059 149.146ZM190.667 153.919L189.042 152.753L187.77 154.526L189.395 155.692L191.02 156.857L192.292 155.085L190.667 153.919ZM189.395 155.692L187.77 154.526L186.498 156.299L188.124 157.464L189.749 158.63L191.02 156.857L189.395 155.692ZM188.124 157.464L186.498 156.299C186.057 156.914 185.207 157.491 183.555 157.776L183.895 159.747L184.235 161.718C186.526 161.323 188.495 160.378 189.749 158.63L188.124 157.464ZM183.895 159.747L183.555 157.776L180.599 158.286L180.939 160.257L181.279 162.228L184.235 161.718L183.895 159.747ZM180.939 160.257L180.599 158.286L177.642 158.796L177.982 160.767L178.322 162.738L181.279 162.228L180.939 160.257ZM177.982 160.767L177.642 158.796C175.675 159.135 173.706 159.469 171.737 159.798L172.066 161.77L172.395 163.743C174.371 163.414 176.347 163.078 178.322 162.738L177.982 160.767ZM172.066 161.77L171.737 159.798L168.777 160.291L169.106 162.264L169.435 164.236L172.395 163.743L172.066 161.77ZM169.106 162.264L168.777 160.291L165.817 160.784L166.146 162.757L166.475 164.73L169.435 164.236L169.106 162.264ZM166.146 162.757L165.817 160.784C163.791 161.122 162.083 161.512 160.732 161.969L161.372 163.864L162.012 165.758C163.08 165.397 164.556 165.05 166.475 164.73L166.146 162.757ZM161.372 163.864L160.732 161.969L158.917 162.582L159.557 164.477L160.197 166.372L162.012 165.758L161.372 163.864ZM159.557 164.477L158.917 162.582L157.102 163.195L157.742 165.09L158.383 166.985L160.197 166.372L159.557 164.477ZM157.742 165.09L157.102 163.195C156.505 163.397 156.097 163.525 155.852 163.591C155.716 163.628 155.697 163.628 155.745 163.621C155.747 163.62 155.908 163.594 156.13 163.615C156.232 163.625 156.514 163.658 156.835 163.824C157.204 164.015 157.728 164.452 157.872 165.222L155.906 165.589L153.94 165.956C154.086 166.735 154.617 167.18 154.997 167.377C155.329 167.548 155.626 167.585 155.749 167.597C156.012 167.622 156.233 167.592 156.313 167.58C156.518 167.551 156.73 167.498 156.9 167.451C157.267 167.352 157.769 167.192 158.383 166.985L157.742 165.09ZM155.906 165.589L157.872 165.222L157.851 165.107L155.885 165.474L153.919 165.841L153.94 165.956L155.906 165.589ZM155.885 165.474L157.836 165.912L157.892 165.665L155.94 165.227L153.989 164.789L153.933 165.036L155.885 165.474ZM155.94 165.227L155.573 163.261L155.475 163.279L155.842 165.245L156.209 167.211L156.307 167.193L155.94 165.227ZM126.694 109.71V111.71H126.794V109.71V107.71H126.694V109.71ZM126.794 109.71L126.793 111.71L132.573 111.712L132.574 109.712L132.575 107.712L126.795 107.71L126.794 109.71ZM132.574 109.712L132.573 111.712C136.432 111.714 139.363 111.676 141.348 111.596L141.268 109.598L141.188 107.6C139.287 107.676 136.421 107.714 132.575 107.712L132.574 109.712ZM141.268 109.598L141.348 111.596L144.263 111.479L144.183 109.481L144.103 107.483L141.188 107.6L141.268 109.598ZM144.183 109.481L144.263 111.479L147.178 111.362L147.098 109.364L147.017 107.365L144.103 107.483L144.183 109.481ZM147.098 109.364L147.178 111.362C149.091 111.285 150.39 111.329 151.163 111.449L151.47 109.473L151.777 107.497C150.607 107.315 148.99 107.286 147.017 107.365L147.098 109.364ZM151.47 109.473L151.163 111.449L152.62 111.676L152.927 109.7L153.234 107.723L151.777 107.497L151.47 109.473ZM152.927 109.7L152.62 111.676L154.077 111.903L154.385 109.926L154.692 107.95L153.234 107.723L152.927 109.7ZM154.385 109.926L154.077 111.903C154.574 111.98 154.999 112.037 155.319 112.062C155.463 112.074 155.678 112.087 155.896 112.071C155.981 112.065 156.235 112.045 156.524 111.936C156.675 111.879 157.842 111.407 157.842 110.042H155.842H153.842C153.842 109.427 154.119 108.939 154.433 108.629C154.705 108.362 154.984 108.242 155.114 108.193C155.373 108.095 155.581 108.083 155.606 108.082C155.703 108.075 155.735 108.083 155.636 108.075C155.471 108.062 155.167 108.024 154.692 107.95L154.385 109.926ZM155.842 110.042H157.842V109.931H155.842H153.842V110.042H155.842ZM155.842 109.931L157.665 109.108L157.565 108.887L155.742 109.71L153.919 110.533L154.019 110.754L155.842 109.931ZM155.742 109.71V111.71H155.842V109.71V107.71H155.742V109.71ZM155.842 165.245V163.245H155.742V165.245V167.245H155.842V165.245ZM155.742 165.245L155.699 163.246L149.749 163.374L149.792 165.374L149.835 167.373L155.785 167.245L155.742 165.245ZM149.792 165.374L149.749 163.374C145.785 163.46 142.817 163.506 140.835 163.512L140.842 165.512L140.849 167.512C142.868 167.506 145.866 167.459 149.835 167.373L149.792 165.374ZM140.842 165.512L140.835 163.512L137.835 163.522L137.842 165.522L137.849 167.522L140.849 167.512L140.842 165.512ZM137.842 165.522L137.835 163.522L134.835 163.532L134.842 165.532L134.849 167.532L137.849 167.522L137.842 165.522ZM134.842 165.532L134.835 163.532C132.862 163.538 130.888 163.506 128.914 163.434L128.842 165.433L128.77 167.432C130.796 167.505 132.822 167.538 134.849 167.532L134.842 165.532ZM128.842 165.433L128.914 163.434L125.914 163.326L125.842 165.324L125.77 167.323L128.77 167.432L128.842 165.433ZM125.842 165.324L125.914 163.326L122.914 163.217L122.842 165.216L122.77 167.214L125.77 167.323L125.842 165.324ZM122.842 165.216L122.914 163.217C120.904 163.144 118.893 163.088 116.882 163.047L116.842 165.047L116.802 167.046C118.791 167.086 120.78 167.142 122.77 167.214L122.842 165.216ZM116.842 165.047L116.882 163.047L113.882 162.987L113.842 164.986L113.802 166.986L116.802 167.046L116.842 165.047ZM113.842 164.986L113.882 162.987L110.882 162.926L110.842 164.926L110.802 166.926L113.802 166.986L113.842 164.986ZM110.842 164.926L110.882 162.926C108.858 162.886 107.184 162.899 105.876 162.972L105.988 164.969L106.1 166.966C107.264 166.901 108.826 166.886 110.802 166.926L110.842 164.926ZM105.988 164.969L105.876 162.972L104.022 163.076L104.134 165.073L104.245 167.07L106.1 166.966L105.988 164.969ZM104.134 165.073L104.022 163.076L102.168 163.18L102.28 165.177L102.391 167.174L104.245 167.07L104.134 165.073ZM102.28 165.177L102.168 163.18C101.55 163.214 101.091 163.239 100.787 163.255C100.634 163.263 100.525 163.268 100.458 163.271C100.422 163.272 100.409 163.273 100.409 163.273C100.41 163.273 100.415 163.272 100.422 163.272C100.428 163.272 100.443 163.272 100.463 163.272C100.472 163.273 100.532 163.273 100.609 163.28C100.633 163.282 100.752 163.293 100.899 163.329C100.956 163.342 101.156 163.392 101.386 163.517C101.502 163.581 101.725 163.717 101.938 163.963C102.169 164.23 102.425 164.677 102.425 165.272H100.425H98.4254C98.4254 166.469 99.379 166.979 99.4649 167.026C99.6949 167.152 99.8956 167.201 99.9527 167.215C100.101 167.251 100.22 167.261 100.245 167.264C100.325 167.271 100.388 167.272 100.402 167.272C100.446 167.273 100.484 167.272 100.5 167.272C100.539 167.271 100.583 167.269 100.625 167.267C100.712 167.264 100.835 167.258 100.991 167.25C101.305 167.234 101.772 167.208 102.391 167.174L102.28 165.177ZM100.425 165.272H102.425V165.263H100.425H98.4254V165.272H100.425ZM100.425 165.263L100.772 167.232L100.872 167.215L100.525 165.245L100.178 163.275L100.078 163.293L100.425 165.263ZM100.525 165.245V163.245H100.425V165.245V167.245H100.525V165.245ZM100.425 165.245V163.245H100.325V165.245V167.245H100.425V165.245ZM100.325 165.245L100.351 163.245L94.4012 163.168L94.3754 165.168L94.3495 167.168L100.3 167.245L100.325 165.245ZM94.3754 165.168L94.4012 163.168C90.4261 163.117 87.3989 163.132 85.343 163.217L85.4254 165.215L85.5077 167.213C87.4518 167.133 90.3913 167.117 94.3495 167.168L94.3754 165.168ZM85.4254 165.215L85.343 163.217L82.343 163.34L82.4254 165.339L82.5077 167.337L85.5077 167.213L85.4254 165.215ZM82.4254 165.339L82.343 163.34L79.343 163.464L79.4254 165.462L79.5077 167.461L82.5077 167.337L82.4254 165.339ZM79.4254 165.462L79.343 163.464C77.3511 163.546 75.3592 163.616 73.3673 163.674L73.4254 165.673L73.4834 167.672C75.4915 167.614 77.4996 167.544 79.5077 167.461L79.4254 165.462ZM73.4254 165.673L73.3673 163.674L70.3673 163.761L70.4254 165.76L70.4834 167.76L73.4834 167.672L73.4254 165.673ZM70.4254 165.76L70.3673 163.761L67.3673 163.848L67.4254 165.848L67.4834 167.847L70.4834 167.76L70.4254 165.76ZM67.4254 165.848L67.3673 163.848C65.3906 163.906 63.8146 163.907 62.6244 163.857L62.5399 165.855L62.4555 167.853C63.7791 167.909 65.4601 167.905 67.4834 167.847L67.4254 165.848ZM62.5399 165.855L62.6244 163.857L60.7389 163.777L60.6545 165.775L60.5701 167.774L62.4555 167.853L62.5399 165.855ZM60.6545 165.775L60.7389 163.777L58.8535 163.697L58.7691 165.696L58.6847 167.694L60.5701 167.774L60.6545 165.775ZM58.7691 165.696L58.8535 163.697C58.2324 163.671 57.8009 163.645 57.5371 163.621C57.3952 163.608 57.3552 163.6 57.3744 163.604C57.3838 163.606 57.4089 163.611 57.4448 163.62C57.4763 163.628 57.5456 163.647 57.6341 163.681C57.6996 163.706 57.901 163.786 58.121 163.958C58.3051 164.101 58.8837 164.613 58.8837 165.523H56.8837H54.8837C54.8837 166.441 55.4672 166.961 55.6611 167.112C55.8909 167.291 56.1071 167.379 56.1922 167.412C56.384 167.486 56.5561 167.52 56.6286 167.534C56.8049 167.567 57.0007 167.589 57.1729 167.604C57.5377 167.638 58.0488 167.667 58.6847 167.694L58.7691 165.696ZM56.8837 165.523H58.8837V165.431H56.8837H54.8837V165.523H56.8837ZM56.8837 165.431L58.644 166.38L58.744 166.194L56.9837 165.245L55.2233 164.296L55.1233 164.481L56.8837 165.431ZM56.9837 165.245V163.245H56.8837V165.245V167.245H56.9837V165.245Z" fill="var(--stroke-0, black)"/>
</svg>
