<svg preserveAspectRatio="none" width="100%" height="100%" overflow="visible" style="display: block;" viewBox="0 0 175 146" fill="none" xmlns="http://www.w3.org/2000/svg">
<path id="Vector 2" d="M3.78083 142.628C3.2775 143.611 3.66654 144.816 4.64977 145.319C5.633 145.823 6.83809 145.434 7.34141 144.45L5.56112 143.539L3.78083 142.628ZM5.60669 143.45L3.84716 142.499L3.83656 142.519L3.8264 142.539L5.60669 143.45ZM8.21733 138.619L9.97686 139.57L8.21733 138.619ZM12.0387 131.296L10.2397 130.422L12.0387 131.296ZM14.46 126.312L16.259 127.186L14.46 126.312ZM16.9673 121.371L18.7347 122.307L16.9673 121.371ZM19.5604 116.475L17.793 115.539L19.5604 116.475ZM22.0195 111.51L20.2039 110.672L22.0195 111.51ZM23.1821 108.994L24.9978 109.832L23.1821 108.994ZM28.1398 99.0841L29.8997 100.034L28.1398 99.0841ZM29.4561 96.6461L27.6962 95.6959L29.4561 96.6461ZM32.0891 91.7702L30.3293 90.8198L32.0891 91.7702ZM33.4057 89.3324L31.646 88.3819L33.4057 89.3324ZM34.7224 86.8946L36.4822 87.845L34.7224 86.8946ZM37.2966 81.9886L39.0786 82.8965L37.2966 81.9886ZM38.5541 79.5205L36.7721 78.6125L38.5541 79.5205ZM39.8116 77.0524L41.5936 77.9603L39.8116 77.0524ZM42.4408 72.1746L40.7027 71.1852L42.4408 72.1746ZM45.1841 67.3552L43.446 66.3658L45.1841 67.3552ZM47.5812 62.3586L45.7219 61.6216L47.5812 62.3586ZM48.6066 59.7717L50.4658 60.5086L48.6066 59.7717ZM49.632 57.1847L47.7727 56.4478L49.632 57.1847ZM52.2806 53.3799L51.0802 51.7801L52.2806 53.3799ZM53.9038 52.1619L52.7034 50.5622L53.9038 52.1619ZM55.527 50.944L56.7273 52.5438L55.527 50.944ZM59.1785 51.6126L60.5406 50.1482L59.1785 51.6126ZM61.2068 53.4992L59.8447 54.9637L61.2068 53.4992ZM71.1968 62.7222L69.8438 64.1952L71.1968 62.7222ZM74.1267 61.9371L76.0049 62.6244L74.1267 61.9371ZM76.0311 56.7335L74.1529 56.0461L76.0311 56.7335ZM77.8724 51.5082L75.9782 50.8662L77.8724 51.5082ZM78.7615 48.8847L80.6557 49.5267L78.7615 48.8847ZM79.6506 46.2613L77.7564 45.6193L77.7564 45.6193L79.6506 46.2613ZM81.4126 41.0088L83.3107 41.6391L81.4126 41.0088ZM83.1585 35.7508L81.2604 35.1206L83.1585 35.7508ZM85.085 30.5548L86.9352 31.3142L85.085 30.5548ZM87.1923 25.4208L85.3421 24.6613L87.1923 25.4208ZM88.8191 20.1219L90.7765 20.5326L88.8191 20.1219ZM89.9655 14.6583L88.0081 14.2476L89.9655 14.6583ZM91.8309 10.9111L93.0666 12.4837L93.0666 12.4837L91.8309 10.9111ZM94.4154 8.88036L93.1797 7.30775L93.1797 7.30775L94.4154 8.88036ZM96.9338 10.3545L98.728 9.47077L96.9338 10.3545ZM99.3861 15.3334L101.18 14.4497L99.3861 15.3334ZM101.966 20.2398L100.221 21.2171L101.966 20.2398ZM104.673 25.0736L106.418 24.0963L104.673 25.0736ZM107.47 29.8562L109.177 28.8146L107.47 29.8562ZM110.356 34.5877L108.649 35.6293L110.356 34.5877ZM113.311 39.2801L114.988 38.1904L113.311 39.2801ZM116.335 43.9334L114.657 45.0231L116.335 43.9334ZM119.017 48.7815L117.202 49.6235L119.017 48.7815ZM121.357 53.8243L123.171 52.9823L121.357 53.8243ZM123.976 58.708L125.681 57.6621L123.976 58.708ZM126.875 63.4326L125.17 64.4784L126.875 63.4326ZM129.658 68.2231L127.905 69.1859L129.658 68.2231ZM130.991 70.6514L129.238 71.6141L130.991 70.6514ZM132.325 73.0796L134.078 72.1168L132.325 73.0796ZM134.989 77.9378L136.743 76.9773L134.989 77.9378ZM137.65 82.7978L135.896 83.7583L137.65 82.7978ZM140.284 87.673L142.049 86.7321L140.284 87.673ZM142.892 92.5636L141.127 93.5045L142.892 92.5636ZM145.655 97.3651L143.955 98.4185L145.655 97.3651ZM147.115 99.7213L148.816 98.6679L147.115 99.7213ZM148.575 102.078L150.275 101.024L148.575 102.078ZM151.585 106.739L153.245 105.623L151.585 106.739ZM153.134 109.044L154.794 107.929L153.134 109.044ZM154.683 111.349L153.023 112.465L154.683 111.349ZM157.435 116.158L155.632 117.024L157.435 116.158ZM159.839 121.164L161.642 120.298L159.839 121.164ZM162.282 126.149L164.071 125.254L162.282 126.149ZM164.764 131.111L166.553 130.216L164.764 131.111ZM171.132 140.235L169.549 141.457L171.132 140.235ZM172.771 142.721L170.834 142.224L172.771 142.721ZM172.701 142.994L174.549 143.758L174.603 143.628L174.638 143.491L172.701 142.994ZM172.512 143.452L170.663 142.688L170.289 143.593L170.774 144.443L172.512 143.452ZM170.824 144.53C171.371 145.489 172.592 145.824 173.552 145.277C174.511 144.73 174.846 143.508 174.299 142.549L172.561 143.539L170.824 144.53ZM30.8674 5.91474C29.9918 6.58818 29.828 7.84386 30.5014 8.71939C31.1749 9.59493 32.4306 9.75876 33.3061 9.08532L32.0867 7.50003L30.8674 5.91474ZM32.166 7.43906L33.3854 9.02438L33.3952 9.01671L32.166 7.43906ZM33.2213 6.61683L34.4505 8.19448L33.2213 6.61683ZM34.7546 5.27799L36.2226 6.63631L34.7546 5.27799ZM35.7106 4.24475L37.1786 5.60307L35.7106 4.24475ZM36.4513 3.5005L37.7612 5.0118L36.4513 3.5005ZM36.9765 3.04525L35.6665 1.53395L36.9765 3.04525ZM37.326 2.93061L38.9113 1.71124L37.326 2.93061ZM37.4129 3.04359L39.3125 2.4177L39.2059 2.0942L38.9982 1.82422L37.4129 3.04359ZM37.5075 3.33053L35.6079 3.95642L36.4908 6.63575L38.7268 4.91582L37.5075 3.33053ZM38.8061 4.85485C39.6816 4.18141 39.8455 2.92572 39.172 2.05019C38.4986 1.17466 37.2429 1.01083 36.3674 1.68427L37.5867 3.26956L38.8061 4.85485ZM16.0816 7.31704C16.8089 8.14831 18.0725 8.23254 18.9037 7.50518C19.735 6.77782 19.8192 5.51429 19.0919 4.68302L17.5867 6.00003L16.0816 7.31704ZM17.5209 5.92477L19.026 4.60776L18.9312 4.49935L18.8217 4.40565L17.5209 5.92477ZM15.5435 4.25657L14.297 5.82057L15.5435 4.25657ZM14.6988 3.58325L13.4522 5.14726L14.6988 3.58325ZM14.1913 2.96792L12.2784 3.55187L14.1913 2.96792ZM14.1062 2.68923L16.0191 2.10528L14.1062 2.68923ZM14.0211 2.41055L12.1083 2.9945L14.0211 2.41055ZM13.9737 2.09891L15.2907 3.60406L13.9737 2.09891ZM14.0114 2.06595L14.1434 0.0703072L13.3174 0.0156706L12.6944 0.560793L14.0114 2.06595ZM14.1526 2.07529L14.0206 4.07092L18.8349 4.38937L15.6577 0.758276L14.1526 2.07529ZM15.5919 0.683018C14.8645 -0.148255 13.601 -0.23249 12.7697 0.494874C11.9384 1.22224 11.8542 2.48576 12.5816 3.31704L14.0867 2.00003L15.5919 0.683018ZM9.03645 24.4488C10.1127 24.2004 10.7839 23.1266 10.5355 22.0503C10.2871 20.974 9.21329 20.3029 8.13701 20.5512L8.58673 22.5L9.03645 24.4488ZM8.48929 22.5225L8.92064 24.4754L8.92983 24.4734L8.93901 24.4713L8.48929 22.5225ZM5.30352 23.1061L5.2161 21.108L5.30352 23.1061ZM3.94797 23.1654L4.0354 25.1635L3.94797 23.1654ZM2.62495 23.3657L3.13608 25.2992L2.62495 23.3657ZM2.30232 23.4509L1.79119 21.5174L2.30232 23.4509ZM2.00645 23.6522L0.057671 24.1019L2.00645 23.6522ZM2.03321 23.7681L0.0844286 24.2178L0.175072 24.6106L0.410792 24.9376L2.03321 23.7681ZM2.18417 23.9775L2.63388 25.9263L5.56654 25.2496L3.80658 22.808L2.18417 23.9775ZM1.63701 22.0512C0.560724 22.2996 -0.110429 23.3735 0.137944 24.4497C0.386317 25.526 1.46016 26.1972 2.53645 25.9488L2.08673 24L1.63701 22.0512ZM8.63853 15.761C9.61107 16.2846 10.824 15.9208 11.3477 14.9482C11.8713 13.9757 11.5075 12.7628 10.5349 12.2391L9.58673 14L8.63853 15.761ZM9.49868 13.9526L10.4469 12.1917L10.3385 12.1333L10.2238 12.0887L9.49868 13.9526ZM6.18383 12.534L5.16499 14.255L6.18383 12.534ZM4.91224 11.7812L3.8934 13.5023L4.91224 11.7812ZM4.01899 11.1044L5.5377 9.80303L4.01899 11.1044ZM3.50409 10.5035L1.98539 11.8048L3.50409 10.5035ZM3.16668 10.3515L1.40574 9.40333L1.14576 9.88615L1.16839 10.434L3.16668 10.3515ZM3.17477 10.5474L2.22657 12.3084L5.31792 13.973L5.17307 10.4649L3.17477 10.5474ZM4.03493 8.73909C3.06238 8.21541 1.84946 8.57929 1.32578 9.55183C0.802108 10.5244 1.16599 11.7373 2.13853 12.261L3.08673 10.5L4.03493 8.73909ZM36.1961 25.3359C35.2771 24.7232 34.0353 24.9716 33.4226 25.8906C32.8099 26.8097 33.0583 28.0514 33.9773 28.6641L35.0867 27L36.1961 25.3359ZM35.1699 27.0555L36.7316 25.806L36.5376 25.5636L36.2793 25.3914L35.1699 27.0555ZM35.8463 27.9008L37.4079 26.6514L35.8463 27.9008ZM37.1016 28.8527L36.7396 30.8197L37.1016 28.8527ZM37.6805 28.9593L38.0426 26.9923L37.6805 28.9593ZM38.2595 29.0659L38.6215 27.0989L38.2595 29.0659ZM39.318 29.4281L38.3772 31.193L39.318 29.4281ZM39.5578 29.5559L40.4986 27.791L39.5578 29.5559ZM39.6922 29.8419L40.6484 31.5984L41.0823 31.3623L41.3563 30.9513L39.6922 29.8419ZM39.5035 29.9446L38.5473 28.188L35.6384 29.7715L38.3941 31.6087L39.5035 29.9446ZM38.4773 31.6641C39.3964 32.2768 40.6381 32.0285 41.2508 31.1094C41.8635 30.1904 41.6152 28.9486 40.6961 28.3359L39.5867 30L38.4773 31.6641ZM27.0867 30C27.0867 28.8955 26.1913 28 25.0867 28C23.9822 28 23.0867 28.8955 23.0867 30H25.0867H27.0867ZM25.0867 30.1H23.0867V30.2132L23.0995 30.3256L25.0867 30.1ZM25.2286 31.35L23.2414 31.5756L25.2286 31.35ZM25.2904 33.25L27.2754 33.4946L25.2904 33.25ZM25.2103 33.9L23.2253 33.6555L25.2103 33.9ZM25.1303 34.55L23.1453 34.3055L25.1303 34.55ZM25.1145 35.525L23.1527 35.9136L25.1145 35.525ZM25.2433 36.175L23.2814 36.5636L25.2433 36.175ZM25.1972 36.5L23.8549 37.9827L24.4264 38.5H25.1972V36.5ZM25.0867 36.4L26.429 34.9174L23.0867 31.8916V36.4H25.0867ZM23.0867 36.5C23.0867 37.6046 23.9822 38.5 25.0867 38.5C26.1913 38.5 27.0867 37.6046 27.0867 36.5H25.0867H23.0867ZM17.0815 31.3288C17.8154 30.5032 17.741 29.239 16.9155 28.5052C16.0899 27.7714 14.8257 27.8457 14.0919 28.6713L15.5867 30L17.0815 31.3288ZM15.5203 30.0748L16.6133 31.7497L16.8374 31.6035L17.0151 31.4035L15.5203 30.0748ZM14.5185 30.7285L13.4255 29.0536L14.5185 30.7285ZM13.3215 32.0143L11.4106 31.4239L13.3215 32.0143ZM12.931 33.2783L11.0201 32.6879L12.931 33.2783ZM12.5406 34.1396L11.0174 32.8435L12.5406 34.1396ZM12.1503 34.5982L10.6271 33.3021L12.1503 34.5982ZM11.8631 34.7457L13.1918 33.2508L11.8631 34.7457ZM11.771 34.6638L9.97774 35.5494L10.1506 35.8993L10.4422 36.1586L11.771 34.6638ZM11.6532 34.4253L13.4464 33.5396L12.1313 30.877L10.1583 33.0966L11.6532 34.4253ZM10.0919 33.1713C9.35807 33.9969 9.43243 35.261 10.258 35.9948C11.0836 36.7287 12.3477 36.6543 13.0815 35.8288L11.5867 34.5L10.0919 33.1713ZM35.8039 14.5201C34.7104 14.6763 33.9506 15.6894 34.1068 16.7829C34.263 17.8763 35.2761 18.6361 36.3696 18.4799L36.0867 16.5L35.8039 14.5201ZM36.1857 16.4859L36.4686 18.4658L36.4884 18.4629L36.5082 18.4597L36.1857 16.4859ZM37.5324 16.2659L37.2099 14.292L37.5324 16.2659ZM39.5762 15.9262L39.9147 17.8973L39.5762 15.9262ZM42.0002 15.3945L41.0791 13.6192L42.0002 15.3945ZM43.02 15.0327L41.0401 15.3155L43.02 15.0327ZM43.0422 15.1885L45.0148 15.5185L45.066 15.2126L45.0221 14.9056L43.0422 15.1885ZM42.9877 15.5142L41.0151 15.1842L40.564 17.8807L43.2706 17.4941L42.9877 15.5142ZM43.3696 17.4799C44.463 17.3237 45.2228 16.3107 45.0666 15.2172C44.9104 14.1237 43.8974 13.3639 42.8039 13.5201L43.0867 15.5L43.3696 17.4799ZM14.5998 17.5426L12.9103 16.4723L14.5998 17.5426ZM17.114 23.4181L18.4367 21.9179L17.114 23.4181ZM19.1146 25.1821L17.7919 26.6822L19.1146 25.1821ZM23.653 25.8695L22.872 24.0283L23.653 25.8695ZM28.7285 23.7164L27.9475 21.8752L28.7285 23.7164ZM31.0011 20.1695L29.0125 20.3829L31.0011 20.1695ZM30.7359 17.6991L28.7474 17.9126L30.7359 17.6991ZM30.4708 15.2288L28.4822 15.4422L30.4708 15.2288ZM25.0764 11.4638L24.587 13.403L25.0764 11.4638ZM22.5118 10.8165L22.0224 12.7556L22.5118 10.8165ZM19.7257 10.2519L20.4254 12.1255L19.7257 10.2519ZM19.2827 10.4173L18.583 8.54367L19.2827 10.4173ZM17.574 12.8476L19.2635 13.9178L17.574 12.8476ZM5.56112 143.539L7.34141 144.45L7.38698 144.361L5.60669 143.45L3.8264 142.539L3.78083 142.628L5.56112 143.539ZM5.60669 143.45L7.36622 144.401L9.97686 139.57L8.21733 138.619L6.4578 137.668L3.84716 142.499L5.60669 143.45ZM8.21733 138.619L9.97686 139.57C11.7205 136.343 13.011 133.871 13.8376 132.17L12.0387 131.296L10.2397 130.422C9.4521 132.043 8.19505 134.453 6.4578 137.668L8.21733 138.619ZM12.0387 131.296L13.8376 132.17L15.0483 129.678L13.2493 128.804L11.4504 127.93L10.2397 130.422L12.0387 131.296ZM13.2493 128.804L15.0483 129.678L16.259 127.186L14.46 126.312L12.6611 125.438L11.4504 127.93L13.2493 128.804ZM14.46 126.312L16.259 127.186C17.056 125.545 17.8812 123.919 18.7347 122.307L16.9673 121.371L15.1999 120.435C14.3246 122.088 13.4784 123.755 12.6611 125.438L14.46 126.312ZM16.9673 121.371L18.7347 122.307L20.0313 119.859L18.2638 118.923L16.4964 117.987L15.1999 120.435L16.9673 121.371ZM18.2638 118.923L20.0313 119.859L21.3278 117.411L19.5604 116.475L17.793 115.539L16.4964 117.987L18.2638 118.923ZM19.5604 116.475L21.3278 117.411C22.2092 115.747 23.0449 114.06 23.8352 112.349L22.0195 111.51L20.2039 110.672C19.444 112.317 18.6404 113.939 17.793 115.539L19.5604 116.475ZM22.0195 111.51L23.8352 112.349L24.9978 109.832L23.1821 108.994L21.3665 108.155L20.2039 110.672L22.0195 111.51ZM23.1821 108.994L24.9978 109.832L26.1604 107.316L24.3447 106.477L22.5291 105.638L21.3665 108.155L23.1821 108.994ZM24.3447 106.477L26.1604 107.316C26.918 105.675 27.7257 104.061 28.5835 102.472L26.8236 101.522L25.0637 100.572C24.1664 102.234 23.3215 103.923 22.5291 105.638L24.3447 106.477ZM26.8236 101.522L28.5835 102.472L29.8997 100.034L28.1398 99.0841L26.3799 98.134L25.0637 100.572L26.8236 101.522ZM28.1398 99.0841L29.8997 100.034L31.216 97.5962L29.4561 96.6461L27.6962 95.6959L26.3799 98.134L28.1398 99.0841ZM29.4561 96.6461L31.216 97.5962C32.0935 95.971 32.9711 94.3458 33.8488 92.7206L32.0891 91.7702L30.3293 90.8198C29.4515 92.4451 28.5738 94.0705 27.6962 95.6959L29.4561 96.6461ZM32.0891 91.7702L33.8488 92.7206L35.1655 90.2828L33.4057 89.3324L31.646 88.3819L30.3293 90.8198L32.0891 91.7702ZM33.4057 89.3324L35.1655 90.2828L36.4822 87.845L34.7224 86.8946L32.9627 85.9441L31.646 88.3819L33.4057 89.3324ZM34.7224 86.8946L36.4822 87.845C37.3675 86.2057 38.233 84.5562 39.0786 82.8965L37.2966 81.9886L35.5146 81.0807C34.6835 82.7118 33.8329 84.333 32.9627 85.9441L34.7224 86.8946ZM37.2966 81.9886L39.0786 82.8965L40.3361 80.4284L38.5541 79.5205L36.7721 78.6125L35.5146 81.0807L37.2966 81.9886ZM38.5541 79.5205L40.3361 80.4284L41.5936 77.9603L39.8116 77.0524L38.0296 76.1444L36.7721 78.6125L38.5541 79.5205ZM39.8116 77.0524L41.5936 77.9603C42.418 76.3424 43.2797 74.7436 44.1789 73.164L42.4408 72.1746L40.7027 71.1852C39.773 72.8184 38.8819 74.4715 38.0296 76.1444L39.8116 77.0524ZM42.4408 72.1746L44.1789 73.164L45.5506 70.7543L43.8125 69.7649L42.0743 68.7755L40.7027 71.1852L42.4408 72.1746ZM43.8125 69.7649L45.5506 70.7543L46.9222 68.3446L45.1841 67.3552L43.446 66.3658L42.0743 68.7755L43.8125 69.7649ZM45.1841 67.3552L46.9222 68.3446C47.8831 66.6567 48.7226 64.9067 49.4405 63.0956L47.5812 62.3586L45.7219 61.6216C45.0726 63.2597 44.314 64.8409 43.446 66.3658L45.1841 67.3552ZM47.5812 62.3586L49.4405 63.0956L50.4658 60.5086L48.6066 59.7717L46.7473 59.0347L45.7219 61.6216L47.5812 62.3586ZM48.6066 59.7717L50.4658 60.5086L51.4912 57.9217L49.632 57.1847L47.7727 56.4478L46.7473 59.0347L48.6066 59.7717ZM49.632 57.1847L51.4912 57.9217C52.0875 56.4174 52.7839 55.5026 53.4809 54.9796L52.2806 53.3799L51.0802 51.7801C49.613 52.881 48.5436 54.5028 47.7727 56.4478L49.632 57.1847ZM52.2806 53.3799L53.4809 54.9796L55.1041 53.7617L53.9038 52.1619L52.7034 50.5622L51.0802 51.7801L52.2806 53.3799ZM53.9038 52.1619L55.1041 53.7617L56.7273 52.5438L55.527 50.944L54.3266 49.3443L52.7034 50.5622L53.9038 52.1619ZM55.527 50.944L56.7273 52.5438C56.773 52.5095 56.8066 52.4903 56.8275 52.4799C56.8479 52.4698 56.8585 52.467 56.8602 52.4665C56.8617 52.4661 56.8614 52.4662 56.8619 52.4662C56.8626 52.4662 56.8716 52.4659 56.8912 52.4695C56.9829 52.4863 57.2908 52.5882 57.8164 53.0771L59.1785 51.6126L60.5406 50.1482C59.714 49.3793 58.7371 48.741 57.6117 48.5349C56.3998 48.313 55.2675 48.6383 54.3266 49.3443L55.527 50.944ZM59.1785 51.6126L57.8164 53.0771L59.8447 54.9637L61.2068 53.4992L62.5689 52.0347L60.5406 50.1482L59.1785 51.6126ZM61.2068 53.4992L59.8447 54.9637L61.873 56.8502L63.2351 55.3857L64.5972 53.9213L62.5689 52.0347L61.2068 53.4992ZM63.2351 55.3857L61.873 56.8502C63.2282 58.1107 64.5666 59.3479 65.8883 60.5619L67.2412 59.0889L68.5942 57.616C67.2788 56.4078 65.9465 55.1762 64.5972 53.9213L63.2351 55.3857ZM67.2412 59.0889L65.8883 60.5619L67.8661 62.3785L69.219 60.9056L70.5719 59.4327L68.5942 57.616L67.2412 59.0889ZM69.219 60.9056L67.8661 62.3785L69.8438 64.1952L71.1968 62.7222L72.5497 61.2493L70.5719 59.4327L69.219 60.9056ZM71.1968 62.7222L69.8438 64.1952C70.6217 64.9097 71.9039 65.7766 73.4358 65.3661C74.9258 64.9668 75.6413 63.6178 76.0049 62.6244L74.1267 61.9371L72.2486 61.2497C72.1942 61.3982 72.1446 61.5078 72.1034 61.5859C72.062 61.6645 72.0353 61.6995 72.0303 61.7056C72.0258 61.7112 72.051 61.6784 72.114 61.6339C72.1801 61.5871 72.2768 61.5356 72.4005 61.5024C72.5248 61.4691 72.6411 61.4639 72.7354 61.4734C72.8255 61.4824 72.8778 61.5029 72.886 61.5063C72.8931 61.5092 72.8659 61.4987 72.8039 61.4563C72.7423 61.4142 72.6575 61.3483 72.5497 61.2493L71.1968 62.7222ZM74.1267 61.9371L76.0049 62.6244L76.9571 60.0226L75.0789 59.3353L73.2007 58.6479L72.2486 61.2497L74.1267 61.9371ZM75.0789 59.3353L76.9571 60.0226L77.9093 57.4208L76.0311 56.7335L74.1529 56.0461L73.2007 58.6479L75.0789 59.3353ZM76.0311 56.7335L77.9093 57.4208C78.5496 55.6712 79.1687 53.9143 79.7666 52.1501L77.8724 51.5082L75.9782 50.8662C75.3906 52.6 74.7822 54.3266 74.1529 56.0461L76.0311 56.7335ZM77.8724 51.5082L79.7666 52.1501L80.6557 49.5267L78.7615 48.8847L76.8673 48.2428L75.9782 50.8662L77.8724 51.5082ZM78.7615 48.8847L80.6557 49.5267L81.5448 46.9032L79.6506 46.2613L77.7564 45.6193L76.8673 48.2428L78.7615 48.8847ZM79.6506 46.2613L81.5448 46.9032C82.1388 45.1504 82.7275 43.3956 83.3107 41.6391L81.4126 41.0088L79.5145 40.3786C78.9339 42.1273 78.3478 43.8743 77.7564 45.6193L79.6506 46.2613ZM81.4126 41.0088L83.3107 41.6391L84.1836 39.0101L82.2855 38.3798L80.3874 37.7496L79.5145 40.3786L81.4126 41.0088ZM82.2855 38.3798L84.1836 39.0101L85.0566 36.3811L83.1585 35.7508L81.2604 35.1206L80.3874 37.7496L82.2855 38.3798ZM83.1585 35.7508L85.0566 36.3811C85.624 34.6721 86.2502 32.9831 86.9352 31.3142L85.085 30.5548L83.2348 29.7954C82.515 31.5492 81.8568 33.3242 81.2604 35.1206L83.1585 35.7508ZM85.085 30.5548L86.9352 31.3142L87.9889 28.7472L86.1387 27.9878L84.2885 27.2284L83.2348 29.7954L85.085 30.5548ZM86.1387 27.9878L87.9889 28.7472L89.0425 26.1802L87.1923 25.4208L85.3421 24.6613L84.2885 27.2284L86.1387 27.9878ZM87.1923 25.4208L89.0425 26.1802C89.7915 24.3554 90.3695 22.4724 90.7765 20.5326L88.8191 20.1219L86.8617 19.7112C86.5045 21.4139 85.998 23.0634 85.3421 24.6613L87.1923 25.4208ZM88.8191 20.1219L90.7765 20.5326L91.3497 17.8008L89.3923 17.3901L87.4349 16.9794L86.8617 19.7112L88.8191 20.1219ZM89.3923 17.3901L91.3497 17.8008L91.9229 15.069L89.9655 14.6583L88.0081 14.2476L87.4349 16.9794L89.3923 17.3901ZM89.9655 14.6583L91.9229 15.069C92.2702 13.4138 92.757 12.727 93.0666 12.4837L91.8309 10.9111L90.5952 9.33853C89.1819 10.4491 88.4251 12.2604 88.0081 14.2476L89.9655 14.6583ZM91.8309 10.9111L93.0666 12.4837L94.3588 11.4683L93.1232 9.89574L91.8875 8.32314L90.5952 9.33853L91.8309 10.9111ZM93.1232 9.89574L94.3588 11.4683L95.6511 10.453L94.4154 8.88036L93.1797 7.30775L91.8875 8.32314L93.1232 9.89574ZM94.4154 8.88036L95.6511 10.453C95.651 10.453 95.6435 10.4589 95.6283 10.4683C95.6132 10.4777 95.5896 10.491 95.5575 10.5054C95.4917 10.535 95.3956 10.5667 95.2743 10.5799C95.0031 10.6095 94.7883 10.5302 94.6808 10.4672C94.5993 10.4196 94.6243 10.4093 94.7321 10.5492C94.8352 10.6831 94.9743 10.9026 95.1396 11.2381L96.9338 10.3545L98.728 9.47077C98.2782 8.55761 97.648 7.56922 96.7014 7.01513C96.1742 6.70651 95.5369 6.52754 94.8405 6.60351C94.165 6.6772 93.6077 6.97147 93.1797 7.30775L94.4154 8.88036ZM96.9338 10.3545L95.1396 11.2381L96.3657 13.7276L98.1599 12.8439L99.9541 11.9603L98.728 9.47077L96.9338 10.3545ZM98.1599 12.8439L96.3657 13.7276L97.5919 16.2171L99.3861 15.3334L101.18 14.4497L99.9541 11.9603L98.1599 12.8439ZM99.3861 15.3334L97.5919 16.2171C98.4249 17.9083 99.3012 19.575 100.221 21.2171L101.966 20.2398L103.711 19.2626C102.826 17.6821 101.982 16.0779 101.18 14.4497L99.3861 15.3334ZM101.966 20.2398L100.221 21.2171L101.574 23.6339L103.319 22.6567L105.064 21.6795L103.711 19.2626L101.966 20.2398ZM103.319 22.6567L101.574 23.6339L102.928 26.0508L104.673 25.0736L106.418 24.0963L105.064 21.6795L103.319 22.6567ZM104.673 25.0736L102.928 26.0508C103.842 27.6838 104.787 29.2994 105.762 30.8978L107.47 29.8562L109.177 28.8146C108.228 27.2587 107.308 25.6859 106.418 24.0963L104.673 25.0736ZM107.47 29.8562L105.762 30.8978L107.205 33.2635L108.913 32.2219L110.62 31.1804L109.177 28.8146L107.47 29.8562ZM108.913 32.2219L107.205 33.2635L108.649 35.6293L110.356 34.5877L112.063 33.5461L110.62 31.1804L108.913 32.2219ZM110.356 34.5877L108.649 35.6293C109.621 37.2226 110.616 38.8028 111.634 40.3698L113.311 39.2801L114.988 38.1904C113.991 36.6552 113.016 35.1071 112.063 33.5461L110.356 34.5877ZM113.311 39.2801L111.634 40.3698L113.146 42.6965L114.823 41.6068L116.5 40.5171L114.988 38.1904L113.311 39.2801ZM114.823 41.6068L113.146 42.6965L114.657 45.0231L116.335 43.9334L118.012 42.8437L116.5 40.5171L114.823 41.6068ZM116.335 43.9334L114.657 45.0231C115.614 46.4949 116.462 48.0281 117.202 49.6235L119.017 48.7815L120.831 47.9396C120.011 46.1731 119.071 44.4742 118.012 42.8437L116.335 43.9334ZM119.017 48.7815L117.202 49.6235L118.373 52.1448L120.187 51.3029L122.001 50.4609L120.831 47.9396L119.017 48.7815ZM120.187 51.3029L118.373 52.1448L119.543 54.6662L121.357 53.8243L123.171 52.9823L122.001 50.4609L120.187 51.3029ZM121.357 53.8243L119.543 54.6662C120.355 56.417 121.265 58.113 122.272 59.7538L123.976 58.708L125.681 57.6621C124.755 56.1533 123.919 54.5934 123.171 52.9823L121.357 53.8243ZM123.976 58.708L122.272 59.7538L123.721 62.1161L125.426 61.0703L127.13 60.0244L125.681 57.6621L123.976 58.708ZM125.426 61.0703L123.721 62.1161L125.17 64.4784L126.875 63.4326L128.58 62.3867L127.13 60.0244L125.426 61.0703ZM126.875 63.4326L125.17 64.4784C126.12 66.026 127.031 67.5952 127.905 69.1859L129.658 68.2231L131.411 67.2604C130.506 65.6134 129.563 63.9889 128.58 62.3867L126.875 63.4326ZM129.658 68.2231L127.905 69.1859L129.238 71.6141L130.991 70.6514L132.744 69.6886L131.411 67.2604L129.658 68.2231ZM130.991 70.6514L129.238 71.6141L130.572 74.0424L132.325 73.0796L134.078 72.1168L132.744 69.6886L130.991 70.6514ZM132.325 73.0796L130.572 74.0424C131.461 75.6605 132.348 77.2791 133.235 78.8984L134.989 77.9378L136.743 76.9773C135.856 75.3565 134.967 73.7364 134.078 72.1168L132.325 73.0796ZM134.989 77.9378L133.235 78.8984L134.565 81.3283L136.32 80.3678L138.074 79.4073L136.743 76.9773L134.989 77.9378ZM136.32 80.3678L134.565 81.3283L135.896 83.7583L137.65 82.7978L139.404 81.8372L138.074 79.4073L136.32 80.3678ZM137.65 82.7978L135.896 83.7583C136.779 85.3718 137.654 86.9903 138.52 88.614L140.284 87.673L142.049 86.7321C141.177 85.0954 140.295 83.4637 139.404 81.8372L137.65 82.7978ZM140.284 87.673L138.52 88.614L139.823 91.0592L141.588 90.1183L143.353 89.1774L142.049 86.7321L140.284 87.673ZM141.588 90.1183L139.823 91.0592L141.127 93.5045L142.892 92.5636L144.657 91.6227L143.353 89.1774L141.588 90.1183ZM142.892 92.5636L141.127 93.5045C142.016 95.1729 142.959 96.8109 143.955 98.4185L145.655 97.3651L147.356 96.3117C146.405 94.7777 145.505 93.2147 144.657 91.6227L142.892 92.5636ZM145.655 97.3651L143.955 98.4185L145.415 100.775L147.115 99.7213L148.816 98.6679L147.356 96.3117L145.655 97.3651ZM147.115 99.7213L145.415 100.775L146.875 103.131L148.575 102.078L150.275 101.024L148.816 98.6679L147.115 99.7213ZM148.575 102.078L146.875 103.131C147.862 104.723 148.878 106.297 149.925 107.855L151.585 106.739L153.245 105.623C152.225 104.107 151.236 102.574 150.275 101.024L148.575 102.078ZM151.585 106.739L149.925 107.855L151.474 110.16L153.134 109.044L154.794 107.929L153.245 105.623L151.585 106.739ZM153.134 109.044L151.474 110.16L153.023 112.465L154.683 111.349L156.343 110.234L154.794 107.929L153.134 109.044ZM154.683 111.349L153.023 112.465C154.003 113.922 154.872 115.442 155.632 117.024L157.435 116.158L159.238 115.292C158.395 113.537 157.43 111.85 156.343 110.234L154.683 111.349ZM157.435 116.158L155.632 117.024L156.834 119.527L158.637 118.661L160.44 117.795L159.238 115.292L157.435 116.158ZM158.637 118.661L156.834 119.527L158.036 122.03L159.839 121.164L161.642 120.298L160.44 117.795L158.637 118.661ZM159.839 121.164L158.036 122.03C158.842 123.709 159.661 125.38 160.493 127.043L162.282 126.149L164.071 125.254C163.249 123.609 162.439 121.958 161.642 120.298L159.839 121.164ZM162.282 126.149L160.493 127.043L161.734 129.524L163.523 128.63L165.312 127.735L164.071 125.254L162.282 126.149ZM163.523 128.63L161.734 129.524L162.975 132.005L164.764 131.111L166.553 130.216L165.312 127.735L163.523 128.63ZM164.764 131.111L162.975 132.005C163.861 133.776 164.913 135.45 166.131 137.028L167.714 135.806L169.297 134.584C168.236 133.209 167.322 131.754 166.553 130.216L164.764 131.111ZM167.714 135.806L166.131 137.028L167.84 139.242L169.423 138.02L171.006 136.798L169.297 134.584L167.714 135.806ZM169.423 138.02L167.84 139.242L169.549 141.457L171.132 140.235L172.715 139.013L171.006 136.798L169.423 138.02ZM171.132 140.235L169.549 141.457C170.109 142.183 170.495 142.713 170.726 143.064C170.782 143.149 170.825 143.217 170.856 143.269C170.871 143.294 170.882 143.314 170.89 143.329C170.899 143.344 170.902 143.35 170.902 143.35C170.902 143.35 170.9 143.347 170.898 143.342C170.895 143.336 170.892 143.328 170.887 143.316C170.878 143.295 170.861 143.251 170.843 143.19C170.826 143.133 170.798 143.027 170.784 142.888C170.77 142.757 170.759 142.516 170.834 142.224L172.771 142.721L174.708 143.218C174.854 142.651 174.716 142.181 174.678 142.056C174.62 141.859 174.544 141.692 174.488 141.577C174.371 141.342 174.219 141.095 174.066 140.863C173.751 140.385 173.294 139.762 172.715 139.013L171.132 140.235ZM172.771 142.721L170.834 142.224L170.764 142.497L172.701 142.994L174.638 143.491L174.708 143.218L172.771 142.721ZM172.701 142.994L170.853 142.23L170.663 142.688L172.512 143.452L174.36 144.216L174.549 143.758L172.701 142.994ZM172.512 143.452L170.774 144.443L170.824 144.53L172.561 143.539L174.299 142.549L174.249 142.462L172.512 143.452ZM32.0867 7.50003L33.3061 9.08532L33.3854 9.02435L32.166 7.43906L30.9466 5.85377L30.8674 5.91474L32.0867 7.50003ZM32.166 7.43906L33.3952 9.01671L34.4505 8.19448L33.2213 6.61683L31.992 5.03918L30.9368 5.86141L32.166 7.43906ZM33.2213 6.61683L34.4505 8.19448C35.1779 7.62775 35.7916 7.10204 36.2226 6.63631L34.7546 5.27799L33.2866 3.91967C33.0802 4.14276 32.6717 4.50961 31.992 5.03918L33.2213 6.61683ZM34.7546 5.27799L36.2226 6.63631L36.7006 6.11969L35.2326 4.76137L33.7646 3.40305L33.2866 3.91967L34.7546 5.27799ZM35.2326 4.76137L36.7006 6.11969L37.1786 5.60307L35.7106 4.24475L34.2426 2.88643L33.7646 3.40305L35.2326 4.76137ZM35.7106 4.24475L37.1786 5.60307C37.487 5.26973 37.6729 5.08839 37.7612 5.0118L36.4513 3.5005L35.1413 1.98921C34.8795 2.21612 34.5716 2.53094 34.2426 2.88643L35.7106 4.24475ZM36.4513 3.5005L37.7612 5.0118L38.0238 4.78417L36.7139 3.27288L35.4039 1.76158L35.1413 1.98921L36.4513 3.5005ZM36.7139 3.27288L38.0238 4.78417L38.2864 4.55655L36.9765 3.04525L35.6665 1.53395L35.4039 1.76158L36.7139 3.27288ZM36.9765 3.04525L38.2864 4.55655C38.2824 4.56008 38.2488 4.58924 38.1886 4.62846C38.1349 4.66345 38.0076 4.74114 37.8185 4.80316C37.6325 4.86416 37.2848 4.94296 36.8554 4.85163C36.3803 4.75057 35.9954 4.48111 35.7407 4.14997L37.326 2.93061L38.9113 1.71124C38.6276 1.34244 38.2064 1.04952 37.6877 0.939175C37.2148 0.838567 36.8161 0.922285 36.5718 1.00239C36.1259 1.14867 35.8082 1.41118 35.6665 1.53395L36.9765 3.04525ZM37.326 2.93061L35.7407 4.14997L35.8276 4.26296L37.4129 3.04359L38.9982 1.82422L38.9113 1.71124L37.326 2.93061ZM37.4129 3.04359L35.5134 3.66948L35.6079 3.95642L37.5075 3.33053L39.407 2.70463L39.3125 2.4177L37.4129 3.04359ZM37.5075 3.33053L38.7268 4.91582L38.8061 4.85485L37.5867 3.26956L36.3674 1.68427L36.2881 1.74524L37.5075 3.33053ZM17.5867 6.00003L19.0919 4.68302L19.026 4.60776L17.5209 5.92477L16.0157 7.24178L16.0816 7.31704L17.5867 6.00003ZM17.5209 5.92477L18.8217 4.40565L18.0443 3.73987L16.7434 5.259L15.4425 6.77812L16.22 7.44389L17.5209 5.92477ZM16.7434 5.259L18.0443 3.73987C17.5209 3.29166 17.0997 2.93929 16.7901 2.69256L15.5435 4.25657L14.297 5.82057C14.5506 6.02272 14.9293 6.33864 15.4425 6.77812L16.7434 5.259ZM15.5435 4.25657L16.7901 2.69256L16.3677 2.3559L15.1211 3.91991L13.8746 5.48392L14.297 5.82057L15.5435 4.25657ZM15.1211 3.91991L16.3677 2.3559L15.9453 2.01925L14.6988 3.58325L13.4522 5.14726L13.8746 5.48392L15.1211 3.91991ZM14.6988 3.58325L15.9453 2.01925C15.8777 1.96538 15.875 1.95387 15.9037 1.9886C15.9287 2.01892 16.033 2.15092 16.1041 2.38396L14.1913 2.96792L12.2784 3.55187C12.5172 4.33408 13.0865 4.85576 13.4522 5.14726L14.6988 3.58325ZM14.1913 2.96792L16.1041 2.38396L16.0191 2.10528L14.1062 2.68923L12.1934 3.27319L12.2784 3.55187L14.1913 2.96792ZM14.1062 2.68923L16.0191 2.10528L15.934 1.8266L14.0211 2.41055L12.1083 2.9945L12.1934 3.27319L14.1062 2.68923ZM14.0211 2.41055L15.934 1.8266C15.9145 1.7627 15.9299 1.79985 15.944 1.89251C15.9498 1.93082 15.9719 2.07843 15.9571 2.27828C15.9495 2.38124 15.928 2.56045 15.8536 2.77271C15.7795 2.98406 15.6222 3.31402 15.2907 3.60406L13.9737 2.09891L12.6567 0.593752C12.0249 1.14661 11.9772 1.8591 11.968 1.98321C11.9509 2.21452 11.9758 2.40384 11.9895 2.49408C12.0194 2.69062 12.0711 2.87261 12.1083 2.9945L14.0211 2.41055ZM13.9737 2.09891L15.2907 3.60406L15.3284 3.5711L14.0114 2.06595L12.6944 0.560793L12.6567 0.593752L13.9737 2.09891ZM14.0114 2.06595L13.8794 4.06159L14.0206 4.07092L14.1526 2.07529L14.2846 0.0796459L14.1434 0.0703072L14.0114 2.06595ZM14.1526 2.07529L15.6577 0.758276L15.5919 0.683018L14.0867 2.00003L12.5816 3.31704L12.6474 3.39229L14.1526 2.07529ZM8.58673 22.5L8.13701 20.5512L8.03957 20.5737L8.48929 22.5225L8.93901 24.4713L9.03645 24.4488L8.58673 22.5ZM8.48929 22.5225L8.05793 20.5696L6.80393 20.8466L7.23529 22.7995L7.66665 24.7524L8.92064 24.4754L8.48929 22.5225ZM7.23529 22.7995L6.80393 20.8466C6.00002 21.0241 5.49146 21.096 5.2161 21.108L5.30352 23.1061L5.39094 25.1042C6.01927 25.0767 6.79856 24.9442 7.66665 24.7524L7.23529 22.7995ZM5.30352 23.1061L5.2161 21.108L4.53832 21.1377L4.62575 23.1358L4.71317 25.1339L5.39094 25.1042L5.30352 23.1061ZM4.62575 23.1358L4.53832 21.1377L3.86055 21.1673L3.94797 23.1654L4.0354 25.1635L4.71317 25.1339L4.62575 23.1358ZM3.94797 23.1654L3.86055 21.1673C3.38058 21.1883 2.86896 21.2325 2.43644 21.3468L2.94758 23.2804L3.45871 25.214C3.43939 25.2191 3.47319 25.209 3.58727 25.1959C3.69436 25.1836 3.84156 25.172 4.0354 25.1635L3.94797 23.1654ZM2.94758 23.2804L2.43644 21.3468L2.11381 21.4321L2.62495 23.3657L3.13608 25.2992L3.45871 25.214L2.94758 23.2804ZM2.62495 23.3657L2.11381 21.4321L1.79119 21.5174L2.30232 23.4509L2.81346 25.3845L3.13608 25.2992L2.62495 23.3657ZM2.30232 23.4509L1.79119 21.5174C1.62002 21.5626 1.27679 21.6626 0.942255 21.8902C0.611444 22.1152 -0.225942 22.8729 0.057671 24.1019L2.00645 23.6522L3.95524 23.2025C4.06765 23.6896 3.98143 24.1775 3.76027 24.5727C3.56694 24.9182 3.31839 25.1116 3.19183 25.1976C3.05592 25.2901 2.94413 25.3373 2.89771 25.3556C2.8699 25.3666 2.84863 25.3738 2.83576 25.3779C2.82268 25.3821 2.8149 25.3841 2.81346 25.3845L2.30232 23.4509ZM2.00645 23.6522L0.057671 24.1019L0.0844286 24.2178L2.03321 23.7681L3.98199 23.3184L3.95524 23.2025L2.00645 23.6522ZM2.03321 23.7681L0.410792 24.9376L0.561747 25.1471L2.18417 23.9775L3.80658 22.808L3.65563 22.5986L2.03321 23.7681ZM2.18417 23.9775L1.73445 22.0288L1.63701 22.0512L2.08673 24L2.53645 25.9488L2.63388 25.9263L2.18417 23.9775ZM9.58673 14L10.5349 12.2391L10.4469 12.1917L9.49868 13.9526L8.55048 15.7136L8.63853 15.761L9.58673 14ZM9.49868 13.9526L10.2238 12.0887L8.88428 11.5676L8.15915 13.4315L7.43402 15.2954L8.77355 15.8165L9.49868 13.9526ZM8.15915 13.4315L8.88428 11.5676C8.01683 11.2301 7.48187 10.9782 7.20266 10.8129L6.18383 12.534L5.16499 14.255C5.73351 14.5916 6.51543 14.938 7.43402 15.2954L8.15915 13.4315ZM6.18383 12.534L7.20266 10.8129L6.56687 10.4366L5.54803 12.1576L4.5292 13.8786L5.16499 14.255L6.18383 12.534ZM5.54803 12.1576L6.56687 10.4366L5.93107 10.0602L4.91224 11.7812L3.8934 13.5023L4.5292 13.8786L5.54803 12.1576ZM4.91224 11.7812L5.93107 10.0602C5.76527 9.96202 5.65169 9.8849 5.57889 9.82975C5.50085 9.77061 5.50115 9.76038 5.5377 9.80303L4.01899 11.1044L2.50029 12.4057C2.88904 12.8594 3.41485 13.219 3.8934 13.5023L4.91224 11.7812ZM4.01899 11.1044L5.5377 9.80303L5.28025 9.50258L3.76154 10.8039L2.24284 12.1053L2.50029 12.4057L4.01899 11.1044ZM3.76154 10.8039L5.28025 9.50258L5.0228 9.20213L3.50409 10.5035L1.98539 11.8048L2.24284 12.1053L3.76154 10.8039ZM3.50409 10.5035L5.0228 9.20213C4.92335 9.08608 4.74076 8.87899 4.5117 8.70479C4.43162 8.64388 4.11567 8.40188 3.6436 8.30468C3.37238 8.24883 2.93981 8.21881 2.46435 8.41285C1.9609 8.61831 1.63155 8.98399 1.44572 9.32909L3.20666 10.2773L4.96761 11.2255C4.78844 11.5582 4.46802 11.9154 3.97577 12.1163C3.51149 12.3058 3.09238 12.2751 2.83689 12.2225C2.39627 12.1318 2.12083 11.9118 2.09032 11.8886C1.96041 11.7898 1.9132 11.7206 1.98539 11.8048L3.50409 10.5035ZM3.20666 10.2773L1.44572 9.32909L1.40574 9.40333L3.16668 10.3515L4.92763 11.2997L4.96761 11.2255L3.20666 10.2773ZM3.16668 10.3515L1.16839 10.434L1.17648 10.6299L3.17477 10.5474L5.17307 10.4649L5.16498 10.269L3.16668 10.3515ZM3.17477 10.5474L4.12297 8.7865L4.03493 8.73909L3.08673 10.5L2.13853 12.261L2.22657 12.3084L3.17477 10.5474ZM35.0867 27L33.9773 28.6641L34.0605 28.7196L35.1699 27.0555L36.2793 25.3914L36.1961 25.3359L35.0867 27ZM35.1699 27.0555L33.6083 28.305L34.2846 29.1503L35.8463 27.9008L37.4079 26.6514L36.7316 25.806L35.1699 27.0555ZM35.8463 27.9008L34.2846 29.1503C34.8126 29.8102 35.6189 30.6134 36.7396 30.8197L37.1016 28.8527L37.4636 26.8858C37.664 26.9227 37.7473 26.9986 37.7067 26.9679C37.6902 26.9553 37.6549 26.9262 37.6019 26.8725C37.5491 26.819 37.4843 26.7468 37.4079 26.6514L35.8463 27.9008ZM37.1016 28.8527L36.7396 30.8197L37.3185 30.9263L37.6805 28.9593L38.0426 26.9923L37.4636 26.8858L37.1016 28.8527ZM37.6805 28.9593L37.3185 30.9263L37.8975 31.0328L38.2595 29.0659L38.6215 27.0989L38.0426 26.9923L37.6805 28.9593ZM38.2595 29.0659L37.8975 31.0328C38.0491 31.0607 38.1472 31.0844 38.2033 31.1005C38.2302 31.1082 38.238 31.1115 38.2309 31.1088C38.2254 31.1067 38.1907 31.0935 38.1375 31.0651L39.0783 29.3002L40.0191 27.5353C39.567 27.2943 39.0304 27.1741 38.6215 27.0989L38.2595 29.0659ZM39.0783 29.3002L38.1375 31.0651L38.3772 31.193L39.318 29.4281L40.2588 27.6631L40.0191 27.5353L39.0783 29.3002ZM39.318 29.4281L38.3772 31.193L38.617 31.3208L39.5578 29.5559L40.4986 27.791L40.2588 27.6631L39.318 29.4281ZM39.5578 29.5559L38.617 31.3208C38.6097 31.3169 38.5728 31.2971 38.5193 31.2599C38.4728 31.2276 38.3627 31.1475 38.2409 31.0128C38.1303 30.8905 37.9012 30.6042 37.8012 30.1566C37.6832 29.6291 37.7923 29.0862 38.0808 28.6534L39.7449 29.7628L41.409 30.8722C41.7151 30.413 41.8295 29.8417 41.7048 29.2838C41.5979 28.8058 41.3498 28.487 41.208 28.3302C40.9363 28.0296 40.627 27.8594 40.4986 27.791L39.5578 29.5559ZM39.7449 29.7628L38.0808 28.6534L38.0281 28.7325L39.6922 29.8419L41.3563 30.9513L41.409 30.8722L39.7449 29.7628ZM39.6922 29.8419L38.7359 28.0853L38.5473 28.188L39.5035 29.9446L40.4598 31.7011L40.6484 31.5984L39.6922 29.8419ZM39.5035 29.9446L38.3941 31.6087L38.4773 31.6641L39.5867 30L40.6961 28.3359L40.6129 28.2805L39.5035 29.9446ZM25.0867 30H23.0867V30.1H25.0867H27.0867V30H25.0867ZM25.0867 30.1L23.0995 30.3256L23.2414 31.5756L25.2286 31.35L27.2159 31.1245L27.074 29.8745L25.0867 30.1ZM25.2286 31.35L23.2414 31.5756C23.3313 32.3678 23.3293 32.8119 23.3054 33.0055L25.2904 33.25L27.2754 33.4946C27.3583 32.8215 27.3151 31.9989 27.2159 31.1245L25.2286 31.35ZM25.2904 33.25L23.3054 33.0055L23.2253 33.6555L25.2103 33.9L27.1953 34.1446L27.2754 33.4946L25.2904 33.25ZM25.2103 33.9L23.2253 33.6555L23.1453 34.3055L25.1303 34.55L27.1153 34.7946L27.1953 34.1446L25.2103 33.9ZM25.1303 34.55L23.1453 34.3055C23.0861 34.7857 23.0454 35.372 23.1527 35.9136L25.1145 35.525L27.0764 35.1365C27.081 35.1596 27.0835 35.1769 27.0849 35.1874C27.0855 35.1928 27.086 35.1968 27.0862 35.1994C27.0865 35.202 27.0866 35.2034 27.0866 35.2035C27.0866 35.2035 27.0865 35.2024 27.0864 35.2001C27.0863 35.1978 27.0862 35.1944 27.0861 35.1899C27.0859 35.1809 27.0858 35.168 27.086 35.151C27.0872 35.0788 27.0945 34.963 27.1153 34.7946L25.1303 34.55ZM25.1145 35.525L23.1527 35.9136L23.217 36.2386L25.1789 35.85L27.1408 35.4615L27.0764 35.1365L25.1145 35.525ZM25.1789 35.85L23.217 36.2386L23.2814 36.5636L25.2433 36.175L27.2052 35.7865L27.1408 35.4615L25.1789 35.85ZM25.2433 36.175L23.2814 36.5636C23.2986 36.6504 23.2819 36.596 23.2785 36.475C23.2777 36.4441 23.2664 36.195 23.3632 35.8844C23.4137 35.7225 23.5383 35.3953 23.8441 35.0868C24.2013 34.7266 24.7026 34.5 25.2524 34.5V36.5V38.5C25.8114 38.5 26.3207 38.2701 26.6846 37.9031C26.9972 37.5879 27.1272 37.2505 27.1819 37.075C27.2872 36.7374 27.2793 36.4476 27.277 36.3626C27.2705 36.1332 27.2309 35.9163 27.2052 35.7865L25.2433 36.175ZM25.2524 36.5V34.5H25.1972V36.5V38.5H25.2524V36.5ZM25.1972 36.5L26.5395 35.0174L26.429 34.9174L25.0867 36.4L23.7445 37.8827L23.8549 37.9827L25.1972 36.5ZM25.0867 36.4H23.0867V36.5H25.0867H27.0867V36.4H25.0867ZM15.5867 30L14.0919 28.6713L14.0255 28.746L15.5203 30.0748L17.0151 31.4035L17.0815 31.3288L15.5867 30ZM15.5203 30.0748L14.4273 28.3999L13.4255 29.0536L14.5185 30.7285L15.6115 32.4034L16.6133 31.7497L15.5203 30.0748ZM14.5185 30.7285L13.4255 29.0536C12.6475 29.5613 11.7526 30.3169 11.4106 31.4239L13.3215 32.0143L15.2324 32.6046C15.1843 32.7601 15.1237 32.8025 15.1822 32.7396C15.2396 32.678 15.3681 32.5623 15.6115 32.4034L14.5185 30.7285ZM13.3215 32.0143L11.4106 31.4239L11.2154 32.0559L13.1262 32.6463L15.0371 33.2366L15.2324 32.6046L13.3215 32.0143ZM13.1262 32.6463L11.2154 32.0559L11.0201 32.6879L12.931 33.2783L14.8419 33.8686L15.0371 33.2366L13.1262 32.6463ZM12.931 33.2783L11.0201 32.6879C10.9962 32.7652 10.9747 32.8285 10.9561 32.8793C10.9373 32.9306 10.923 32.9644 10.9141 32.9839C10.9049 33.0043 10.9051 33.0013 10.9167 32.9816C10.9274 32.9636 10.9593 32.9118 11.0174 32.8435L12.5406 34.1396L14.0638 35.4357C14.4797 34.947 14.7048 34.3122 14.8419 33.8686L12.931 33.2783ZM12.5406 34.1396L11.0174 32.8435L10.8223 33.0728L12.3455 34.3689L13.8686 35.665L14.0638 35.4357L12.5406 34.1396ZM12.3455 34.3689L10.8223 33.0728L10.6271 33.3021L12.1503 34.5982L13.6735 35.8943L13.8686 35.665L12.3455 34.3689ZM12.1503 34.5982L10.6271 33.3021C10.6358 33.292 10.6688 33.2538 10.7258 33.2028C10.7774 33.1566 10.8922 33.0605 11.0677 32.9704C11.2402 32.8819 11.5608 32.7537 11.9847 32.7684C12.4531 32.7846 12.8758 32.97 13.1918 33.2508L11.8631 34.7457L10.5343 36.2405C10.881 36.5486 11.3388 36.7484 11.8464 36.766C12.3096 36.782 12.6738 36.6422 12.8942 36.529C13.2978 36.3219 13.5599 36.0278 13.6735 35.8943L12.1503 34.5982ZM11.8631 34.7457L13.1918 33.2508L13.0997 33.169L11.771 34.6638L10.4422 36.1586L10.5343 36.2405L11.8631 34.7457ZM11.771 34.6638L13.5642 33.7781L13.4464 33.5396L11.6532 34.4253L9.85995 35.3109L9.97774 35.5494L11.771 34.6638ZM11.6532 34.4253L10.1583 33.0966L10.0919 33.1713L11.5867 34.5L13.0815 35.8288L13.148 35.754L11.6532 34.4253ZM36.0867 16.5L36.3696 18.4799L36.4686 18.4658L36.1857 16.4859L35.9029 14.506L35.8039 14.5201L36.0867 16.5ZM36.1857 16.4859L36.5082 18.4597L37.8548 18.2397L37.5324 16.2659L37.2099 14.292L35.8632 14.5121L36.1857 16.4859ZM37.5324 16.2659L37.8548 18.2397C38.754 18.0928 39.4417 17.9785 39.9147 17.8973L39.5762 15.9262L39.2377 13.955C38.7811 14.0334 38.1062 14.1456 37.2099 14.292L37.5324 16.2659ZM39.5762 15.9262L39.9147 17.8973L40.6118 17.7776L40.2734 15.8064L39.9349 13.8353L39.2377 13.955L39.5762 15.9262ZM40.2734 15.8064L40.6118 17.7776L41.309 17.6579L40.9705 15.6867L40.6321 13.7156L39.9349 13.8353L40.2734 15.8064ZM40.9705 15.6867L41.309 17.6579C41.8303 17.5684 42.4198 17.4299 42.9213 17.1697L42.0002 15.3945L41.0791 13.6192C41.1268 13.5945 41.1226 13.6036 41.0305 13.6298C40.9448 13.6541 40.8153 13.6841 40.6321 13.7156L40.9705 15.6867ZM42.0002 15.3945L42.9213 17.1697L43.2538 16.9972L42.3327 15.222L41.4116 13.4467L41.0791 13.6192L42.0002 15.3945ZM42.3327 15.222L43.2538 16.9972L43.5863 16.8247L42.6652 15.0494L41.7441 13.2742L41.4116 13.4467L42.3327 15.222ZM42.6652 15.0494L43.5863 16.8247C43.5852 16.8253 43.5764 16.8298 43.5606 16.8369C43.5453 16.8438 43.5181 16.8554 43.4808 16.8686C43.4244 16.8886 43.2549 16.9454 43.0144 16.9568C42.7782 16.9679 42.2854 16.9416 41.8014 16.5843C41.279 16.1985 41.0907 15.67 41.0401 15.3155L43.02 15.0327L44.9999 14.7499C44.9418 14.3435 44.7332 13.7767 44.1775 13.3664C43.6602 12.9845 43.1212 12.9473 42.8259 12.9612C42.3036 12.9859 41.8887 13.1992 41.7441 13.2742L42.6652 15.0494ZM43.02 15.0327L41.0401 15.3155L41.0623 15.4713L43.0422 15.1885L45.0221 14.9056L44.9999 14.7499L43.02 15.0327ZM43.0422 15.1885L41.0696 14.8585L41.0151 15.1842L42.9877 15.5142L44.9603 15.8442L45.0148 15.5185L43.0422 15.1885ZM42.9877 15.5142L43.2706 17.4941L43.3696 17.4799L43.0867 15.5L42.8039 13.5201L42.7049 13.5343L42.9877 15.5142ZM16.0869 15.1951L14.3974 14.1248L12.9103 16.4723L14.5998 17.5426L16.2893 18.6129L17.7764 16.2654L16.0869 15.1951ZM14.5998 17.5426L12.9103 16.4723C12.2513 17.5126 11.8399 18.7104 12 19.9921C12.1618 21.2876 12.8658 22.3388 13.7906 23.1543L15.1133 21.6541L16.436 20.1539C16.0271 19.7934 15.9786 19.5714 15.9692 19.4964C15.9581 19.4076 15.9569 19.1376 16.2893 18.6129L14.5998 17.5426ZM15.1133 21.6541L13.7906 23.1543L15.7913 24.9182L17.114 23.4181L18.4367 21.9179L16.436 20.1539L15.1133 21.6541ZM17.114 23.4181L15.7913 24.9182L17.7919 26.6822L19.1146 25.1821L20.4373 23.6819L18.4367 21.9179L17.114 23.4181ZM19.1146 25.1821L17.7919 26.6822C18.6992 27.4822 19.7554 28.0324 20.95 28.2134C22.1399 28.3936 23.3165 28.1848 24.4341 27.7107L23.653 25.8695L22.872 24.0283C22.2977 24.2719 21.872 24.3074 21.5491 24.2585C21.2308 24.2103 20.8638 24.0579 20.4373 23.6819L19.1146 25.1821ZM23.653 25.8695L24.4341 27.7107L26.9718 26.6341L26.1908 24.7929L25.4097 22.9518L22.872 24.0283L23.653 25.8695ZM26.1908 24.7929L26.9718 26.6341L29.5096 25.5576L28.7285 23.7164L27.9475 21.8752L25.4097 22.9518L26.1908 24.7929ZM28.7285 23.7164L29.5096 25.5576C30.6131 25.0894 31.5954 24.3913 32.2495 23.3703C32.9164 22.3295 33.1176 21.1476 32.9897 19.956L31.0011 20.1695L29.0125 20.3829C29.0614 20.8383 28.9722 21.071 28.8815 21.2124C28.7782 21.3737 28.5358 21.6256 27.9475 21.8752L28.7285 23.7164ZM31.0011 20.1695L32.9897 19.956L32.7245 17.4857L30.7359 17.6991L28.7474 17.9126L29.0125 20.3829L31.0011 20.1695ZM30.7359 17.6991L32.7245 17.4857L32.4593 15.0153L30.4708 15.2288L28.4822 15.4422L28.7474 17.9126L30.7359 17.6991ZM30.4708 15.2288L32.4593 15.0153C32.3341 13.8489 31.9166 12.7569 31.1117 11.87C30.3148 10.992 29.2693 10.4594 28.1305 10.1719L27.641 12.1111L27.1515 14.0503C27.7224 14.1944 28.0034 14.3971 28.1498 14.5584C28.2881 14.7107 28.4306 14.9617 28.4822 15.4422L30.4708 15.2288ZM27.641 12.1111L28.1305 10.1719L25.5659 9.5246L25.0764 11.4638L24.587 13.403L27.1515 14.0503L27.641 12.1111ZM25.0764 11.4638L25.5659 9.5246L23.0013 8.87728L22.5118 10.8165L22.0224 12.7556L24.587 13.403L25.0764 11.4638ZM22.5118 10.8165L23.0013 8.87728C22.137 8.65913 21.4413 8.49506 20.9302 8.39149C20.6789 8.34056 20.4377 8.29712 20.2283 8.27123C20.1259 8.25858 19.9931 8.24522 19.8509 8.24286C19.7827 8.24173 19.4236 8.22979 19.0261 8.37822L19.7257 10.2519L20.4254 12.1255C20.2102 12.2058 20.0341 12.2271 19.9632 12.2343C19.8774 12.2429 19.8135 12.2428 19.7845 12.2423C19.7281 12.2414 19.7054 12.237 19.7376 12.241C19.7972 12.2484 19.9228 12.2686 20.1358 12.3118C20.5534 12.3964 21.1769 12.5422 22.0224 12.7556L22.5118 10.8165ZM19.7257 10.2519L19.0261 8.37822L18.8045 8.46095L19.5042 10.3346L20.2038 12.2082L20.4254 12.1255L19.7257 10.2519ZM19.5042 10.3346L18.8045 8.46095L18.583 8.54367L19.2827 10.4173L19.9823 12.2909L20.2038 12.2082L19.5042 10.3346ZM19.2827 10.4173L18.583 8.54367C18.1452 8.70717 17.8649 8.98973 17.8199 9.03303C17.7126 9.13644 17.621 9.24189 17.553 9.32383C17.4135 9.49213 17.2623 9.69734 17.1086 9.91593C16.7959 10.3607 16.3854 10.9866 15.8845 11.7773L17.574 12.8476L19.2635 13.9178C19.7541 13.1435 20.124 12.5818 20.3808 12.2165C20.5119 12.0301 20.5927 11.9246 20.6325 11.8766C20.6543 11.8504 20.6391 11.8713 20.5951 11.9137C20.5727 11.9353 20.5215 11.9832 20.4459 12.0396C20.3844 12.0855 20.2228 12.2011 19.9823 12.2909L19.2827 10.4173ZM17.574 12.8476L15.8845 11.7773L14.3974 14.1248L16.0869 15.1951L17.7764 16.2654L19.2635 13.9178L17.574 12.8476Z" fill="var(--stroke-0, black)"/>
</svg>
