<svg preserveAspectRatio="none" width="100%" height="100%" overflow="visible" style="display: block;" viewBox="0 0 97 184" fill="none" xmlns="http://www.w3.org/2000/svg">
<path id="Vector 1" d="M44.5274 2.39482C44.5274 1.29025 43.632 0.394816 42.5274 0.394816C41.4229 0.394816 40.5274 1.29025 40.5274 2.39482H42.5274H44.5274ZM42.5274 2.49482H40.5274V2.50241L40.5275 2.51001L42.5274 2.49482ZM42.5726 8.44482L40.5727 8.46001L42.5726 8.44482ZM42.642 17.3948L44.642 17.3787L42.642 17.3948ZM42.6904 23.3948L40.6904 23.4109L42.6904 23.3948ZM42.6326 29.3948L40.6333 29.3402L42.6326 29.3948ZM42.4686 35.3948L40.4693 35.3402L42.4686 35.3948ZM42.3521 41.3948L40.3522 41.3718L42.3521 41.3948ZM42.3176 44.3948L40.3177 44.3718L42.3176 44.3948ZM42.283 47.3948L44.2829 47.4178L42.283 47.3948ZM42.1884 53.3948L40.1888 53.3547L42.1884 53.3948ZM42.1282 56.3948L44.1278 56.4349L42.1282 56.3948ZM42.0681 59.3948L44.0677 59.4349L42.0681 59.3948ZM42.3113 65.3948L40.3214 65.5961L42.3113 65.3948ZM42.6147 68.3948L44.6045 68.1936L42.6147 68.3948ZM42.9181 71.3948L40.9282 71.5961L42.9181 71.3948ZM43.1884 77.3948L41.1885 77.3727L43.1884 77.3948ZM43.1552 80.3948L45.1551 80.4169L43.1552 80.3948ZM42.8441 89.3948L40.8507 89.2321L42.8441 89.3948ZM42.5992 92.3948L44.5926 92.5575L42.5992 92.3948ZM42.3543 95.3948L40.3609 95.2321L42.3543 95.3948ZM42.3882 101.395L40.3968 101.58L42.3882 101.395ZM42.9457 107.395L40.9543 107.58L42.9457 107.395ZM43.0327 113.395L41.0367 113.267L43.0327 113.395ZM42.8409 116.395L40.8449 116.267L42.8409 116.395ZM42.6491 119.395L44.645 119.522L42.6491 119.395ZM42.4409 125.395L40.4409 125.384L42.4409 125.395ZM42.2882 137.395L40.2894 137.326L42.2882 137.395ZM42.0813 143.395L40.0825 143.326L42.0813 143.395ZM41.981 149.395L43.981 149.393L41.981 149.395ZM42.1966 161.395L40.2013 161.532L42.1966 161.395ZM42.4029 164.395L40.4076 164.532L42.4029 164.395ZM42.6092 167.395L44.6045 167.258L42.6092 167.395ZM42.7863 173.111L40.7864 173.09L42.7863 173.111ZM42.7278 178.545L44.7277 178.566L42.7278 178.545ZM42.613 181.261L41.0937 182.562L41.6924 183.261H42.613V181.261ZM42.5274 181.161L44.0468 179.861L40.5274 175.749V181.161H42.5274ZM40.5274 181.261C40.5274 182.366 41.4229 183.261 42.5274 183.261C43.632 183.261 44.5274 182.366 44.5274 181.261H42.5274H40.5274ZM60.238 2.39482C60.238 1.29025 59.3425 0.394816 58.238 0.394816C57.1334 0.394816 56.238 1.29025 56.238 2.39482H58.238H60.238ZM58.238 2.49482L60.2351 2.60262L60.238 2.54876V2.49482H58.238ZM57.9168 8.44482L55.9197 8.33701L57.9168 8.44482ZM57.5991 17.3948L59.5991 17.3925L57.5991 17.3948ZM57.6061 23.3948L55.6061 23.3971L57.6061 23.3948ZM57.8111 29.3948L55.8156 29.5289L57.8111 29.3948ZM58.2143 35.3948L60.2098 35.2607L58.2143 35.3948ZM58.314 44.3948L60.3137 44.4288L58.314 44.3948ZM58.2631 47.3948L56.2634 47.3609L58.2631 47.3948ZM58.3234 53.3948L60.322 53.3208L58.3234 53.3948ZM58.5457 59.3948L56.5471 59.4689L58.5457 59.3948ZM58.5148 65.3948L60.5125 65.4894L58.5148 65.3948ZM58.2306 71.3948L60.2283 71.4894L58.2306 71.3948ZM58.2607 77.3948L56.264 77.5094L58.2607 77.3948ZM58.6051 83.3948L60.6018 83.2802L58.6051 83.3948ZM58.7092 89.3948L56.7097 89.3494L58.7092 89.3948ZM58.641 92.3948L60.6404 92.4403L58.641 92.3948ZM58.5727 95.3948L56.5733 95.3494L58.5727 95.3948ZM58.4011 101.395L56.4023 101.326L58.4011 101.395ZM58.1943 107.395L60.1931 107.464L58.1943 107.395ZM58.1168 113.395L56.1169 113.412L58.1168 113.395ZM58.1687 119.395L60.1687 119.377L58.1687 119.395ZM58.103 125.395L56.104 125.334L58.103 125.395ZM57.9197 131.395L59.9188 131.456L57.9197 131.395ZM57.6065 143.395L55.6071 143.346L57.6065 143.395ZM57.5253 149.395L59.5253 149.4L57.5253 149.395ZM57.518 152.395L55.518 152.39L57.518 152.395ZM57.5107 155.395L59.5107 155.4L57.5107 155.395ZM57.7885 161.395L59.7796 161.206L57.7885 161.395ZM58.0736 164.395L56.0826 164.584L58.0736 164.395ZM58.5065 173.111L60.5039 173.212L58.5065 173.111ZM58.3692 175.828L56.3717 175.727L58.3692 175.828ZM58.2319 178.545L60.2294 178.646L58.2319 178.545ZM58.1663 181.261V183.261H59.1935L59.7919 182.426L58.1663 181.261ZM58.238 181.161H60.238V174.938L56.6124 179.996L58.238 181.161ZM56.238 181.261C56.238 182.366 57.1334 183.261 58.238 183.261C59.3425 183.261 60.238 182.366 60.238 181.261H58.238H56.238ZM75.9485 2.39482C75.9485 1.29025 75.0531 0.394816 73.9485 0.394816C72.844 0.394816 71.9485 1.29025 71.9485 2.39482H73.9485H75.9485ZM73.9485 2.49482H71.9485V2.50329L71.9486 2.51177L73.9485 2.49482ZM73.999 8.44482L71.999 8.46177L73.999 8.44482ZM73.8331 17.3948L75.8279 17.5386L73.8331 17.3948ZM73.6168 20.3948L71.622 20.251L73.6168 20.3948ZM73.4147 29.3948L71.4206 29.548L73.4147 29.3948ZM73.8757 35.3948L75.8698 35.2416L73.8757 35.3948ZM73.8812 41.3948L75.8756 41.5444L73.8812 41.3948ZM73.4313 47.3948L71.4369 47.2453L73.4313 47.3948ZM73.1879 56.3948L75.1879 56.401L73.1879 56.3948ZM73.1787 59.3948L71.1787 59.3887L73.1787 59.3948ZM73.2764 65.3948L75.2751 65.3236L73.2764 65.3948ZM73.3833 68.3948L71.3846 68.466L73.3833 68.3948ZM73.4902 71.3948L71.4915 71.466L73.4902 71.3948ZM73.7906 77.3948L75.7865 77.2661L73.7906 77.3948ZM74.1777 83.3948L72.1819 83.5236L74.1777 83.3948ZM74.446 89.3948L76.4454 89.345L74.446 89.3948ZM74.5954 95.3948L72.596 95.4446L74.5954 95.3948ZM74.373 101.395L72.3827 101.198L74.373 101.395ZM73.7787 107.395L75.769 107.592L73.7787 107.395ZM73.5003 113.395L75.5002 113.382L73.5003 113.395ZM73.5376 119.395L71.5377 119.407L73.5376 119.395ZM73.8379 137.395L71.838 137.416L73.8379 137.395ZM73.8698 140.395L71.8699 140.416L73.8698 140.395ZM73.9017 143.395L71.9018 143.416L73.9017 143.395ZM73.96 149.395L75.9599 149.377L73.96 149.395ZM74.0128 155.395L72.0129 155.412L74.0128 155.395ZM73.9565 161.395L75.9557 161.45L73.9565 161.395ZM73.8738 164.395L75.873 164.45L73.8738 164.395ZM73.7911 167.395L71.7919 167.34L73.7911 167.395ZM73.6368 173.111L71.6375 173.059L73.6368 173.111ZM73.4937 178.545L75.493 178.597L73.4937 178.545ZM73.6853 181.261V183.261H74.0524L74.3956 183.131L73.6853 181.261ZM73.9485 181.161H75.9485V178.262L73.2383 179.292L73.9485 181.161ZM71.9485 181.261C71.9485 182.366 72.844 183.261 73.9485 183.261C75.0531 183.261 75.9485 182.366 75.9485 181.261H73.9485H71.9485ZM28.3131 21.8799C27.2085 21.8799 26.3131 22.7753 26.3131 23.8799C26.3131 24.9845 27.2085 25.8799 28.3131 25.8799V23.8799V21.8799ZM28.4131 23.8799L28.5397 21.8839L28.4765 21.8799H28.4131V23.8799ZM43.3131 24.2534L43.5652 26.2375L43.3131 24.2534ZM46.3131 23.8722L46.061 21.8881L46.3131 23.8722ZM49.3131 23.491L49.061 21.5069L49.3131 23.491ZM61.3131 23.8969L61.1388 25.8893L61.3131 23.8969ZM73.3131 23.8098L73.2355 21.8113L73.3131 23.8098ZM79.3131 23.677L79.3023 21.6771L79.3131 23.677ZM85.3131 23.6445L85.324 25.6444L85.3131 23.6445ZM89.3977 23.6911L89.5136 21.6945L89.3977 23.6911ZM90.4823 23.7541L90.6038 21.7577L90.5982 21.7574L90.4823 23.7541ZM92.5516 23.8799L92.4302 25.8762L92.4908 25.8799H92.5516V23.8799ZM92.6516 25.8799C93.7562 25.8799 94.6516 24.9845 94.6516 23.8799C94.6516 22.7753 93.7562 21.8799 92.6516 21.8799V23.8799V25.8799ZM28.3131 42.87C27.2085 42.87 26.3131 43.7654 26.3131 44.87C26.3131 45.9745 27.2085 46.87 28.3131 46.87V44.87V42.87ZM28.4131 44.87L28.5323 42.8735L28.4727 42.87H28.4131V44.87ZM34.3631 45.2251L34.2439 47.2216L34.3631 45.2251ZM67.3131 45.2944L67.3919 47.2929L67.3131 45.2944ZM70.3131 45.1761L70.3919 47.1745L70.3131 45.1761ZM73.3131 45.0577L73.2343 43.0593L73.3131 45.0577ZM79.3131 44.9093L79.3332 46.9092L79.3131 44.9093ZM82.3131 44.8792L82.2931 42.8793L82.3131 44.8792ZM85.3131 44.8492L85.2931 42.8493L85.3131 44.8492ZM89.3977 44.8318L89.4212 42.8319L89.3977 44.8318ZM90.4823 44.8445L90.5069 42.8447L90.5058 42.8447L90.4823 44.8445ZM92.5516 44.87L92.527 46.8698L92.5393 46.87H92.5516V44.87ZM92.6516 46.87C93.7562 46.87 94.6516 45.9745 94.6516 44.87C94.6516 43.7654 93.7562 42.87 92.6516 42.87V44.87V46.87ZM28.3131 62.3135C27.2085 62.3135 26.3131 63.209 26.3131 64.3135C26.3131 65.4181 27.2085 66.3135 28.3131 66.3135V64.3135V62.3135ZM28.4131 64.3135V66.3135H28.443L28.4729 66.3126L28.4131 64.3135ZM34.3631 64.1356L34.3033 62.1365L34.3631 64.1356ZM49.3131 63.7176L49.2598 61.7183L49.3131 63.7176ZM55.3131 63.9325L55.1174 65.9229L55.3131 63.9325ZM61.3131 64.5224L61.1174 66.5128L61.3131 64.5224ZM67.3131 64.6809L67.2223 62.6829L67.3131 64.6809ZM73.3131 64.408L73.404 66.406L73.3131 64.408ZM79.3131 64.0901L79.1923 62.0937L79.3131 64.0901ZM82.3131 63.9085L82.1923 61.9122L82.3131 63.9085ZM85.3131 63.727L85.1923 61.7307L85.3131 63.727ZM89.3977 63.7375L89.7464 61.7681L89.3977 63.7375ZM90.4823 63.9295L90.8473 61.9631L90.8391 61.9616L90.831 61.9601L90.4823 63.9295ZM92.5516 64.3135L92.1867 66.28L92.3676 66.3135H92.5516V64.3135ZM92.6516 66.3135C93.7562 66.3135 94.6516 65.4181 94.6516 64.3135C94.6516 63.209 93.7562 62.3135 92.6516 62.3135V64.3135V66.3135ZM28.3131 84.3928C27.2085 84.3928 26.3131 85.2882 26.3131 86.3928C26.3131 87.4973 27.2085 88.3928 28.3131 88.3928V86.3928V84.3928ZM28.4131 86.3928L28.4131 88.3928L28.4241 88.3927L28.4131 86.3928ZM34.3631 86.3601L34.3521 84.3601L34.3631 86.3601ZM43.3131 86.3739L43.3442 84.3742L43.3131 86.3739ZM46.3131 86.4205L46.3442 84.4207L46.3131 86.4205ZM49.3131 86.4671L49.2821 88.4668L49.3131 86.4671ZM55.3131 86.6412L55.3981 84.643L55.3131 86.6412ZM58.3131 86.7688L58.2281 88.767L58.3131 86.7688ZM67.3131 86.817L67.4507 88.8122L67.3131 86.817ZM73.3131 86.4032L73.1755 84.408L73.3131 86.4032ZM89.3977 86.4221L89.3797 84.4222L89.3977 86.4221ZM90.4823 86.4123L90.5004 88.4123L90.5013 88.4123L90.4823 86.4123ZM92.5516 86.3928V84.3928H92.5421L92.5327 84.3929L92.5516 86.3928ZM92.6516 88.3928C93.7562 88.3928 94.6516 87.4973 94.6516 86.3928C94.6516 85.2882 93.7562 84.3928 92.6516 84.3928V86.3928V88.3928ZM28.3131 105.666C27.2085 105.666 26.3131 106.562 26.3131 107.666C26.3131 108.771 27.2085 109.666 28.3131 109.666V107.666V105.666ZM28.4131 107.666V109.666H28.4547L28.4962 109.665L28.4131 107.666ZM34.3631 107.419L34.2801 105.421L34.3631 107.419ZM43.3131 107.344L43.1987 109.34L43.3131 107.344ZM49.3131 107.688L49.4276 105.691L49.3131 107.688ZM55.3131 107.974L55.3896 105.976L55.3131 107.974ZM61.3131 108.204L61.2366 110.203L61.3131 108.204ZM67.3131 108.045L67.1315 106.054L67.3131 108.045ZM73.3131 107.498L73.1315 105.507L73.3131 107.498ZM79.3131 107.426L79.447 105.431L79.3131 107.426ZM82.3131 107.628L82.1792 109.623L82.3131 107.628ZM85.3131 107.829L85.447 105.833L85.3131 107.829ZM89.3977 107.939L89.2306 105.946L89.3977 107.939ZM90.4823 107.848L90.6495 109.841L90.6575 109.841L90.4823 107.848ZM92.5516 107.666V105.666H92.4638L92.3764 105.674L92.5516 107.666ZM92.6516 109.666C93.7562 109.666 94.6516 108.771 94.6516 107.666C94.6516 106.562 93.7562 105.666 92.6516 105.666V107.666V109.666ZM28.3131 127.423C27.2085 127.423 26.3131 128.318 26.3131 129.423C26.3131 130.527 27.2085 131.423 28.3131 131.423V129.423V127.423ZM28.4131 129.423L28.4514 127.423L28.4322 127.423H28.4131V129.423ZM34.3631 129.537L34.4014 127.537L34.3631 129.537ZM55.3131 129.144L55.4219 131.141L55.3131 129.144ZM61.3131 128.817L61.2043 126.82L61.3131 128.817ZM67.3131 129L67.5425 127.013L67.3131 129ZM73.3131 129.693L73.0837 131.679L73.3131 129.693ZM79.3131 129.857L79.1918 127.86L79.3131 129.857ZM82.3131 129.675L82.1918 127.678L82.3131 129.675ZM85.3131 129.492L85.4344 131.489L85.3131 129.492ZM89.3977 129.338L89.3457 131.338L89.3977 129.338ZM90.4823 129.366L90.5369 127.367L90.5344 127.367L90.4823 129.366ZM92.5516 129.423L92.4971 131.422L92.5243 131.423H92.5516V129.423ZM92.6516 131.423C93.7562 131.423 94.6516 130.527 94.6516 129.423C94.6516 128.318 93.7562 127.423 92.6516 127.423V129.423V131.423ZM28.3131 147.395C27.2085 147.395 26.3131 148.29 26.3131 149.395C26.3131 150.499 27.2085 151.395 28.3131 151.395V149.395V147.395ZM28.4131 149.395L28.5394 147.399L28.4763 147.395H28.4131V149.395ZM34.3631 149.771L34.4894 147.775L34.3631 149.771ZM43.3131 149.937L43.4531 151.932L43.3131 149.937ZM46.3131 149.727L46.1731 147.732L46.3131 149.727ZM49.3131 149.516L49.4531 151.511L49.3131 149.516ZM55.3131 149.502L55.4438 147.506L55.3131 149.502ZM61.3131 149.895L61.1824 151.891L61.3131 149.895ZM67.3131 149.865L67.1625 147.871L67.3131 149.865ZM73.3131 149.412L73.4637 151.406L73.3131 149.412ZM89.3977 149.643L89.55 151.637L89.3977 149.643ZM90.4823 149.56L90.6346 151.555L90.6419 151.554L90.4823 149.56ZM92.5516 149.395V147.395H92.4717L92.392 147.401L92.5516 149.395ZM92.6516 151.395C93.7562 151.395 94.6516 150.499 94.6516 149.395C94.6516 148.29 93.7562 147.395 92.6516 147.395V149.395V151.395ZM2.81501 180.404C2.76693 181.508 3.62253 182.441 4.72606 182.489C5.82958 182.538 6.76314 181.682 6.81122 180.578L4.81312 180.491L2.81501 180.404ZM4.81747 180.391L6.81557 180.479L6.81804 180.422L6.81729 180.365L4.81747 180.391ZM5.03806 175.432L3.10832 174.907L3.10832 174.907L5.03806 175.432ZM5.58369 173.428L3.65395 172.903L5.58369 173.428ZM5.817 171.918L3.823 172.073L5.817 171.918ZM5.77749 171.409L3.7835 171.564L5.77749 171.409ZM5.73798 170.901L7.73198 170.746L5.73798 170.901ZM5.58736 170.387L5.5003 172.385L5.58736 170.387ZM5.47624 170.382L5.5633 168.384L5.13483 168.365L4.73638 168.524L5.47624 170.382ZM5.24965 170.472L3.25154 170.385L3.11696 173.474L5.9895 172.331L5.24965 170.472ZM7.25211 170.46C7.30019 169.356 6.44458 168.423 5.34106 168.374C4.23754 168.326 3.30398 169.182 3.2559 170.285L5.254 170.373L7.25211 170.46ZM3.34907 165.463L5.21363 164.74L3.34907 165.463ZM2.3966 163.008L0.532038 163.732L2.3966 163.008ZM2.77897 159.774L3.78796 161.5L2.77897 159.774ZM4.1138 158.994L3.10481 157.267L4.1138 158.994ZM5.44863 158.214L4.43964 156.487L5.44863 158.214ZM7.02304 159.941L5.03211 160.131L7.02304 159.941ZM7.5022 164.955L9.49313 164.765L7.5022 164.955ZM7.11983 168.19L8.64007 169.489L7.11983 168.19ZM4.30153 167.918L2.43697 168.641L4.30153 167.918ZM13.8353 180.072C13.8353 181.177 14.7307 182.072 15.8353 182.072C16.9399 182.072 17.8353 181.177 17.8353 180.072H15.8353H13.8353ZM15.8353 179.972H17.8353V179.928L17.8334 179.885L15.8353 179.972ZM15.8066 179.317L13.8085 179.404L15.8066 179.317ZM15.703 177.956L17.6918 177.745L15.703 177.956ZM15.6655 177.603L13.6767 177.814L15.6655 177.603ZM15.801 177.074L14.3728 175.674L15.801 177.074ZM15.9739 176.898L17.4021 178.298L15.9739 176.898ZM16.1467 176.721L14.7185 175.321L16.1467 176.721ZM16.0775 176.545V174.545H15.6808L15.3141 174.696L16.0775 176.545ZM15.8353 176.645H13.8353V179.635L16.5986 178.494L15.8353 176.645ZM17.8353 176.545C17.8353 175.44 16.9399 174.545 15.8353 174.545C14.7307 174.545 13.8353 175.44 13.8353 176.545H15.8353H17.8353ZM13.1904 169.267L11.3107 169.95L11.3107 169.95L13.1904 169.267ZM14.401 167.013L14.2376 169.006L14.401 167.013ZM18.5857 167.356L18.4222 169.349L18.5857 167.356ZM19.7796 169.541L21.6061 170.356L19.7796 169.541ZM17.983 173.567L16.1565 172.752L17.983 173.567ZM16.7723 175.822L17.9944 177.405L16.7723 175.822ZM16.46 176.063L15.2379 174.48L16.46 176.063ZM16.1476 176.304L17.3697 177.887L16.1476 176.304ZM14.9536 174.119L16.8334 173.436L16.8334 173.436L14.9536 174.119ZM29.1187 171.964L27.1187 171.952L29.1187 171.964ZM29.1162 165.964L27.1162 165.979L29.1162 165.964ZM29.0729 159.964L31.0729 159.95L29.0729 159.964ZM28.8917 150.964L30.891 150.911L28.8917 150.964ZM28.8119 147.964L26.8126 148.018L28.8119 147.964ZM28.6511 141.964L30.6504 141.91L28.6511 141.964ZM28.5701 138.964L26.5708 139.018L28.5701 138.964ZM28.4891 135.964L26.4898 136.018L28.4891 135.964ZM28.5154 129.964L26.5167 129.893L28.5154 129.964ZM29.396 99.9645L31.3952 100.02L29.396 99.9645ZM29.2974 93.9645L27.3011 94.0859L29.2974 93.9645ZM28.9326 87.9645L26.9363 88.0859L28.9326 87.9645ZM28.7231 78.9645L30.7231 78.9555L28.7231 78.9645ZM28.7095 75.9645L26.7096 75.9735L28.7095 75.9645ZM28.845 69.9645L26.8474 69.8653L28.845 69.9645ZM28.9939 66.9645L30.9915 67.0637L28.9939 66.9645ZM29.3918 57.9645L27.3929 57.8979L29.3918 57.9645ZM29.5917 51.9645L27.5928 51.8979L29.5917 51.9645ZM29.5519 39.9645L27.5521 39.9955L29.5519 39.9645ZM29.2173 33.9645L27.2264 34.1556L29.2173 33.9645ZM28.9292 30.9645L30.9201 30.7734L28.9292 30.9645ZM28.9124 15.9645L26.9162 15.8405L28.9124 15.9645ZM33.4916 2.52576L33.6218 4.52152L33.4916 2.52576ZM51.4916 2.76292L51.3091 4.75459L51.4916 2.76292ZM57.4916 2.93707L57.5586 4.93595L57.4916 2.93707ZM63.4916 2.73576L63.4245 0.736886L63.4916 2.73576ZM91.0462 11.4678L89.0535 11.6377L91.0462 11.4678ZM91.0701 17.4686L89.076 17.315L91.0701 17.4686ZM90.8386 20.4741L92.8327 20.6277L90.8386 20.4741ZM90.6071 23.4796L92.6012 23.6332L90.6071 23.4796ZM90.6745 32.4801L92.672 32.3805L90.6745 32.4801ZM90.824 35.4777L88.8264 35.5773L90.824 35.4777ZM90.9382 41.4766L92.938 41.5001L90.9382 41.4766ZM90.8676 47.4794L92.8675 47.5029L90.8676 47.4794ZM90.8904 53.4802L92.89 53.4415L90.8904 53.4802ZM90.9485 56.4797L88.9488 56.5184L90.9485 56.4797ZM91.0065 59.4791L93.0062 59.4404L91.0065 59.4791ZM91.1352 65.4777L89.1358 65.5248L91.1352 65.4777ZM91.2058 68.4769L93.2053 68.4298L91.2058 68.4769ZM91.2764 71.4761L89.277 71.5232L91.2764 71.4761ZM91.8771 83.4661L93.8737 83.3484L91.8771 83.4661ZM92.1741 89.4612L94.1725 89.3811L92.1741 89.4612ZM92.4145 95.4575L90.4161 95.5377L92.4145 95.4575ZM92.4496 101.458L94.4488 101.515L92.4496 101.458ZM92.2795 107.463L94.2787 107.52L92.2795 107.463ZM92.459 113.461L90.4668 113.637L92.459 113.461ZM92.9883 119.451L90.996 119.627L92.9883 119.451ZM93.206 125.448L91.2062 125.416L93.206 125.448ZM93.5283 140.444L91.5342 140.598L93.5283 140.444ZM93.7597 143.44L95.7538 143.286L93.7597 143.44ZM93.8946 149.438L91.8956 149.374L93.8946 149.438ZM93.8233 161.443L95.818 161.297L93.8233 161.443ZM94.2605 167.435L92.2658 167.58L94.2605 167.435ZM94.1359 173.027L92.1531 172.765L94.1359 173.027ZM93.4495 178.22L95.4323 178.482L93.4495 178.22ZM90.1058 180.891L90.1554 182.89L90.1058 180.891ZM87.1052 180.965L87.0556 178.966L87.1052 180.965ZM84.1047 181.04L84.1543 183.039L84.1047 181.04ZM78.1046 181.034L78.158 179.035L78.1046 181.034ZM72.1055 180.873L72.0521 182.873L72.1055 180.873ZM66.1043 181.037L65.9427 179.043L66.1043 181.037ZM60.101 181.523L60.2625 183.517L60.101 181.523ZM51.1039 181.052L50.8671 183.038L51.1039 181.052ZM48.1062 180.694L47.8694 182.68L48.1062 180.694ZM42.1061 180.69L42.3397 182.676L42.1061 180.69ZM36.1013 181.396L35.8677 179.41L36.1013 181.396ZM32.0895 181.553L31.7079 183.516L32.0895 181.553ZM30.0706 181.161L29.6891 183.124L30.0706 181.161ZM29.0804 177.964L31.0803 177.977L29.0804 177.964ZM42.5274 2.39482H40.5274V2.49482H42.5274H44.5274V2.39482H42.5274ZM42.5274 2.49482L40.5275 2.51001L40.5727 8.46001L42.5726 8.44482L44.5726 8.42962L44.5274 2.47962L42.5274 2.49482ZM42.5726 8.44482L40.5727 8.46001C40.6028 12.4267 40.626 15.4105 40.6421 17.4109L42.642 17.3948L44.642 17.3787C44.6258 15.3792 44.6027 12.3962 44.5726 8.42962L42.5726 8.44482ZM42.642 17.3948L40.6421 17.4109L40.6663 20.4109L42.6662 20.3948L44.6661 20.3787L44.642 17.3787L42.642 17.3948ZM42.6662 20.3948L40.6663 20.4109L40.6904 23.4109L42.6904 23.3948L44.6903 23.3787L44.6661 20.3787L42.6662 20.3948ZM42.6904 23.3948L40.6904 23.4109C40.7064 25.3873 40.6873 27.3637 40.6333 29.3402L42.6326 29.3948L44.6318 29.4495C44.6871 27.4259 44.7066 25.4023 44.6903 23.3787L42.6904 23.3948ZM42.6326 29.3948L40.6333 29.3402L40.5513 32.3402L42.5506 32.3948L44.5498 32.4495L44.6318 29.4495L42.6326 29.3948ZM42.5506 32.3948L40.5513 32.3402L40.4693 35.3402L42.4686 35.3948L44.4678 35.4495L44.5498 32.4495L42.5506 32.3948ZM42.4686 35.3948L40.4693 35.3402C40.4144 37.3507 40.3753 39.3613 40.3522 41.3718L42.3521 41.3948L44.3519 41.4178C44.3748 39.4284 44.4135 37.4389 44.4678 35.4495L42.4686 35.3948ZM42.3521 41.3948L40.3522 41.3718L40.3177 44.3718L42.3176 44.3948L44.3174 44.4178L44.3519 41.4178L42.3521 41.3948ZM42.3176 44.3948L40.3177 44.3718L40.2832 47.3718L42.283 47.3948L44.2829 47.4178L44.3174 44.4178L42.3176 44.3948ZM42.283 47.3948L40.2832 47.3718C40.2602 49.3661 40.2288 51.3604 40.1888 53.3547L42.1884 53.3948L44.188 53.4349C44.2282 51.4292 44.2598 49.4235 44.2829 47.4178L42.283 47.3948ZM42.1884 53.3948L40.1888 53.3547L40.1286 56.3547L42.1282 56.3948L44.1278 56.4349L44.188 53.4349L42.1884 53.3948ZM42.1282 56.3948L40.1286 56.3547L40.0685 59.3547L42.0681 59.3948L44.0677 59.4349L44.1278 56.4349L42.1282 56.3948ZM42.0681 59.3948L40.0685 59.3547C40.0267 61.4357 40.1111 63.5163 40.3214 65.5961L42.3113 65.3948L44.3011 65.1936C44.1069 63.2734 44.0292 61.3539 44.0677 59.4349L42.0681 59.3948ZM42.3113 65.3948L40.3214 65.5961L40.6248 68.5961L42.6147 68.3948L44.6045 68.1936L44.3011 65.1936L42.3113 65.3948ZM42.6147 68.3948L40.6248 68.5961L40.9282 71.5961L42.9181 71.3948L44.9079 71.1936L44.6045 68.1936L42.6147 68.3948ZM42.9181 71.3948L40.9282 71.5961C41.123 73.5222 41.2097 75.4477 41.1885 77.3727L43.1884 77.3948L45.1882 77.4169C45.2112 75.342 45.1177 73.2674 44.9079 71.1936L42.9181 71.3948ZM43.1884 77.3948L41.1885 77.3727L41.1553 80.3727L43.1552 80.3948L45.1551 80.4169L45.1882 77.4169L43.1884 77.3948ZM43.1552 80.3948L41.1553 80.3727L41.1222 83.3727L43.1221 83.3948L45.122 83.4169L45.1551 80.4169L43.1552 80.3948ZM43.1221 83.3948L41.1222 83.3727C41.1006 85.3256 41.0102 87.2787 40.8507 89.2321L42.8441 89.3948L44.8374 89.5575C45.0045 87.5109 45.0994 85.464 45.122 83.4169L43.1221 83.3948ZM42.8441 89.3948L40.8507 89.2321L40.6058 92.2321L42.5992 92.3948L44.5926 92.5575L44.8374 89.5575L42.8441 89.3948ZM42.5992 92.3948L40.6058 92.2321L40.3609 95.2321L42.3543 95.3948L44.3477 95.5575L44.5926 92.5575L42.5992 92.3948ZM42.3543 95.3948L40.3609 95.2321C40.1882 97.348 40.2002 99.4643 40.3968 101.58L42.3882 101.395L44.3796 101.21C44.2045 99.3253 44.1939 97.4417 44.3477 95.5575L42.3543 95.3948ZM42.3882 101.395L40.3968 101.58L40.6755 104.58L42.6669 104.395L44.6584 104.21L44.3796 101.21L42.3882 101.395ZM42.6669 104.395L40.6755 104.58L40.9543 107.58L42.9457 107.395L44.9371 107.21L44.6584 104.21L42.6669 104.395ZM42.9457 107.395L40.9543 107.58C41.1305 109.476 41.1579 111.372 41.0367 113.267L43.0327 113.395L45.0286 113.522C45.1631 111.418 45.1326 109.313 44.9371 107.21L42.9457 107.395ZM43.0327 113.395L41.0367 113.267L40.8449 116.267L42.8409 116.395L44.8368 116.522L45.0286 113.522L43.0327 113.395ZM42.8409 116.395L40.8449 116.267L40.6531 119.267L42.6491 119.395L44.645 119.522L44.8368 116.522L42.8409 116.395ZM42.6491 119.395L40.6531 119.267C40.5228 121.306 40.452 123.345 40.4409 125.384L42.4409 125.395L44.4408 125.406C44.4516 123.445 44.5196 121.484 44.645 119.522L42.6491 119.395ZM42.4409 125.395L40.4409 125.384L40.4245 128.384L42.4244 128.395L44.4244 128.406L44.4408 125.406L42.4409 125.395ZM42.4244 128.395L40.4245 128.384L40.408 131.384L42.408 131.395L44.408 131.406L44.4244 128.406L42.4244 128.395ZM42.408 131.395L40.408 131.384C40.3972 133.365 40.3576 135.345 40.2894 137.326L42.2882 137.395L44.287 137.464C44.3566 135.444 44.3969 133.425 44.408 131.406L42.408 131.395ZM42.2882 137.395L40.2894 137.326L40.1859 140.326L42.1847 140.395L44.1835 140.464L44.287 137.464L42.2882 137.395ZM42.1847 140.395L40.1859 140.326L40.0825 143.326L42.0813 143.395L44.0801 143.464L44.1835 140.464L42.1847 140.395ZM42.0813 143.395L40.0825 143.326C40.0127 145.35 39.9789 147.373 39.981 149.397L41.981 149.395L43.981 149.393C43.9789 147.416 44.012 145.44 44.0801 143.464L42.0813 143.395ZM41.981 149.395L39.981 149.397L39.9841 152.397L41.9841 152.395L43.9841 152.393L43.981 149.393L41.981 149.395ZM41.9841 152.395L39.9841 152.397L39.9872 155.397L41.9872 155.395L43.9872 155.393L43.9841 152.393L41.9841 152.395ZM41.9872 155.395L39.9872 155.397C39.9893 157.442 40.0606 159.487 40.2013 161.532L42.1966 161.395L44.1918 161.258C44.0574 159.302 43.9892 157.348 43.9872 155.393L41.9872 155.395ZM42.1966 161.395L40.2013 161.532L40.4076 164.532L42.4029 164.395L44.3981 164.258L44.1918 161.258L42.1966 161.395ZM42.4029 164.395L40.4076 164.532L40.6139 167.532L42.6092 167.395L44.6045 167.258L44.3981 164.258L42.4029 164.395ZM42.6092 167.395L40.6139 167.532C40.7482 169.485 40.8052 171.337 40.7864 173.09L42.7863 173.111L44.7861 173.133C44.8062 171.264 44.7452 169.305 44.6045 167.258L42.6092 167.395ZM42.7863 173.111L40.7864 173.09L40.7572 175.807L42.7571 175.828L44.7569 175.85L44.7861 173.133L42.7863 173.111ZM42.7571 175.828L40.7572 175.807L40.728 178.523L42.7278 178.545L44.7277 178.566L44.7569 175.85L42.7571 175.828ZM42.7278 178.545L40.728 178.523C40.7182 179.426 40.7075 180.093 40.6959 180.529C40.6901 180.751 40.6844 180.895 40.6797 180.976C40.677 181.023 40.6765 181.014 40.6808 180.978C40.6815 180.973 40.6912 180.886 40.7195 180.771C40.7297 180.73 40.7706 180.563 40.869 180.365C40.9162 180.271 41.0301 180.058 41.2453 179.844C41.466 179.624 41.9436 179.261 42.6558 179.261V181.261V183.261C43.369 183.261 43.8475 182.898 44.069 182.677C44.2851 182.462 44.3999 182.248 44.4479 182.152C44.5481 181.951 44.5908 181.779 44.6027 181.73C44.6346 181.602 44.6477 181.493 44.6518 181.459C44.663 181.367 44.6692 181.273 44.673 181.207C44.6815 181.062 44.6884 180.866 44.6945 180.635C44.707 180.166 44.718 179.474 44.7277 178.566L42.7278 178.545ZM42.6558 181.261V179.261H42.613V181.261V183.261H42.6558V181.261ZM42.613 181.261L44.1324 179.961L44.0468 179.861L42.5274 181.161L41.0081 182.462L41.0937 182.562L42.613 181.261ZM42.5274 181.161H40.5274V181.261H42.5274H44.5274V181.161H42.5274ZM58.238 2.39482H56.238V2.49482H58.238H60.238V2.39482H58.238ZM58.238 2.49482L56.2409 2.38701L55.9197 8.33701L57.9168 8.44482L59.9139 8.55262L60.2351 2.60262L58.238 2.49482ZM57.9168 8.44482L55.9197 8.33701C55.7051 12.3121 55.5967 15.3401 55.5991 17.3971L57.5991 17.3948L59.5991 17.3925C59.5968 15.4495 59.7002 12.5109 59.9139 8.55262L57.9168 8.44482ZM57.5991 17.3948L55.5991 17.3971L55.6026 20.3971L57.6026 20.3948L59.6026 20.3925L59.5991 17.3925L57.5991 17.3948ZM57.6026 20.3948L55.6026 20.3971L55.6061 23.3971L57.6061 23.3948L59.6061 23.3925L59.6026 20.3925L57.6026 20.3948ZM57.6061 23.3948L55.6061 23.3971C55.6084 25.4412 55.6783 27.4851 55.8156 29.5289L57.8111 29.3948L59.8066 29.2607C59.6752 27.3045 59.6083 25.3484 59.6061 23.3925L57.6061 23.3948ZM57.8111 29.3948L55.8156 29.5289L56.0172 32.5289L58.0127 32.3948L60.0082 32.2607L59.8066 29.2607L57.8111 29.3948ZM58.0127 32.3948L56.0172 32.5289L56.2188 35.5289L58.2143 35.3948L60.2098 35.2607L60.0082 32.2607L58.0127 32.3948ZM58.2143 35.3948L56.2188 35.5289C56.3494 37.4731 56.3982 39.417 56.3652 41.3609L58.365 41.3948L60.3647 41.4288C60.3996 39.3726 60.3479 37.3165 60.2098 35.2607L58.2143 35.3948ZM58.365 41.3948L56.3652 41.3609L56.3143 44.3609L58.314 44.3948L60.3137 44.4288L60.3647 41.4288L58.365 41.3948ZM58.314 44.3948L56.3143 44.3609L56.2634 47.3609L58.2631 47.3948L60.2628 47.4288L60.3137 44.4288L58.314 44.3948ZM58.2631 47.3948L56.2634 47.3609C56.2288 49.3969 56.2493 51.4329 56.3247 53.4689L58.3234 53.3948L60.322 53.3208C60.2492 51.3567 60.2295 49.3927 60.2628 47.4288L58.2631 47.3948ZM58.3234 53.3948L56.3247 53.4689L56.4359 56.4689L58.4345 56.3948L60.4331 56.3208L60.322 53.3208L58.3234 53.3948ZM58.4345 56.3948L56.4359 56.4689L56.5471 59.4689L58.5457 59.3948L60.5443 59.3208L60.4331 56.3208L58.4345 56.3948ZM58.5457 59.3948L56.5471 59.4689C56.6191 61.4126 56.6091 63.3564 56.517 65.3002L58.5148 65.3948L60.5125 65.4894C60.6099 63.4333 60.6205 61.377 60.5443 59.3208L58.5457 59.3948ZM58.5148 65.3948L56.517 65.3002L56.3749 68.3002L58.3727 68.3948L60.3704 68.4894L60.5125 65.4894L58.5148 65.3948ZM58.3727 68.3948L56.3749 68.3002L56.2328 71.3002L58.2306 71.3948L60.2283 71.4894L60.3704 68.4894L58.3727 68.3948ZM58.2306 71.3948L56.2328 71.3002C56.1348 73.3699 56.1452 75.4398 56.264 77.5094L58.2607 77.3948L60.2574 77.2802C60.1466 75.3498 60.1369 73.4197 60.2283 71.4894L58.2306 71.3948ZM58.2607 77.3948L56.264 77.5094L56.4362 80.5094L58.4329 80.3948L60.4296 80.2802L60.2574 77.2802L58.2607 77.3948ZM58.4329 80.3948L56.4362 80.5094L56.6084 83.5094L58.6051 83.3948L60.6018 83.2802L60.4296 80.2802L58.4329 80.3948ZM58.6051 83.3948L56.6084 83.5094C56.7202 85.4562 56.7539 87.4028 56.7097 89.3494L58.7092 89.3948L60.7086 89.4403C60.7553 87.3868 60.7197 85.3334 60.6018 83.2802L58.6051 83.3948ZM58.7092 89.3948L56.7097 89.3494L56.6415 92.3494L58.641 92.3948L60.6404 92.4403L60.7086 89.4403L58.7092 89.3948ZM58.641 92.3948L56.6415 92.3494L56.5733 95.3494L58.5727 95.3948L60.5722 95.4403L60.6404 92.4403L58.641 92.3948ZM58.5727 95.3948L56.5733 95.3494C56.528 97.3415 56.471 99.3337 56.4023 101.326L58.4011 101.395L60.3999 101.464C60.4691 99.4559 60.5266 97.4481 60.5722 95.4403L58.5727 95.3948ZM58.4011 101.395L56.4023 101.326L56.2989 104.326L58.2977 104.395L60.2965 104.464L60.3999 101.464L58.4011 101.395ZM58.2977 104.395L56.2989 104.326L56.1954 107.326L58.1943 107.395L60.1931 107.464L60.2965 104.464L58.2977 104.395ZM58.1943 107.395L56.1954 107.326C56.1255 109.355 56.0993 111.383 56.1169 113.412L58.1168 113.395L60.1167 113.377C60.0997 111.406 60.1251 109.435 60.1931 107.464L58.1943 107.395ZM58.1168 113.395L56.1169 113.412L56.1428 116.412L58.1428 116.395L60.1427 116.377L60.1167 113.377L58.1168 113.395ZM58.1428 116.395L56.1428 116.412L56.1688 119.412L58.1687 119.395L60.1687 119.377L60.1427 116.377L58.1428 116.395ZM58.1687 119.395L56.1688 119.412C56.1859 121.386 56.1643 123.36 56.104 125.334L58.103 125.395L60.1021 125.456C60.164 123.43 60.1862 121.404 60.1687 119.377L58.1687 119.395ZM58.103 125.395L56.104 125.334L56.0123 128.334L58.0114 128.395L60.0104 128.456L60.1021 125.456L58.103 125.395ZM58.0114 128.395L56.0123 128.334L55.9206 131.334L57.9197 131.395L59.9188 131.456L60.0104 128.456L58.0114 128.395ZM57.9197 131.395L55.9206 131.334C55.8594 133.338 55.8041 135.342 55.7548 137.346L57.7542 137.395L59.7536 137.444C59.8027 135.448 59.8578 133.452 59.9188 131.456L57.9197 131.395ZM57.7542 137.395L55.7548 137.346L55.6809 140.346L57.6803 140.395L59.6797 140.444L59.7536 137.444L57.7542 137.395ZM57.6803 140.395L55.6809 140.346L55.6071 143.346L57.6065 143.395L59.6059 143.444L59.6797 140.444L57.6803 140.395ZM57.6065 143.395L55.6071 143.346C55.5575 145.36 55.5302 147.375 55.5253 149.39L57.5253 149.395L59.5253 149.4C59.5301 147.414 59.557 145.429 59.6059 143.444L57.6065 143.395ZM57.5253 149.395L55.5253 149.39L55.518 152.39L57.518 152.395L59.518 152.4L59.5253 149.4L57.5253 149.395ZM57.518 152.395L55.518 152.39L55.5108 155.39L57.5107 155.395L59.5107 155.4L59.518 152.4L57.518 152.395ZM57.5107 155.395L55.5108 155.39C55.5057 157.455 55.6014 159.52 55.7975 161.584L57.7885 161.395L59.7796 161.206C59.5956 159.27 59.506 157.335 59.5107 155.4L57.5107 155.395ZM57.7885 161.395L55.7975 161.584L56.0826 164.584L58.0736 164.395L60.0647 164.206L59.7796 161.206L57.7885 161.395ZM58.0736 164.395L56.0826 164.584L56.3677 167.584L58.3587 167.395L60.3497 167.206L60.0647 164.206L58.0736 164.395ZM58.3587 167.395L56.3677 167.584C56.5495 169.498 56.5952 171.306 56.509 173.01L58.5065 173.111L60.5039 173.212C60.6008 171.295 60.548 169.292 60.3497 167.206L58.3587 167.395ZM58.5065 173.111L56.509 173.01L56.3717 175.727L58.3692 175.828L60.3667 175.929L60.5039 173.212L58.5065 173.111ZM58.3692 175.828L56.3717 175.727L56.2345 178.444L58.2319 178.545L60.2294 178.646L60.3667 175.929L58.3692 175.828ZM58.2319 178.545L56.2345 178.444C56.1886 179.351 56.1567 180.041 56.1393 180.507C56.1307 180.738 56.125 180.929 56.1235 181.07C56.1228 181.134 56.1225 181.219 56.126 181.302C56.1272 181.333 56.1312 181.428 56.148 181.542C56.1539 181.582 56.1769 181.742 56.2457 181.933C56.2762 182.019 56.3627 182.248 56.5528 182.491C56.7363 182.726 57.2537 183.261 58.1305 183.261V181.261V179.261C59.0065 179.261 59.5232 179.796 59.706 180.03C59.8954 180.273 59.9812 180.5 60.0111 180.584C60.0786 180.772 60.1005 180.927 60.1053 180.959C60.12 181.059 60.1224 181.133 60.1225 181.135C60.1236 181.162 60.1227 181.162 60.1232 181.113C60.1242 181.028 60.1282 180.879 60.1365 180.657C60.1529 180.218 60.1837 179.549 60.2294 178.646L58.2319 178.545ZM58.1305 181.261V183.261H58.1663V181.261V179.261H58.1305V181.261ZM58.1663 181.261L59.7919 182.426L59.8635 182.326L58.238 181.161L56.6124 179.996L56.5407 180.096L58.1663 181.261ZM58.238 181.161H56.238V181.261H58.238H60.238V181.161H58.238ZM73.9485 2.39482H71.9485V2.49482H73.9485H75.9485V2.39482H73.9485ZM73.9485 2.49482L71.9486 2.51177L71.999 8.46177L73.999 8.44482L75.9989 8.42787L75.9485 2.47787L73.9485 2.49482ZM73.999 8.44482L71.999 8.46177C72.0326 12.4159 71.9765 15.3339 71.8383 17.251L73.8331 17.3948L75.8279 17.5386C75.9781 15.4557 76.0326 12.4071 75.9989 8.42787L73.999 8.44482ZM73.8331 17.3948L71.8383 17.251L71.622 20.251L73.6168 20.3948L75.6116 20.5386L75.8279 17.5386L73.8331 17.3948ZM73.6168 20.3948L71.622 20.251L71.4057 23.251L73.4005 23.3948L75.3953 23.5386L75.6116 20.5386L73.6168 20.3948ZM73.4005 23.3948L71.4057 23.251C71.2544 25.3499 71.2593 27.4492 71.4206 29.548L73.4147 29.3948L75.4088 29.2416C75.2628 27.3404 75.2583 25.4397 75.3953 23.5386L73.4005 23.3948ZM73.4147 29.3948L71.4206 29.548L71.6511 32.548L73.6452 32.3948L75.6393 32.2416L75.4088 29.2416L73.4147 29.3948ZM73.6452 32.3948L71.6511 32.548L71.8815 35.548L73.8757 35.3948L75.8698 35.2416L75.6393 32.2416L73.6452 32.3948ZM73.8757 35.3948L71.8815 35.548C72.0275 37.4473 72.0292 39.3461 71.8868 41.2453L73.8812 41.3948L75.8756 41.5444C76.0331 39.4436 76.0312 37.3424 75.8698 35.2416L73.8757 35.3948ZM73.8812 41.3948L71.8868 41.2453L71.6619 44.2453L73.6563 44.3948L75.6507 44.5444L75.8756 41.5444L73.8812 41.3948ZM73.6563 44.3948L71.6619 44.2453L71.4369 47.2453L73.4313 47.3948L75.4257 47.5444L75.6507 44.5444L73.6563 44.3948ZM73.4313 47.3948L71.4369 47.2453C71.2834 49.2929 71.2035 51.3407 71.1972 53.3887L73.1972 53.3948L75.1971 53.401C75.2031 51.4489 75.2793 49.4968 75.4257 47.5444L73.4313 47.3948ZM73.1972 53.3948L71.1972 53.3887L71.1879 56.3887L73.1879 56.3948L75.1879 56.401L75.1971 53.401L73.1972 53.3948ZM73.1879 56.3948L71.1879 56.3887L71.1787 59.3887L73.1787 59.3948L75.1787 59.401L75.1879 56.401L73.1879 56.3948ZM73.1787 59.3948L71.1787 59.3887C71.1725 61.4145 71.2055 63.4403 71.2777 65.466L73.2764 65.3948L75.2751 65.3236C75.2048 63.3494 75.1727 61.3751 75.1787 59.401L73.1787 59.3948ZM73.2764 65.3948L71.2777 65.466L71.3846 68.466L73.3833 68.3948L75.382 68.3236L75.2751 65.3236L73.2764 65.3948ZM73.3833 68.3948L71.3846 68.466L71.4915 71.466L73.4902 71.3948L75.4889 71.3236L75.382 68.3236L73.3833 68.3948ZM73.4902 71.3948L71.4915 71.466C71.5634 73.4853 71.6645 75.5044 71.7948 77.5236L73.7906 77.3948L75.7865 77.2661C75.6587 75.2852 75.5595 73.3044 75.4889 71.3236L73.4902 71.3948ZM73.7906 77.3948L71.7948 77.5236L71.9883 80.5236L73.9842 80.3948L75.98 80.2661L75.7865 77.2661L73.7906 77.3948ZM73.9842 80.3948L71.9883 80.5236L72.1819 83.5236L74.1777 83.3948L76.1736 83.2661L75.98 80.2661L73.9842 80.3948ZM74.1777 83.3948L72.1819 83.5236C72.3092 85.4973 72.3974 87.471 72.4466 89.4446L74.446 89.3948L76.4454 89.345C76.3949 87.3186 76.3043 85.2923 76.1736 83.2661L74.1777 83.3948ZM74.446 89.3948L72.4466 89.4446L72.5213 92.4446L74.5207 92.3948L76.5201 92.345L76.4454 89.345L74.446 89.3948ZM74.5207 92.3948L72.5213 92.4446L72.596 95.4446L74.5954 95.3948L76.5948 95.345L76.5201 92.345L74.5207 92.3948ZM74.5954 95.3948L72.596 95.4446C72.6438 97.3618 72.5727 99.2793 72.3827 101.198L74.373 101.395L76.3633 101.592C76.5694 99.5103 76.6467 97.4278 76.5948 95.345L74.5954 95.3948ZM74.373 101.395L72.3827 101.198L72.0856 104.198L74.0759 104.395L76.0661 104.592L76.3633 101.592L74.373 101.395ZM74.0759 104.395L72.0856 104.198L71.7885 107.198L73.7787 107.395L75.769 107.592L76.0661 104.592L74.0759 104.395ZM73.7787 107.395L71.7885 107.198C71.5835 109.267 71.4874 111.337 71.5003 113.407L73.5003 113.395L75.5002 113.382C75.4882 111.453 75.5778 109.523 75.769 107.592L73.7787 107.395ZM73.5003 113.395L71.5003 113.407L71.519 116.407L73.5189 116.395L75.5189 116.382L75.5002 113.382L73.5003 113.395ZM73.5189 116.395L71.519 116.407L71.5377 119.407L73.5376 119.395L75.5376 119.382L75.5189 116.382L73.5189 116.395ZM73.5376 119.395L71.5377 119.407C71.5502 121.417 71.5773 123.427 71.6192 125.436L73.6187 125.395L75.6183 125.353C75.5769 123.363 75.55 121.373 75.5376 119.382L73.5376 119.395ZM73.6187 125.395L71.6192 125.436L71.6816 128.436L73.6812 128.395L75.6807 128.353L75.6183 125.353L73.6187 125.395ZM73.6812 128.395L71.6816 128.436L71.744 131.436L73.7436 131.395L75.7432 131.353L75.6807 128.353L73.6812 128.395ZM73.7436 131.395L71.744 131.436C71.7855 133.43 71.8169 135.423 71.838 137.416L73.8379 137.395L75.8378 137.374C75.8165 135.367 75.7849 133.36 75.7432 131.353L73.7436 131.395ZM73.8379 137.395L71.838 137.416L71.8699 140.416L73.8698 140.395L75.8697 140.374L75.8378 137.374L73.8379 137.395ZM73.8698 140.395L71.8699 140.416L71.9018 143.416L73.9017 143.395L75.9016 143.374L75.8697 140.374L73.8698 140.395ZM73.9017 143.395L71.9018 143.416C71.9231 145.415 71.9425 147.414 71.9601 149.412L73.96 149.395L75.9599 149.377C75.9423 147.376 75.9229 145.375 75.9016 143.374L73.9017 143.395ZM73.96 149.395L71.9601 149.412L71.9865 152.412L73.9864 152.395L75.9863 152.377L75.9599 149.377L73.96 149.395ZM73.9864 152.395L71.9865 152.412L72.0129 155.412L74.0128 155.395L76.0127 155.377L75.9863 152.377L73.9864 152.395ZM74.0128 155.395L72.0129 155.412C72.0302 157.388 72.0117 159.364 71.9572 161.34L73.9565 161.395L75.9557 161.45C76.0115 159.426 76.0305 157.401 76.0127 155.377L74.0128 155.395ZM73.9565 161.395L71.9572 161.34L71.8746 164.34L73.8738 164.395L75.873 164.45L75.9557 161.45L73.9565 161.395ZM73.8738 164.395L71.8746 164.34L71.7919 167.34L73.7911 167.395L75.7903 167.45L75.873 164.45L73.8738 164.395ZM73.7911 167.395L71.7919 167.34C71.7367 169.34 71.6853 171.247 71.6375 173.059L73.6368 173.111L75.6361 173.164C75.6838 171.354 75.7352 169.449 75.7903 167.45L73.7911 167.395ZM73.6368 173.111L71.6375 173.059L71.5659 175.775L73.5652 175.828L75.5646 175.881L75.6361 173.164L73.6368 173.111ZM73.5652 175.828L71.5659 175.775L71.4944 178.492L73.4937 178.545L75.493 178.597L75.5646 175.881L73.5652 175.828ZM73.4937 178.545L71.4944 178.492C71.4703 179.405 71.4623 180.123 71.4734 180.626C71.4787 180.867 71.4893 181.116 71.5146 181.328C71.5252 181.417 71.5499 181.607 71.6152 181.816C71.6437 181.907 71.722 182.144 71.8999 182.398C72.0579 182.624 72.5873 183.261 73.5537 183.261V181.261V179.261C74.5091 179.261 75.0281 179.892 75.1762 180.103C75.3442 180.343 75.4131 180.559 75.4328 180.622C75.4607 180.711 75.4738 180.779 75.4786 180.805C75.4843 180.835 75.4864 180.854 75.4866 180.855C75.4867 180.856 75.4839 180.831 75.4806 180.771C75.4775 180.713 75.4746 180.636 75.4724 180.538C75.4635 180.135 75.4693 179.496 75.493 178.597L73.4937 178.545ZM73.5537 181.261V183.261H73.6853V181.261V179.261H73.5537V181.261ZM73.6853 181.261L74.3956 183.131L74.6588 183.031L73.9485 181.161L73.2383 179.292L72.9751 179.392L73.6853 181.261ZM73.9485 181.161H71.9485V181.261H73.9485H75.9485V181.161H73.9485ZM28.3131 23.8799V25.8799H28.4131V23.8799V21.8799H28.3131V23.8799ZM28.4131 23.8799L28.2865 25.8759L34.2365 26.2533L34.3631 24.2573L34.4897 22.2613L28.5397 21.8839L28.4131 23.8799ZM34.3631 24.2573L34.2365 26.2533C38.2328 26.5067 41.3705 26.5163 43.5652 26.2375L43.3131 24.2534L43.061 22.2694C41.2557 22.4988 38.4267 22.511 34.4897 22.2613L34.3631 24.2573ZM43.3131 24.2534L43.5652 26.2375L46.5652 25.8562L46.3131 23.8722L46.061 21.8881L43.061 22.2694L43.3131 24.2534ZM46.3131 23.8722L46.5652 25.8562L49.5652 25.475L49.3131 23.491L49.061 21.5069L46.061 21.8881L46.3131 23.8722ZM49.3131 23.491L49.5652 25.475C51.4244 25.2387 53.2815 25.2021 55.1388 25.3645L55.3131 23.3721L55.4874 21.3797C53.3447 21.1923 51.2018 21.2349 49.061 21.5069L49.3131 23.491ZM55.3131 23.3721L55.1388 25.3645L58.1388 25.6269L58.3131 23.6345L58.4874 21.6421L55.4874 21.3797L55.3131 23.3721ZM58.3131 23.6345L58.1388 25.6269L61.1388 25.8893L61.3131 23.8969L61.4874 21.9045L58.4874 21.6421L58.3131 23.6345ZM61.3131 23.8969L61.1388 25.8893C63.2223 26.0715 65.3065 26.1222 67.3907 26.0413L67.3131 24.0428L67.2355 22.0443C65.3198 22.1187 63.4039 22.0721 61.4874 21.9045L61.3131 23.8969ZM67.3131 24.0428L67.3907 26.0413L70.3907 25.9248L70.3131 23.9263L70.2355 21.9278L67.2355 22.0443L67.3131 24.0428ZM70.3131 23.9263L70.3907 25.9248L73.3907 25.8083L73.3131 23.8098L73.2355 21.8113L70.2355 21.9278L70.3131 23.9263ZM73.3131 23.8098L73.3907 25.8083C75.3685 25.7315 77.3462 25.6877 79.324 25.677L79.3131 23.677L79.3023 21.6771C77.28 21.688 75.2577 21.7328 73.2355 21.8113L73.3131 23.8098ZM79.3131 23.677L79.324 25.677L82.324 25.6607L82.3131 23.6608L82.3023 21.6608L79.3023 21.6771L79.3131 23.677ZM82.3131 23.6608L82.324 25.6607L85.324 25.6444L85.3131 23.6445L85.3023 21.6445L82.3023 21.6608L82.3131 23.6608ZM85.3131 23.6445L85.324 25.6444C87.3306 25.6336 88.6313 25.65 89.2819 25.6878L89.3977 23.6911L89.5136 21.6945C88.718 21.6483 87.2956 21.6337 85.3023 21.6445L85.3131 23.6445ZM89.3977 23.6911L89.2819 25.6878L90.3665 25.7507L90.4823 23.7541L90.5982 21.7574L89.5136 21.6945L89.3977 23.6911ZM90.4823 23.7541L90.3609 25.7504L92.4302 25.8762L92.5516 23.8799L92.673 21.8836L90.6038 21.7577L90.4823 23.7541ZM92.5516 23.8799V25.8799H92.6516V23.8799V21.8799H92.5516V23.8799ZM28.3131 44.87V46.87H28.4131V44.87V42.87H28.3131V44.87ZM28.4131 44.87L28.2939 46.8664L34.2439 47.2216L34.3631 45.2251L34.4823 43.2287L28.5323 42.8735L28.4131 44.87ZM34.3631 45.2251L34.2439 47.2216C38.2383 47.46 41.366 47.4696 43.5483 47.2112L43.3131 45.2251L43.0779 43.239C41.2602 43.4542 38.4213 43.4638 34.4823 43.2287L34.3631 45.2251ZM43.3131 45.2251L43.5483 47.2112L46.5483 46.856L46.3131 44.8699L46.0779 42.8838L43.0779 43.239L43.3131 45.2251ZM46.3131 44.8699L46.5483 46.856L49.5483 46.5008L49.3131 44.5147L49.0779 42.5286L46.0779 42.8838L46.3131 44.8699ZM49.3131 44.5147L49.5483 46.5008C51.4014 46.2814 53.2529 46.2685 55.1054 46.462L55.3131 44.4728L55.5209 42.4836C53.3733 42.2593 51.2248 42.2744 49.0779 42.5286L49.3131 44.5147ZM55.3131 44.4728L55.1054 46.462L58.1054 46.7753L58.3131 44.7861L58.5209 42.7969L55.5209 42.4836L55.3131 44.4728ZM58.3131 44.7861L58.1054 46.7753L61.1054 47.0886L61.3131 45.0994L61.5209 43.1103L58.5209 42.7969L58.3131 44.7861ZM61.3131 45.0994L61.1054 47.0886C63.2001 47.3074 65.2959 47.3756 67.3919 47.2929L67.3131 45.2944L67.2343 43.296C65.3303 43.3711 63.4261 43.3093 61.5209 43.1103L61.3131 45.0994ZM67.3131 45.2944L67.3919 47.2929L70.3919 47.1745L70.3131 45.1761L70.2343 43.1776L67.2343 43.296L67.3131 45.2944ZM70.3131 45.1761L70.3919 47.1745L73.3919 47.0562L73.3131 45.0577L73.2343 43.0593L70.2343 43.1776L70.3131 45.1761ZM73.3131 45.0577L73.3919 47.0562C75.3724 46.9781 77.3528 46.9291 79.3332 46.9092L79.3131 44.9093L79.2931 42.9094C77.2734 42.9297 75.2538 42.9796 73.2343 43.0593L73.3131 45.0577ZM79.3131 44.9093L79.3332 46.9092L82.3332 46.8791L82.3131 44.8792L82.2931 42.8793L79.2931 42.9094L79.3131 44.9093ZM82.3131 44.8792L82.3332 46.8791L85.3332 46.8491L85.3131 44.8492L85.2931 42.8493L82.2931 42.8793L82.3131 44.8792ZM85.3131 44.8492L85.3332 46.8491C87.3354 46.829 88.6761 46.8235 89.3743 46.8317L89.3977 44.8318L89.4212 42.8319C88.6732 42.8232 87.2908 42.8292 85.2931 42.8493L85.3131 44.8492ZM89.3977 44.8318L89.3743 46.8317L90.4589 46.8444L90.4823 44.8445L90.5058 42.8447L89.4212 42.8319L89.3977 44.8318ZM90.4823 44.8445L90.4578 46.8444L92.527 46.8698L92.5516 44.87L92.5762 42.8701L90.5069 42.8447L90.4823 44.8445ZM92.5516 44.87V46.87H92.6516V44.87V42.87H92.5516V44.87ZM28.3131 64.3135V66.3135H28.4131V64.3135V62.3135H28.3131V64.3135ZM28.4131 64.3135L28.4729 66.3126L34.4229 66.1347L34.3631 64.1356L34.3033 62.1365L28.3533 62.3144L28.4131 64.3135ZM34.3631 64.1356L34.4229 66.1347C38.3891 66.016 41.3698 65.9301 43.3664 65.8769L43.3131 63.8776L43.2598 61.8783C41.2564 61.9317 38.2705 62.0178 34.3033 62.1365L34.3631 64.1356ZM43.3131 63.8776L43.3664 65.8769L46.3664 65.7969L46.3131 63.7976L46.2598 61.7983L43.2598 61.8783L43.3131 63.8776ZM46.3131 63.7976L46.3664 65.7969L49.3664 65.7169L49.3131 63.7176L49.2598 61.7183L46.2598 61.7983L46.3131 63.7976ZM49.3131 63.7176L49.3664 65.7169C51.283 65.6658 53.1998 65.7344 55.1174 65.9229L55.3131 63.9325L55.5088 61.9421C53.4264 61.7374 51.3433 61.6627 49.2598 61.7183L49.3131 63.7176ZM55.3131 63.9325L55.1174 65.9229L58.1174 66.2178L58.3131 64.2274L58.5088 62.237L55.5088 61.9421L55.3131 63.9325ZM58.3131 64.2274L58.1174 66.2178L61.1174 66.5128L61.3131 64.5224L61.5088 62.532L58.5088 62.237L58.3131 64.2274ZM61.3131 64.5224L61.1174 66.5128C63.2123 66.7187 65.308 66.7741 67.404 66.6788L67.3131 64.6809L67.2223 62.6829C65.3182 62.7695 63.4139 62.7193 61.5088 62.532L61.3131 64.5224ZM67.3131 64.6809L67.404 66.6788L70.404 66.5424L70.3131 64.5444L70.2222 62.5465L67.2223 62.6829L67.3131 64.6809ZM70.3131 64.5444L70.404 66.5424L73.404 66.406L73.3131 64.408L73.2222 62.4101L70.2222 62.5465L70.3131 64.5444ZM73.3131 64.408L73.404 66.406C75.414 66.3145 77.4239 66.208 79.4339 66.0864L79.3131 64.0901L79.1923 62.0937C77.2023 62.2141 75.2123 62.3196 73.2222 62.4101L73.3131 64.408ZM79.3131 64.0901L79.4339 66.0864L82.4339 65.9049L82.3131 63.9085L82.1923 61.9122L79.1923 62.0937L79.3131 64.0901ZM82.3131 63.9085L82.4339 65.9049L85.4339 65.7234L85.3131 63.727L85.1923 61.7307L82.1923 61.9122L82.3131 63.9085ZM85.3131 63.727L85.4339 65.7234C87.4578 65.6009 88.5922 65.626 89.0491 65.7069L89.3977 63.7375L89.7464 61.7681C88.7571 61.593 87.1684 61.6111 85.1923 61.7307L85.3131 63.727ZM89.3977 63.7375L89.0491 65.7069L90.1337 65.8989L90.4823 63.9295L90.831 61.9601L89.7464 61.7681L89.3977 63.7375ZM90.4823 63.9295L90.1174 65.8959L92.1867 66.28L92.5516 64.3135L92.9165 62.3471L90.8473 61.9631L90.4823 63.9295ZM92.5516 64.3135V66.3135H92.6516V64.3135V62.3135H92.5516V64.3135ZM28.3131 86.3928V88.3928H28.4131V86.3928V84.3928H28.3131V86.3928ZM28.4131 86.3928L28.4241 88.3927L34.3741 88.36L34.3631 86.3601L34.3521 84.3601L28.4021 84.3928L28.4131 86.3928ZM34.3631 86.3601L34.3741 88.36C38.3375 88.3382 41.3038 88.343 43.2821 88.3737L43.3131 86.3739L43.3442 84.3742C41.3224 84.3428 38.322 84.3383 34.3521 84.3601L34.3631 86.3601ZM43.3131 86.3739L43.2821 88.3737L46.2821 88.4203L46.3131 86.4205L46.3442 84.4207L43.3442 84.3742L43.3131 86.3739ZM46.3131 86.4205L46.2821 88.4203L49.2821 88.4668L49.3131 86.4671L49.3442 84.4673L46.3442 84.4207L46.3131 86.4205ZM49.3131 86.4671L49.2821 88.4668C51.2641 88.4976 53.2461 88.5551 55.2281 88.6394L55.3131 86.6412L55.3981 84.643C53.3801 84.5572 51.3621 84.4986 49.3442 84.4673L49.3131 86.4671ZM55.3131 86.6412L55.2281 88.6394L58.2281 88.767L58.3131 86.7688L58.3981 84.7706L55.3981 84.643L55.3131 86.6412ZM58.3131 86.7688L58.2281 88.767L61.2281 88.8945L61.3131 86.8963L61.3981 84.8981L58.3981 84.7706L58.3131 86.7688ZM61.3131 86.8963L61.2281 88.8945C63.3024 88.9827 65.3767 88.9553 67.4507 88.8122L67.3131 86.817L67.1755 84.8217C65.2495 84.9545 63.3238 84.98 61.3981 84.8981L61.3131 86.8963ZM67.3131 86.817L67.4507 88.8122L70.4507 88.6054L70.3131 86.6101L70.1755 84.6148L67.1755 84.8217L67.3131 86.817ZM70.3131 86.6101L70.4507 88.6054L73.4507 88.3985L73.3131 86.4032L73.1755 84.408L70.1755 84.6148L70.3131 86.6101ZM73.3131 86.4032L73.4507 88.3985C75.392 88.2646 77.333 88.2167 79.2738 88.2548L79.3131 86.2552L79.3524 84.2556C77.2932 84.2152 75.2342 84.266 73.1755 84.408L73.3131 86.4032ZM79.3131 86.2552L79.2738 88.2548L82.2738 88.3137L82.3131 86.3141L82.3524 84.3145L79.3524 84.2556L79.3131 86.2552ZM82.3131 86.3141L82.2738 88.3137L85.2738 88.3726L85.3131 86.373L85.3524 84.3734L82.3524 84.3145L82.3131 86.3141ZM85.3131 86.373L85.2738 88.3726C87.2708 88.4118 88.6599 88.4289 89.4158 88.4221L89.3977 86.4221L89.3797 84.4222C88.6894 84.4284 87.3554 84.4127 85.3524 84.3734L85.3131 86.373ZM89.3977 86.4221L89.4158 88.4221L90.5004 88.4123L90.4823 86.4123L90.4643 84.4124L89.3797 84.4222L89.3977 86.4221ZM90.4823 86.4123L90.5013 88.4123L92.5705 88.3927L92.5516 86.3928L92.5327 84.3929L90.4634 84.4124L90.4823 86.4123ZM92.5516 86.3928V88.3928H92.6516V86.3928V84.3928H92.5516V86.3928ZM28.3131 107.666V109.666H28.4131V107.666V105.666H28.3131V107.666ZM28.4131 107.666L28.4962 109.665L34.4462 109.417L34.3631 107.419L34.2801 105.421L28.3301 105.668L28.4131 107.666ZM34.3631 107.419L34.4462 109.417C38.3976 109.253 41.3007 109.232 43.1987 109.34L43.3131 107.344L43.4276 105.347C41.3255 105.226 38.262 105.255 34.2801 105.421L34.3631 107.419ZM43.3131 107.344L43.1987 109.34L46.1987 109.512L46.3131 107.516L46.4276 105.519L43.4276 105.347L43.3131 107.344ZM46.3131 107.516L46.1987 109.512L49.1987 109.684L49.3131 107.688L49.4276 105.691L46.4276 105.519L46.3131 107.516ZM49.3131 107.688L49.1987 109.684C51.2113 109.8 53.2239 109.896 55.2366 109.973L55.3131 107.974L55.3896 105.976C53.4023 105.9 51.4149 105.805 49.4276 105.691L49.3131 107.688ZM55.3131 107.974L55.2366 109.973L58.2366 110.088L58.3131 108.089L58.3896 106.091L55.3896 105.976L55.3131 107.974ZM58.3131 108.089L58.2366 110.088L61.2366 110.203L61.3131 108.204L61.3896 106.206L58.3896 106.091L58.3131 108.089ZM61.3131 108.204L61.2366 110.203C63.323 110.283 65.4092 110.227 67.4947 110.037L67.3131 108.045L67.1315 106.054C65.217 106.228 63.3032 106.279 61.3896 106.206L61.3131 108.204ZM67.3131 108.045L67.4947 110.037L70.4947 109.764L70.3131 107.772L70.1315 105.78L67.1315 106.054L67.3131 108.045ZM70.3131 107.772L70.4947 109.764L73.4947 109.49L73.3131 107.498L73.1315 105.507L70.1315 105.78L70.3131 107.772ZM73.3131 107.498L73.4947 109.49C75.39 109.317 77.2845 109.295 79.1792 109.422L79.3131 107.426L79.447 105.431C77.3417 105.289 75.2362 105.315 73.1315 105.507L73.3131 107.498ZM79.3131 107.426L79.1792 109.422L82.1792 109.623L82.3131 107.628L82.447 105.632L79.447 105.431L79.3131 107.426ZM82.3131 107.628L82.1792 109.623L85.1792 109.824L85.3131 107.829L85.447 105.833L82.447 105.632L82.3131 107.628ZM85.3131 107.829L85.1792 109.824C87.1631 109.957 88.6695 110.007 89.5649 109.932L89.3977 107.939L89.2306 105.946C88.6798 105.992 87.4631 105.969 85.447 105.833L85.3131 107.829ZM89.3977 107.939L89.5649 109.932L90.6495 109.841L90.4823 107.848L90.3152 105.855L89.2306 105.946L89.3977 107.939ZM90.4823 107.848L90.6575 109.841L92.7267 109.659L92.5516 107.666L92.3764 105.674L90.3072 105.856L90.4823 107.848ZM92.5516 107.666V109.666H92.6516V107.666V105.666H92.5516V107.666ZM28.3131 129.423V131.423H28.4131V129.423V127.423H28.3131V129.423ZM28.4131 129.423L28.3749 131.423L34.3249 131.536L34.3631 129.537L34.4014 127.537L28.4514 127.423L28.4131 129.423ZM34.3631 129.537L34.3249 131.536C38.2989 131.612 41.321 131.623 43.3703 131.564L43.3131 129.565L43.2559 127.566C41.3052 127.621 38.3606 127.613 34.4014 127.537L34.3631 129.537ZM43.3131 129.565L43.3703 131.564L46.3703 131.478L46.3131 129.479L46.2559 127.48L43.2559 127.566L43.3131 129.565ZM46.3131 129.479L46.3703 131.478L49.3703 131.392L49.3131 129.393L49.2559 127.394L46.2559 127.48L46.3131 129.479ZM49.3131 129.393L49.3703 131.392C51.3875 131.335 53.4047 131.251 55.4219 131.141L55.3131 129.144L55.2043 127.147C53.2215 127.255 51.2387 127.337 49.2559 127.394L49.3131 129.393ZM55.3131 129.144L55.4219 131.141L58.4219 130.977L58.3131 128.98L58.2043 126.983L55.2043 127.147L55.3131 129.144ZM58.3131 128.98L58.4219 130.977L61.4219 130.814L61.3131 128.817L61.2043 126.82L58.2043 126.983L58.3131 128.98ZM61.3131 128.817L61.4219 130.814C63.3085 130.711 65.1954 130.769 67.0837 130.987L67.3131 129L67.5425 127.013C65.4308 126.769 63.3177 126.705 61.2043 126.82L61.3131 128.817ZM67.3131 129L67.0837 130.987L70.0837 131.333L70.3131 129.346L70.5425 127.359L67.5425 127.013L67.3131 129ZM70.3131 129.346L70.0837 131.333L73.0837 131.679L73.3131 129.693L73.5425 127.706L70.5425 127.359L70.3131 129.346ZM73.3131 129.693L73.0837 131.679C75.1995 131.924 77.3169 131.982 79.4344 131.853L79.3131 129.857L79.1918 127.86C77.3093 127.975 75.4267 127.923 73.5425 127.706L73.3131 129.693ZM79.3131 129.857L79.4344 131.853L82.4344 131.671L82.3131 129.675L82.1918 127.678L79.1918 127.86L79.3131 129.857ZM82.3131 129.675L82.4344 131.671L85.4344 131.489L85.3131 129.492L85.1918 127.496L82.1918 127.678L82.3131 129.675ZM85.3131 129.492L85.4344 131.489C87.4437 131.367 88.722 131.321 89.3457 131.338L89.3977 129.338L89.4497 127.339C88.6273 127.318 87.1826 127.375 85.1918 127.496L85.3131 129.492ZM89.3977 129.338L89.3457 131.338L90.4303 131.366L90.4823 129.366L90.5344 127.367L89.4497 127.339L89.3977 129.338ZM90.4823 129.366L90.4278 131.366L92.4971 131.422L92.5516 129.423L92.6061 127.424L90.5369 127.367L90.4823 129.366ZM92.5516 129.423V131.423H92.6516V129.423V127.423H92.5516V129.423ZM28.3131 149.395V151.395H28.4131V149.395V147.395H28.3131V149.395ZM28.4131 149.395L28.2868 151.391L34.2368 151.767L34.3631 149.771L34.4894 147.775L28.5394 147.399L28.4131 149.395ZM34.3631 149.771L34.2368 151.767C38.2239 152.02 41.3155 152.082 43.4531 151.932L43.3131 149.937L43.1731 147.942C41.3107 148.073 38.4357 148.025 34.4894 147.775L34.3631 149.771ZM43.3131 149.937L43.4531 151.932L46.4531 151.722L46.3131 149.727L46.1731 147.732L43.1731 147.942L43.3131 149.937ZM46.3131 149.727L46.4531 151.722L49.4531 151.511L49.3131 149.516L49.1731 147.521L46.1731 147.732L46.3131 149.727ZM49.3131 149.516L49.4531 151.511C51.363 151.377 53.2726 151.373 55.1824 151.498L55.3131 149.502L55.4438 147.506C53.3536 147.369 51.2632 147.374 49.1731 147.521L49.3131 149.516ZM55.3131 149.502L55.1824 151.498L58.1824 151.694L58.3131 149.699L58.4438 147.703L55.4438 147.506L55.3131 149.502ZM58.3131 149.699L58.1824 151.694L61.1824 151.891L61.3131 149.895L61.4438 147.899L58.4438 147.703L58.3131 149.699ZM61.3131 149.895L61.1824 151.891C63.2761 152.028 65.3701 152.018 67.4637 151.86L67.3131 149.865L67.1625 147.871C65.2561 148.015 63.3501 148.024 61.4438 147.899L61.3131 149.895ZM67.3131 149.865L67.4637 151.86L70.4637 151.633L70.3131 149.639L70.1625 147.644L67.1625 147.871L67.3131 149.865ZM70.3131 149.639L70.4637 151.633L73.4637 151.406L73.3131 149.412L73.1625 147.418L70.1625 147.644L70.3131 149.639ZM73.3131 149.412L73.4637 151.406C75.3838 151.262 77.3035 151.232 79.2231 151.319L79.3131 149.321L79.4031 147.323C77.3227 147.229 75.2424 147.261 73.1625 147.418L73.3131 149.412ZM79.3131 149.321L79.2231 151.319L82.2231 151.454L82.3131 149.456L82.4031 147.458L79.4031 147.323L79.3131 149.321ZM82.3131 149.456L82.2231 151.454L85.2231 151.589L85.3131 149.591L85.4031 147.593L82.4031 147.458L82.3131 149.456ZM85.3131 149.591L85.2231 151.589C87.2104 151.678 88.6884 151.703 89.55 151.637L89.3977 149.643L89.2455 147.649C88.6609 147.694 87.4158 147.684 85.4031 147.593L85.3131 149.591ZM89.3977 149.643L89.55 151.637L90.6346 151.555L90.4823 149.56L90.3301 147.566L89.2455 147.649L89.3977 149.643ZM90.4823 149.56L90.6419 151.554L92.7111 151.388L92.5516 149.395L92.392 147.401L90.3228 147.567L90.4823 149.56ZM92.5516 149.395V151.395H92.6516V149.395V147.395H92.5516V149.395ZM4.81312 180.491L6.81122 180.578L6.81557 180.479L4.81747 180.391L2.81936 180.304L2.81501 180.404L4.81312 180.491ZM4.81747 180.391L6.81729 180.365L6.79118 178.386L4.79135 178.413L2.79153 178.439L2.81764 180.418L4.81747 180.391ZM4.79135 178.413L6.79118 178.386C6.77443 177.117 6.86099 176.35 6.9678 175.958L5.03806 175.432L3.10832 174.907C2.85137 175.85 2.77346 177.07 2.79153 178.439L4.79135 178.413ZM5.03806 175.432L6.9678 175.958L7.24061 174.956L5.31087 174.43L3.38113 173.905L3.10832 174.907L5.03806 175.432ZM5.31087 174.43L7.24061 174.956L7.51343 173.954L5.58369 173.428L3.65395 172.903L3.38113 173.905L5.31087 174.43ZM5.58369 173.428L7.51343 173.954C7.70646 173.245 7.86537 172.463 7.81099 171.763L5.817 171.918L3.823 172.073C3.81992 172.033 3.82765 172.077 3.80186 172.244C3.77767 172.401 3.73163 172.618 3.65395 172.903L5.58369 173.428ZM5.817 171.918L7.81099 171.763L7.77148 171.254L5.77749 171.409L3.7835 171.564L3.823 172.073L5.817 171.918ZM5.77749 171.409L7.77148 171.254L7.73198 170.746L5.73798 170.901L3.74399 171.055L3.7835 171.564L5.77749 171.409ZM5.73798 170.901L7.73198 170.746C7.71587 170.538 7.68455 170.244 7.5997 169.955C7.56035 169.821 7.46989 169.545 7.2671 169.26C7.05993 168.97 6.54638 168.427 5.67442 168.389L5.58736 170.387L5.5003 172.385C4.66537 172.349 4.18588 171.829 4.00978 171.582C3.83806 171.341 3.77569 171.129 3.76144 171.081C3.7268 170.963 3.73375 170.924 3.74399 171.055L5.73798 170.901ZM5.58736 170.387L5.67442 168.389L5.5633 168.384L5.47624 170.382L5.38918 172.38L5.5003 172.385L5.58736 170.387ZM5.47624 170.382L4.73638 168.524L4.50979 168.614L5.24965 170.472L5.9895 172.331L6.21609 172.24L5.47624 170.382ZM5.24965 170.472L7.24775 170.56L7.25211 170.46L5.254 170.373L3.2559 170.285L3.25154 170.385L5.24965 170.472ZM3.34907 165.463L5.21363 164.74L4.26116 162.285L2.3966 163.008L0.532038 163.732L1.4845 166.187L3.34907 165.463ZM2.3966 163.008L4.26116 162.285C4.13575 161.962 4.06485 161.708 4.02926 161.518C3.99337 161.326 3.99941 161.23 4.00213 161.207C4.00386 161.192 3.99808 161.254 3.94168 161.342C3.88322 161.434 3.81557 161.484 3.78796 161.5L2.77897 159.774L1.76998 158.047C0.750387 158.643 0.162577 159.614 0.0297868 160.737C-0.0889699 161.742 0.161385 162.777 0.532038 163.732L2.3966 163.008ZM2.77897 159.774L3.78796 161.5L5.12279 160.72L4.1138 158.994L3.10481 157.267L1.76998 158.047L2.77897 159.774ZM4.1138 158.994L5.12279 160.72L6.45762 159.941L5.44863 158.214L4.43964 156.487L3.10481 157.267L4.1138 158.994ZM5.44863 158.214L6.45762 159.941C6.4927 159.92 6.30937 160.041 5.96882 160.028C5.78812 160.021 5.59693 159.976 5.41587 159.887C5.23852 159.8 5.1126 159.692 5.03158 159.603C4.88732 159.445 4.88254 159.347 4.9216 159.476C4.95554 159.587 4.99997 159.795 5.03211 160.131L7.02304 159.941L9.01397 159.751C8.96626 159.251 8.88519 158.76 8.74801 158.31C8.61593 157.876 8.39438 157.354 7.98773 156.908C7.53588 156.413 6.89437 156.061 6.12638 156.031C5.43215 156.003 4.84951 156.247 4.43964 156.487L5.44863 158.214ZM7.02304 159.941L5.03211 160.131L5.27169 162.638L7.26262 162.448L9.25355 162.258L9.01397 159.751L7.02304 159.941ZM7.26262 162.448L5.27169 162.638L5.51127 165.145L7.5022 164.955L9.49313 164.765L9.25355 162.258L7.26262 162.448ZM7.5022 164.955L5.51127 165.145C5.58409 165.907 5.58083 166.439 5.54023 166.783C5.49393 167.174 5.42572 167.094 5.5996 166.89L7.11983 168.19L8.64007 169.489C9.22858 168.801 9.43141 167.939 9.51257 167.252C9.59942 166.517 9.58003 165.674 9.49313 164.765L7.5022 164.955ZM7.11983 168.19L5.5996 166.89L4.97765 167.618L6.49789 168.917L8.01813 170.217L8.64007 169.489L7.11983 168.19ZM6.49789 168.917L4.97765 167.618L4.35571 168.345L5.87595 169.645L7.39618 170.945L8.01813 170.217L6.49789 168.917ZM5.87595 169.645L4.35571 168.345C4.51286 168.162 4.98947 167.747 5.73651 167.819C6.05129 167.85 6.28438 167.961 6.4224 168.047C6.55628 168.13 6.62977 168.208 6.64945 168.23C6.6813 168.265 6.63555 168.222 6.52845 168.018C6.42918 167.828 6.30761 167.559 6.1661 167.194L4.30153 167.918L2.43697 168.641C2.7598 169.473 3.15884 170.338 3.69329 170.924C3.95507 171.211 4.5061 171.719 5.35212 171.801C6.33402 171.895 7.03171 171.371 7.39618 170.945L5.87595 169.645ZM4.30153 167.918L6.1661 167.194L5.21363 164.74L3.34907 165.463L1.4845 166.187L2.43697 168.641L4.30153 167.918ZM15.8353 180.072H17.8353V179.972H15.8353H13.8353V180.072H15.8353ZM15.8353 179.972L17.8334 179.885L17.8047 179.229L15.8066 179.317L13.8085 179.404L13.8372 180.06L15.8353 179.972ZM15.8066 179.317L17.8047 179.229C17.7849 178.779 17.7608 178.395 17.7292 178.097L15.7404 178.309L13.7516 178.52C13.77 178.693 13.7899 178.98 13.8085 179.404L15.8066 179.317ZM15.7404 178.309L17.7292 178.097L17.6918 177.745L15.703 177.956L13.7141 178.167L13.7516 178.52L15.7404 178.309ZM15.703 177.956L17.6918 177.745L17.6543 177.392L15.6655 177.603L13.6767 177.814L13.7141 178.167L15.703 177.956ZM15.6655 177.603L17.6543 177.392C17.6639 177.482 17.6901 178.004 17.2292 178.474L15.801 177.074L14.3728 175.674C13.6813 176.379 13.6172 177.254 13.6767 177.814L15.6655 177.603ZM15.801 177.074L17.2292 178.474L17.4021 178.298L15.9739 176.898L14.5457 175.498L14.3728 175.674L15.801 177.074ZM15.9739 176.898L17.4021 178.298L17.5749 178.121L16.1467 176.721L14.7185 175.321L14.5457 175.498L15.9739 176.898ZM16.1467 176.721L17.5749 178.121C17.6383 178.057 17.7259 177.962 17.8137 177.846C17.878 177.76 18.0593 177.513 18.1651 177.153C18.2814 176.757 18.3881 175.819 17.5999 175.089C17.0122 174.544 16.335 174.545 16.1985 174.545V176.545V178.545C16.1025 178.545 15.4533 178.553 14.8815 178.023C14.1092 177.308 14.2196 176.392 14.3272 176.025C14.4244 175.695 14.5847 175.484 14.6159 175.443C14.6706 175.37 14.7128 175.327 14.7185 175.321L16.1467 176.721ZM16.1985 176.545V174.545H16.0775V176.545V178.545H16.1985V176.545ZM16.0775 176.545L15.3141 174.696L15.072 174.796L15.8353 176.645L16.5986 178.494L16.8408 178.394L16.0775 176.545ZM15.8353 176.645H17.8353V176.545H15.8353H13.8353V176.645H15.8353ZM14.072 171.693L15.9517 171.01L15.0701 168.584L13.1904 169.267L11.3107 169.95L12.1923 172.376L14.072 171.693ZM13.1904 169.267L15.0701 168.584C14.9599 168.281 14.9337 168.116 14.9294 168.061C14.9249 168.003 14.9525 168.179 14.8142 168.437C14.7427 168.57 14.6422 168.694 14.5194 168.795C14.3996 168.893 14.2864 168.947 14.2086 168.974C14.0727 169.023 14.0499 168.991 14.2376 169.006L14.401 167.013L14.5645 165.019C13.6329 164.943 12.0766 165.08 11.2902 166.544C10.6475 167.741 10.9961 169.085 11.3107 169.95L13.1904 169.267ZM14.401 167.013L14.2376 169.006L16.3299 169.178L16.4934 167.184L16.6568 165.191L14.5645 165.019L14.401 167.013ZM16.4934 167.184L16.3299 169.178L18.4222 169.349L18.5857 167.356L18.7491 165.362L16.6568 165.191L16.4934 167.184ZM18.5857 167.356L18.4222 169.349C18.6234 169.366 18.6557 169.396 18.5942 169.367C18.5105 169.327 18.3163 169.205 18.1753 168.947C18.0389 168.697 18.0475 168.495 18.0512 168.456C18.0536 168.431 18.0483 168.513 17.9532 168.726L19.7796 169.541L21.6061 170.356C21.9714 169.537 22.3516 168.248 21.6854 167.029C20.9906 165.757 19.6529 165.437 18.7491 165.362L18.5857 167.356ZM19.7796 169.541L17.9532 168.726L17.0549 170.739L18.8813 171.554L20.7077 172.369L21.6061 170.356L19.7796 169.541ZM18.8813 171.554L17.0549 170.739L16.1565 172.752L17.983 173.567L19.8094 174.382L20.7077 172.369L18.8813 171.554ZM17.983 173.567L16.1565 172.752C15.865 173.406 15.6372 173.878 15.4692 174.191C15.3843 174.349 15.3301 174.438 15.3041 174.476C15.2915 174.495 15.2982 174.483 15.3232 174.453C15.3411 174.432 15.4173 174.341 15.5502 174.238L16.7723 175.822L17.9944 177.405C18.3179 177.155 18.5309 176.846 18.6261 176.704C18.7531 176.515 18.8762 176.301 18.9931 176.084C19.2286 175.645 19.5021 175.071 19.8094 174.382L17.983 173.567ZM16.7723 175.822L15.5502 174.238L15.2379 174.48L16.46 176.063L17.682 177.646L17.9944 177.405L16.7723 175.822ZM16.46 176.063L15.2379 174.48L14.9256 174.721L16.1476 176.304L17.3697 177.887L17.682 177.646L16.46 176.063ZM16.1476 176.304L14.9256 174.721C15.1232 174.568 15.3796 174.434 15.6881 174.368C15.9966 174.302 16.2857 174.319 16.5286 174.378C16.974 174.485 17.2405 174.721 17.3228 174.798C17.4899 174.954 17.5262 175.062 17.448 174.919C17.3255 174.695 17.1212 174.228 16.8334 173.436L14.9536 174.119L13.0739 174.802C13.3739 175.627 13.6624 176.333 13.9379 176.837C14.0587 177.058 14.2703 177.419 14.589 177.718C14.747 177.866 15.0833 178.144 15.5927 178.267C16.2138 178.416 16.8643 178.277 17.3697 177.887L16.1476 176.304ZM14.9536 174.119L16.8334 173.436L15.9517 171.01L14.072 171.693L12.1923 172.376L13.0739 174.802L14.9536 174.119ZM29.0995 174.964L31.0995 174.977L31.1186 171.977L29.1187 171.964L27.1187 171.952L27.0996 174.952L29.0995 174.964ZM29.1187 171.964L31.1186 171.977C31.1315 169.968 31.1306 167.959 31.1161 165.95L29.1162 165.964L27.1162 165.979C27.1306 167.97 27.1314 169.961 27.1187 171.952L29.1187 171.964ZM29.1162 165.964L31.1161 165.95L31.0945 162.95L29.0946 162.964L27.0946 162.979L27.1162 165.979L29.1162 165.964ZM29.0946 162.964L31.0945 162.95L31.0729 159.95L29.0729 159.964L27.073 159.979L27.0946 162.979L29.0946 162.964ZM29.0729 159.964L31.0729 159.95C31.0584 157.937 31.0243 155.924 30.9708 153.911L28.9715 153.964L26.9722 154.018C27.0251 156.005 27.0586 157.992 27.073 159.979L29.0729 159.964ZM28.9715 153.964L30.9708 153.911L30.891 150.911L28.8917 150.964L26.8924 151.018L26.9722 154.018L28.9715 153.964ZM28.8917 150.964L30.891 150.911L30.8112 147.911L28.8119 147.964L26.8126 148.018L26.8924 151.018L28.8917 150.964ZM28.8119 147.964L30.8112 147.911C30.758 145.911 30.7044 143.911 30.6504 141.91L28.6511 141.964L26.6518 142.018C26.7059 144.018 26.7594 146.018 26.8126 148.018L28.8119 147.964ZM28.6511 141.964L30.6504 141.91L30.5694 138.91L28.5701 138.964L26.5708 139.018L26.6518 142.018L28.6511 141.964ZM28.5701 138.964L30.5694 138.91L30.4883 135.91L28.4891 135.964L26.4898 136.018L26.5708 139.018L28.5701 138.964ZM28.4891 135.964L30.4883 135.91C30.4355 133.952 30.4441 131.994 30.5141 130.036L28.5154 129.964L26.5167 129.893C26.4436 131.935 26.4347 133.977 26.4898 136.018L28.4891 135.964ZM28.5154 129.964L30.5141 130.036L30.6215 127.036L28.6228 126.964L26.6241 126.893L26.5167 129.893L28.5154 129.964ZM28.6228 126.964L30.6215 127.036L30.7289 124.036L28.7301 123.964L26.7314 123.893L26.6241 126.893L28.6228 126.964ZM28.7301 123.964L30.7289 124.036C30.8007 122.029 30.8622 120.022 30.9136 118.016L28.9142 117.964L26.9149 117.913C26.8639 119.907 26.8027 121.9 26.7314 123.893L28.7301 123.964ZM28.9142 117.964L30.9136 118.016L30.9903 115.016L28.991 114.964L26.9916 114.913L26.9149 117.913L28.9142 117.964ZM28.991 114.964L30.9903 115.016L31.0671 112.016L29.0677 111.964L27.0684 111.913L26.9916 114.913L28.991 114.964ZM29.0677 111.964L31.0671 112.016C31.1182 110.017 31.1717 108.019 31.2275 106.02L29.2283 105.964L27.2291 105.909C27.1731 107.91 27.1196 109.912 27.0684 111.913L29.0677 111.964ZM29.2283 105.964L31.2275 106.02L31.3113 103.02L29.3121 102.964L27.3129 102.909L27.2291 105.909L29.2283 105.964ZM29.3121 102.964L31.3113 103.02L31.3952 100.02L29.396 99.9645L27.3967 99.9086L27.3129 102.909L29.3121 102.964ZM29.396 99.9645L31.3952 100.02C31.4527 97.9612 31.4189 95.902 31.2937 93.8431L29.2974 93.9645L27.3011 94.0859C27.4191 96.0269 27.451 97.9678 27.3967 99.9086L29.396 99.9645ZM29.2974 93.9645L31.2937 93.8431L31.1113 90.8431L29.115 90.9645L27.1187 91.0859L27.3011 94.0859L29.2974 93.9645ZM29.115 90.9645L31.1113 90.8431L30.9289 87.8431L28.9326 87.9645L26.9363 88.0859L27.1187 91.0859L29.115 90.9645ZM28.9326 87.9645L30.9289 87.8431C30.8095 85.8805 30.7455 83.9179 30.7366 81.9555L28.7366 81.9645L26.7366 81.9735C26.7458 84.0111 26.8124 86.0485 26.9363 88.0859L28.9326 87.9645ZM28.7366 81.9645L30.7366 81.9555L30.7231 78.9555L28.7231 78.9645L26.7231 78.9735L26.7366 81.9735L28.7366 81.9645ZM28.7231 78.9645L30.7231 78.9555L30.7095 75.9555L28.7095 75.9645L26.7096 75.9735L26.7231 78.9735L28.7231 78.9645ZM28.7095 75.9645L30.7095 75.9555C30.7006 73.9916 30.745 72.0277 30.8425 70.0637L28.845 69.9645L26.8474 69.8653C26.7463 71.9013 26.7004 73.9374 26.7096 75.9735L28.7095 75.9645ZM28.845 69.9645L30.8425 70.0637L30.9915 67.0637L28.9939 66.9645L26.9964 66.8653L26.8474 69.8653L28.845 69.9645ZM28.9939 66.9645L30.9915 67.0637L31.1404 64.0637L29.1429 63.9645L27.1454 63.8653L26.9964 66.8653L28.9939 66.9645ZM29.1429 63.9645L31.1404 64.0637C31.2403 62.0528 31.3237 60.042 31.3907 58.0311L29.3918 57.9645L27.3929 57.8979C27.3267 59.887 27.2441 61.8762 27.1454 63.8653L29.1429 63.9645ZM29.3918 57.9645L31.3907 58.0311L31.4906 55.0311L29.4917 54.9645L27.4929 54.8979L27.3929 57.8979L29.3918 57.9645ZM29.4917 54.9645L31.4906 55.0311L31.5906 52.0311L29.5917 51.9645L27.5928 51.8979L27.4929 54.8979L29.4917 54.9645ZM29.5917 51.9645L31.5906 52.0311C31.6583 49.9986 31.6764 47.966 31.6448 45.9334L29.645 45.9645L27.6453 45.9955C27.6758 47.963 27.6583 49.9304 27.5928 51.8979L29.5917 51.9645ZM29.645 45.9645L31.6448 45.9334L31.5982 42.9334L29.5984 42.9645L27.5987 42.9955L27.6453 45.9955L29.645 45.9645ZM29.5984 42.9645L31.5982 42.9334L31.5516 39.9334L29.5519 39.9645L27.5521 39.9955L27.5987 42.9955L29.5984 42.9645ZM29.5519 39.9645L31.5516 39.9334C31.5197 37.8797 31.4052 35.8263 31.2081 33.7734L29.2173 33.9645L27.2264 34.1556C27.4133 36.1026 27.5219 38.0492 27.5521 39.9955L29.5519 39.9645ZM29.2173 33.9645L31.2081 33.7734L30.9201 30.7734L28.9292 30.9645L26.9384 31.1556L27.2264 34.1556L29.2173 33.9645ZM28.9292 30.9645L30.9201 30.7734L30.6321 27.7734L28.6412 27.9645L26.6504 28.1556L26.9384 31.1556L28.9292 30.9645ZM28.6412 27.9645L30.6321 27.7734C30.4501 25.8778 30.418 23.9832 30.5357 22.0885L28.5396 21.9645L26.5434 21.8405C26.4126 23.9458 26.4483 26.0512 26.6504 28.1556L28.6412 27.9645ZM28.5396 21.9645L30.5357 22.0885L30.7221 19.0885L28.726 18.9645L26.7298 18.8405L26.5434 21.8405L28.5396 21.9645ZM28.726 18.9645L30.7221 19.0885L30.9085 16.0885L28.9124 15.9645L26.9162 15.8405L26.7298 18.8405L28.726 18.9645ZM28.9124 15.9645L30.9085 16.0885C31.0302 14.1295 31.2041 12.3251 31.4287 10.6732L29.4469 10.4037L27.4652 10.1343C27.2255 11.8967 27.043 13.7994 26.9162 15.8405L28.9124 15.9645ZM29.4469 10.4037L31.4287 10.6732L31.7769 8.11248L29.7951 7.843L27.8134 7.57353L27.4652 10.1343L29.4469 10.4037ZM29.7951 7.843L31.7769 8.11248L32.1251 5.55173L30.1434 5.28226L28.1616 5.01278L27.8134 7.57353L29.7951 7.843ZM30.1434 5.28226L32.1251 5.55173C32.1871 5.09585 32.329 4.93638 32.4257 4.85681C32.5565 4.74911 32.8825 4.56975 33.6218 4.52152L33.4916 2.52576L33.3613 0.530005C32.1006 0.61227 30.8686 0.957582 29.8833 1.76871C28.8639 2.60797 28.3317 3.7615 28.1616 5.01278L30.1434 5.28226ZM33.4916 2.52576L33.6218 4.52152L36.6218 4.32576L36.4916 2.33001L36.3613 0.334253L33.3613 0.530005L33.4916 2.52576ZM36.4916 2.33001L36.6218 4.32576L39.6218 4.13001L39.4916 2.13426L39.3613 0.138501L36.3613 0.334253L36.4916 2.33001ZM39.4916 2.13426L39.6218 4.13001C41.5174 4.00632 43.4129 4.03127 45.3091 4.20497L45.4916 2.21331L45.674 0.22165C43.5703 0.0289424 41.4657 0.00118815 39.3613 0.138501L39.4916 2.13426ZM45.4916 2.21331L45.3091 4.20497L48.3091 4.47978L48.4916 2.48812L48.674 0.496457L45.674 0.22165L45.4916 2.21331ZM48.4916 2.48812L48.3091 4.47978L51.3091 4.75459L51.4916 2.76292L51.674 0.771263L48.674 0.496457L48.4916 2.48812ZM51.4916 2.76292L51.3091 4.75459C53.3918 4.94536 55.4751 5.00586 57.5586 4.93595L57.4916 2.93707L57.4245 0.9382C55.508 1.0025 53.5914 0.946898 51.674 0.771263L51.4916 2.76292ZM57.4916 2.93707L57.5586 4.93595L60.5586 4.83529L60.4916 2.83642L60.4245 0.837543L57.4245 0.9382L57.4916 2.93707ZM60.4916 2.83642L60.5586 4.83529L63.5586 4.73464L63.4916 2.73576L63.4245 0.736886L60.4245 0.837543L60.4916 2.83642ZM63.4916 2.73576L63.5586 4.73464C65.5759 4.66695 67.5931 4.57314 69.6103 4.45319L69.4916 2.45671L69.3728 0.460239C67.39 0.578145 65.4072 0.67036 63.4245 0.736886L63.4916 2.73576ZM69.4916 2.45671L69.6103 4.45319L72.6103 4.27479L72.4916 2.27832L72.3728 0.281847L69.3728 0.460239L69.4916 2.45671ZM72.4916 2.27832L72.6103 4.27479L75.6103 4.0964L75.4916 2.09993L75.3728 0.103455L72.3728 0.281847L72.4916 2.27832ZM75.4916 2.09993L75.6103 4.0964C77.5404 3.98163 79.4515 3.96942 81.3437 4.05935L81.4387 2.06161L81.5336 0.0638654C79.4964 -0.0329635 77.4427 -0.0196258 75.3728 0.103455L75.4916 2.09993ZM81.4387 2.06161L81.3437 4.05935L84.2908 4.19943L84.3858 2.20168L84.4807 0.20394L81.5336 0.0638654L81.4387 2.06161ZM84.3858 2.20168L84.2908 4.19943L87.2379 4.3395L87.3329 2.34176L87.4278 0.344014L84.4807 0.20394L84.3858 2.20168ZM87.3329 2.34176L87.2379 4.3395C87.8887 4.37043 88.1232 4.54179 88.2079 4.62476C88.2975 4.71248 88.4842 4.96152 88.5426 5.64708L90.5354 5.47715L92.5282 5.30722C92.4163 3.9959 91.9841 2.72394 91.0062 1.76653C90.0234 0.804364 88.7418 0.406465 87.4278 0.344014L87.3329 2.34176ZM90.5354 5.47715L88.5426 5.64708L88.798 8.6424L90.7908 8.47247L92.7836 8.30254L92.5282 5.30722L90.5354 5.47715ZM90.7908 8.47247L88.798 8.6424L89.0535 11.6377L91.0462 11.4678L93.039 11.2979L92.7836 8.30254L90.7908 8.47247ZM91.0462 11.4678L89.0535 11.6377C89.2146 13.5267 89.2221 15.4187 89.076 17.315L91.0701 17.4686L93.0642 17.6222C93.2269 15.5111 93.2185 13.4027 93.039 11.2979L91.0462 11.4678ZM91.0701 17.4686L89.076 17.315L88.8445 20.3205L90.8386 20.4741L92.8327 20.6277L93.0642 17.6222L91.0701 17.4686ZM90.8386 20.4741L88.8445 20.3205L88.613 23.326L90.6071 23.4796L92.6012 23.6332L92.8327 20.6277L90.8386 20.4741ZM90.6071 23.4796L88.613 23.326C88.4521 25.4135 88.4236 27.4991 88.5275 29.5822L90.525 29.4826L92.5225 29.383C92.4271 27.4694 92.4533 25.553 92.6012 23.6332L90.6071 23.4796ZM90.525 29.4826L88.5275 29.5822L88.677 32.5797L90.6745 32.4801L92.672 32.3805L92.5225 29.383L90.525 29.4826ZM90.6745 32.4801L88.677 32.5797L88.8264 35.5773L90.824 35.4777L92.8215 35.3781L92.672 32.3805L90.6745 32.4801ZM90.824 35.4777L88.8264 35.5773C88.924 37.5346 88.9613 39.4932 88.9383 41.4531L90.9382 41.4766L92.938 41.5001C92.962 39.4581 92.9232 37.4174 92.8215 35.3781L90.824 35.4777ZM90.9382 41.4766L88.9383 41.4531L88.903 44.4545L90.9029 44.478L92.9028 44.5015L92.938 41.5001L90.9382 41.4766ZM90.9029 44.478L88.903 44.4545L88.8678 47.4559L90.8676 47.4794L92.8675 47.5029L92.9028 44.5015L90.9029 44.478ZM90.8676 47.4794L88.8678 47.4559C88.844 49.4775 88.8517 51.4985 88.8908 53.5189L90.8904 53.4802L92.89 53.4415C92.8517 51.4626 92.8442 49.4831 92.8675 47.5029L90.8676 47.4794ZM90.8904 53.4802L88.8908 53.5189L88.9488 56.5184L90.9485 56.4797L92.9481 56.4409L92.89 53.4415L90.8904 53.4802ZM90.9485 56.4797L88.9488 56.5184L89.0069 59.5178L91.0065 59.4791L93.0062 59.4404L92.9481 56.4409L90.9485 56.4797ZM91.0065 59.4791L89.0069 59.5178C89.0457 61.5202 89.0886 63.5226 89.1358 65.5248L91.1352 65.4777L93.1347 65.4306C93.0876 63.434 93.0448 61.4372 93.0062 59.4404L91.0065 59.4791ZM91.1352 65.4777L89.1358 65.5248L89.2064 68.524L91.2058 68.4769L93.2053 68.4298L93.1347 65.4306L91.1352 65.4777ZM91.2058 68.4769L89.2064 68.524L89.277 71.5232L91.2764 71.4761L93.2759 71.429L93.2053 68.4298L91.2058 68.4769ZM91.2764 71.4761L89.277 71.5232C89.3246 73.5462 89.408 75.5684 89.5272 77.5899L91.5238 77.4722L93.5203 77.3545C93.4039 75.38 93.3224 73.4049 93.2759 71.429L91.2764 71.4761ZM91.5238 77.4722L89.5272 77.5899L89.7039 80.5869L91.7005 80.4692L93.697 80.3515L93.5203 77.3545L91.5238 77.4722ZM91.7005 80.4692L89.7039 80.5869L89.8806 83.5839L91.8771 83.4661L93.8737 83.3484L93.697 80.3515L91.7005 80.4692ZM91.8771 83.4661L89.8806 83.5839C89.9977 85.5693 90.096 87.5552 90.1757 89.5414L92.1741 89.4612L94.1725 89.3811C94.0918 87.3698 93.9922 85.3589 93.8737 83.3484L91.8771 83.4661ZM92.1741 89.4612L90.1757 89.5414L90.2959 92.5395L92.2943 92.4594L94.2927 92.3793L94.1725 89.3811L92.1741 89.4612ZM92.2943 92.4594L90.2959 92.5395L90.4161 95.5377L92.4145 95.4575L94.4129 95.3774L94.2927 92.3793L92.2943 92.4594ZM92.4145 95.4575L90.4161 95.5377C90.4944 97.4908 90.5059 99.4454 90.4504 101.401L92.4496 101.458L94.4488 101.515C94.5068 99.4676 94.4949 97.4218 94.4129 95.3774L92.4145 95.4575ZM92.4496 101.458L90.4504 101.401L90.3654 104.404L92.3646 104.461L94.3638 104.517L94.4488 101.515L92.4496 101.458ZM92.3646 104.461L90.3654 104.404L90.2803 107.406L92.2795 107.463L94.2787 107.52L94.3638 104.517L92.3646 104.461ZM92.2795 107.463L90.2803 107.406C90.2214 109.486 90.2836 111.563 90.4668 113.637L92.459 113.461L94.4513 113.285C94.2817 111.365 94.2242 109.444 94.2787 107.52L92.2795 107.463ZM92.459 113.461L90.4668 113.637L90.7314 116.632L92.7236 116.456L94.7159 116.28L94.4513 113.285L92.459 113.461ZM92.7236 116.456L90.7314 116.632L90.996 119.627L92.9883 119.451L94.9805 119.275L94.7159 116.28L92.7236 116.456ZM92.9883 119.451L90.996 119.627C91.1663 121.555 91.2364 123.485 91.2062 125.416L93.206 125.448L95.2058 125.479C95.2381 123.408 95.163 121.34 94.9805 119.275L92.9883 119.451ZM93.206 125.448L91.2062 125.416L91.1594 128.418L93.1591 128.449L95.1589 128.48L95.2058 125.479L93.206 125.448ZM93.1591 128.449L91.1594 128.418L91.1125 131.42L93.1123 131.451L95.112 131.482L95.1589 128.48L93.1591 128.449ZM93.1123 131.451L91.1125 131.42C91.0803 133.483 91.1437 135.544 91.3028 137.602L93.2968 137.448L95.2909 137.294C95.1414 135.359 95.0817 133.421 95.112 131.482L93.1123 131.451ZM93.2968 137.448L91.3028 137.602L91.5342 140.598L93.5283 140.444L95.5223 140.29L95.2909 137.294L93.2968 137.448ZM93.5283 140.444L91.5342 140.598L91.7657 143.594L93.7597 143.44L95.7538 143.286L95.5223 140.29L93.5283 140.444ZM93.7597 143.44L91.7657 143.594C91.9143 145.519 91.9577 147.445 91.8956 149.374L93.8946 149.438L95.8935 149.503C95.9603 147.428 95.9137 145.356 95.7538 143.286L93.7597 143.44ZM93.8946 149.438L91.8956 149.374L91.799 152.377L93.798 152.441L95.7969 152.505L95.8935 149.503L93.8946 149.438ZM93.798 152.441L91.799 152.377L91.7024 155.379L93.7013 155.444L95.7003 155.508L95.7969 152.505L93.798 152.441ZM93.7013 155.444L91.7024 155.379C91.6357 157.451 91.6778 159.521 91.8286 161.588L93.8233 161.443L95.818 161.297C95.6774 159.369 95.6382 157.44 95.7003 155.508L93.7013 155.444ZM93.8233 161.443L91.8286 161.588L92.0472 164.584L94.0419 164.439L96.0366 164.293L95.818 161.297L93.8233 161.443ZM94.0419 164.439L92.0472 164.584L92.2658 167.58L94.2605 167.435L96.2552 167.289L96.0366 164.293L94.0419 164.439ZM94.2605 167.435L92.2658 167.58C92.403 169.461 92.3617 171.187 92.1531 172.765L94.1359 173.027L96.1186 173.289C96.3676 171.405 96.4094 169.403 96.2552 167.289L94.2605 167.435ZM94.1359 173.027L92.1531 172.765L91.8099 175.361L93.7927 175.623L95.7755 175.886L96.1186 173.289L94.1359 173.027ZM93.7927 175.623L91.8099 175.361L91.4668 177.958L93.4495 178.22L95.4323 178.482L95.7755 175.886L93.7927 175.623ZM93.4495 178.22L91.4668 177.958C91.4041 178.432 91.2611 178.569 91.1938 178.623C91.0911 178.705 90.7915 178.873 90.0562 178.891L90.1058 180.891L90.1554 182.89C91.4204 182.859 92.6783 182.557 93.6902 181.748C94.7375 180.912 95.2662 179.738 95.4323 178.482L93.4495 178.22ZM90.1058 180.891L90.0562 178.891L87.0556 178.966L87.1052 180.965L87.1549 182.964L90.1554 182.89L90.1058 180.891ZM87.1052 180.965L87.0556 178.966L84.0551 179.04L84.1047 181.04L84.1543 183.039L87.1549 182.964L87.1052 180.965ZM84.1047 181.04L84.0551 179.04C82.089 179.089 80.1234 179.087 78.158 179.035L78.1046 181.034L78.0512 183.033C80.0852 183.087 82.1196 183.089 84.1543 183.039L84.1047 181.04ZM78.1046 181.034L78.158 179.035L75.1585 178.954L75.1051 180.954L75.0516 182.953L78.0512 183.033L78.1046 181.034ZM75.1051 180.954L75.1585 178.954L72.159 178.874L72.1055 180.873L72.0521 182.873L75.0516 182.953L75.1051 180.954ZM72.1055 180.873L72.159 178.874C70.0873 178.819 68.0151 178.875 65.9427 179.043L66.1043 181.037L66.2659 183.03C68.1957 182.874 70.1244 182.821 72.0521 182.873L72.1055 180.873ZM66.1043 181.037L65.9427 179.043L62.9411 179.286L63.1026 181.28L63.2642 183.273L66.2659 183.03L66.1043 181.037ZM63.1026 181.28L62.9411 179.286L59.9394 179.53L60.101 181.523L60.2625 183.517L63.2642 183.273L63.1026 181.28ZM60.101 181.523L59.9394 179.53C58.0713 179.681 56.205 179.646 54.3384 179.423L54.1016 181.409L53.8648 183.395C55.9952 183.649 58.1284 183.69 60.2625 183.517L60.101 181.523ZM54.1016 181.409L54.3384 179.423L51.3407 179.066L51.1039 181.052L50.8671 183.038L53.8648 183.395L54.1016 181.409ZM51.1039 181.052L51.3407 179.066L48.3429 178.708L48.1062 180.694L47.8694 182.68L50.8671 183.038L51.1039 181.052ZM48.1062 180.694L48.3429 178.708C46.188 178.451 44.0301 178.45 41.8725 178.704L42.1061 180.69L42.3397 182.676C44.1852 182.459 46.0274 182.461 47.8694 182.68L48.1062 180.694ZM42.1061 180.69L41.8725 178.704L38.8701 179.057L39.1037 181.043L39.3373 183.029L42.3397 182.676L42.1061 180.69ZM39.1037 181.043L38.8701 179.057L35.8677 179.41L36.1013 181.396L36.3349 183.382L39.3373 183.029L39.1037 181.043ZM36.1013 181.396L35.8677 179.41C34.8955 179.524 34.1168 179.59 33.519 179.613C32.8879 179.638 32.5735 179.61 32.471 179.59L32.0895 181.553L31.7079 183.516C32.2784 183.627 32.9691 183.638 33.6753 183.61C34.4148 183.581 35.3054 183.504 36.3349 183.382L36.1013 181.396ZM32.0895 181.553L32.471 179.59L31.4616 179.394L31.0801 181.357L30.6985 183.32L31.7079 183.516L32.0895 181.553ZM31.0801 181.357L31.4616 179.394L30.4522 179.197L30.0706 181.161L29.6891 183.124L30.6985 183.32L31.0801 181.357ZM30.0706 181.161L30.4522 179.197C30.7957 179.264 31.0366 179.452 31.1627 179.602C31.2648 179.724 31.2638 179.785 31.2288 179.672C31.1545 179.432 31.0744 178.907 31.0803 177.977L29.0804 177.964L27.0804 177.952C27.0736 179.022 27.1522 180.03 27.408 180.855C27.6456 181.623 28.2492 182.844 29.6891 183.124L30.0706 181.161ZM29.0804 177.964L31.0803 177.977L31.0995 174.977L29.0995 174.964L27.0996 174.952L27.0804 177.952L29.0804 177.964Z" fill="var(--stroke-0, black)"/>
</svg>
