<svg preserveAspectRatio="none" width="100%" height="100%" overflow="visible" style="display: block;" viewBox="0 0 54 30" fill="none" xmlns="http://www.w3.org/2000/svg">
<path id="Vector 4" d="M2 12.7279C0.895431 12.7279 0 13.6234 0 14.7279C0 15.8325 0.895431 16.7279 2 16.7279V14.7279V12.7279ZM2.1 14.7279V16.7279H2.14808L2.19611 16.7256L2.1 14.7279ZM17 14.3063L17.1005 12.3088L17 14.3063ZM20 14.4571L19.8995 16.4546L20 14.4571ZM23 14.608L23.1005 12.6105L23 14.608ZM47 14.8177L46.8707 16.8135L47 14.8177ZM50.5 14.941L50.7812 16.9211L50.5 14.941ZM51 14.87L51.2812 16.8501L51.2965 16.8479L51.3118 16.8455L51 14.87ZM51.9 14.7279V12.7279H51.7432L51.5882 12.7524L51.9 14.7279ZM53.4142 16.1421C54.1953 15.3611 54.1953 14.0948 53.4142 13.3137L40.6863 0.585787C39.9052 -0.195262 38.6389 -0.195262 37.8579 0.585787C37.0768 1.36684 37.0768 2.63317 37.8579 3.41421L49.1716 14.7279L37.8579 26.0416C37.0768 26.8227 37.0768 28.089 37.8579 28.8701C38.6389 29.6511 39.9052 29.6511 40.6863 28.8701L53.4142 16.1421ZM2 14.7279V16.7279H2.1V14.7279V12.7279H2V14.7279ZM2.1 14.7279L2.19611 16.7256L8.14611 16.4393L8.05 14.4417L7.95389 12.444L2.00389 12.7302L2.1 14.7279ZM8.05 14.4417L8.14611 16.4393C12.0977 16.2492 15.0011 16.2083 16.8995 16.3037L17 14.3063L17.1005 12.3088C14.9989 12.2031 11.9357 12.2524 7.95389 12.444L8.05 14.4417ZM17 14.3063L16.8995 16.3037L19.8995 16.4546L20 14.4571L20.1005 12.4597L17.1005 12.3088L17 14.3063ZM20 14.4571L19.8995 16.4546L22.8995 16.6055L23 14.608L23.1005 12.6105L20.1005 12.4597L20 14.4571ZM23 14.608L22.8995 16.6055C24.9621 16.7092 27.0247 16.716 29.0873 16.6259L29 14.6278L28.9127 12.6298C26.9753 12.7144 25.0379 12.708 23.1005 12.6105L23 14.608ZM29 14.6278L29.0873 16.6259L32.0873 16.4949L32 14.4968L31.9127 12.4987L28.9127 12.6298L29 14.6278ZM32 14.4968L32.0873 16.4949L35.0873 16.3638L35 14.3657L34.9127 12.3676L31.9127 12.4987L32 14.4968ZM35 14.3657L35.0873 16.3638C37.015 16.2796 38.9427 16.2999 40.8707 16.4248L41 14.429L41.1293 12.4332C39.0573 12.299 36.985 12.2771 34.9127 12.3676L35 14.3657ZM41 14.429L40.8707 16.4248L43.8707 16.6192L44 14.6233L44.1293 12.6275L41.1293 12.4332L41 14.429ZM44 14.6233L43.8707 16.6192L46.8707 16.8135L47 14.8177L47.1293 12.8218L44.1293 12.6275L44 14.6233ZM47 14.8177L46.8707 16.8135C47.8786 16.8788 48.6926 16.9229 49.3046 16.9444C49.839 16.9632 50.4046 16.9746 50.7812 16.9211L50.5 14.941L50.2188 12.9608C50.2621 12.9547 50.0777 12.9692 49.4454 12.9469C48.8907 12.9273 48.1214 12.8861 47.1293 12.8218L47 14.8177ZM50.5 14.941L50.7812 16.9211L51.2812 16.8501L51 14.87L50.7188 12.8898L50.2188 12.9608L50.5 14.941ZM51 14.87L51.3118 16.8455L52.2118 16.7035L51.9 14.7279L51.5882 12.7524L50.6882 12.8944L51 14.87ZM51.9 14.7279V16.7279H52V14.7279V12.7279H51.9V14.7279Z" fill="var(--stroke-0, black)"/>
</svg>
