<svg preserveAspectRatio="none" width="100%" height="100%" overflow="visible" style="display: block;" viewBox="0 0 126 73" fill="none" xmlns="http://www.w3.org/2000/svg">
<path id="Vector 6" d="M0.910169 26.9884L1.72911 28.8131L1.77297 28.7934L1.81584 28.7716L0.910169 26.9884ZM14.3311 20.5027L13.6049 18.6392L14.3311 20.5027ZM17.1299 19.4119L17.8562 21.2754L17.1299 19.4119ZM19.9287 18.3212L19.2024 16.4577L19.9287 18.3212ZM36.2772 10.7874L35.5779 8.91364L36.2772 10.7874ZM39.0937 9.73629L38.3945 7.86252L39.0937 9.73629ZM47.3545 6.16221L46.3772 4.41729L47.3545 6.16221ZM52.61 3.21852L53.5873 4.96344L52.61 3.21852ZM60.6923 2.66585L60.36 4.63804L60.6923 2.66585ZM61.5965 5.8323L59.6914 5.22346L61.5965 5.8323ZM60.6824 8.69237L62.5875 9.30122L60.6824 8.69237ZM59.7683 11.5524L57.8633 10.9436L59.7683 11.5524ZM57.6297 17.1589L59.4563 17.9734L57.6297 17.1589ZM55.1805 22.6518L53.3539 21.8373L55.1805 22.6518ZM52.8936 28.2041L54.764 28.9122L52.8936 28.2041ZM50.769 33.8157L48.8985 33.1075L50.769 33.8157ZM48.6758 39.4388L46.7976 38.7516L48.6758 39.4388ZM46.6141 45.0735L48.4923 45.7607L46.6141 45.0735ZM44.7138 50.7672L42.7994 50.1886L44.7138 50.7672ZM41.2814 62.1481L43.1973 62.722L41.2814 62.1481ZM40.4572 64.8996L38.5413 64.3257L40.4572 64.8996ZM41.5963 70.3677L41.5711 68.3678L41.5963 70.3677ZM47.1716 70.2975L47.1967 72.2974L47.1716 70.2975ZM52.9114 69.6779L52.5229 67.716L52.9114 69.6779ZM55.8636 69.0933L56.2521 71.0552L55.8636 69.0933ZM58.8158 68.5087L58.4273 66.5468L58.8158 68.5087ZM64.7573 67.6577L64.9348 69.6498L64.7573 67.6577ZM70.7358 67.1249L70.5582 65.1328L70.7358 67.1249ZM76.7351 66.7711L76.6771 64.772L76.7351 66.7711ZM79.7452 66.6838L79.6872 64.6846L79.7452 66.6838ZM82.7553 66.5964L82.8133 68.5956L82.7553 66.5964ZM88.7333 66.0594L89.0329 68.0368L88.7333 66.0594ZM91.7012 65.6097L91.4016 63.6322L91.7012 65.6097ZM94.6691 65.16L94.9687 67.1374L94.6691 65.16ZM100.61 64.301L100.882 66.2823L100.61 64.301ZM106.555 63.4824L106.282 61.5011L106.555 63.4824ZM109.904 60.2373L107.921 59.9744L109.904 60.2373ZM110.656 54.5657L108.673 54.3028L110.656 54.5657ZM110.853 48.7299L108.856 48.849L110.853 48.7299ZM110.674 45.7299L112.67 45.6108L110.674 45.7299ZM110.495 42.7299L108.498 42.849L110.495 42.7299ZM110.397 38.6557L108.403 38.5047L110.397 38.6557ZM110.479 37.5816L108.485 37.4232L108.484 37.4305L110.479 37.5816ZM110.641 35.5332L112.635 35.6916L112.641 35.6125V35.5332H110.641ZM112.055 34.019C111.274 33.238 110.008 33.238 109.227 34.019L96.4991 46.7469C95.718 47.528 95.718 48.7943 96.4991 49.5753C97.2801 50.3564 98.5464 50.3564 99.3275 49.5753L110.641 38.2616L121.955 49.5753C122.736 50.3564 124.002 50.3564 124.783 49.5753C125.564 48.7943 125.564 47.528 124.783 46.7469L112.055 34.019ZM0.818937 27.0294L1.63787 28.854L1.72911 28.8131L0.910169 26.9884L0.0912324 25.1638L-1.29452e-08 25.2047L0.818937 27.0294ZM0.910169 26.9884L1.81584 28.7716L7.12696 26.0741L6.22128 24.2909L5.31561 22.5077L0.0044938 25.2052L0.910169 26.9884ZM6.22128 24.2909L7.12696 26.0741C10.6542 24.2826 13.2863 23.0564 15.0574 22.3661L14.3311 20.5027L13.6049 18.6392C11.6443 19.4033 8.86985 20.7025 5.31561 22.5077L6.22128 24.2909ZM14.3311 20.5027L15.0574 22.3661L17.8562 21.2754L17.1299 19.4119L16.4036 17.5484L13.6049 18.6392L14.3311 20.5027ZM17.1299 19.4119L17.8562 21.2754L20.6549 20.1846L19.9287 18.3212L19.2024 16.4577L16.4036 17.5484L17.1299 19.4119ZM19.9287 18.3212L20.6549 20.1846C22.5791 19.4347 24.4637 18.5964 26.3085 17.6696L25.4107 15.8824L24.5129 14.0953C22.78 14.9658 21.0099 15.7532 19.2024 16.4577L19.9287 18.3212ZM25.4107 15.8824L26.3085 17.6696L28.9918 16.3216L28.094 14.5345L27.1962 12.7473L24.5129 14.0953L25.4107 15.8824ZM28.094 14.5345L28.9918 16.3216L31.6751 14.9737L30.7773 13.1865L29.8796 11.3993L27.1962 12.7473L28.094 14.5345ZM30.7773 13.1865L31.6751 14.9737C33.3994 14.1075 35.1664 13.3367 36.9765 12.6612L36.2772 10.7874L35.5779 8.91364C33.6326 9.63962 31.7331 10.4682 29.8796 11.3993L30.7773 13.1865ZM36.2772 10.7874L36.9765 12.6612L39.793 11.6101L39.0937 9.73629L38.3945 7.86252L35.5779 8.91364L36.2772 10.7874ZM39.0937 9.73629L39.793 11.6101L42.6096 10.5589L41.9103 8.68517L41.211 6.8114L38.3945 7.86252L39.0937 9.73629ZM41.9103 8.68517L42.6096 10.5589C44.5833 9.82235 46.491 8.93826 48.3319 7.90713L47.3545 6.16221L46.3772 4.41729C44.7145 5.34861 42.9927 6.14649 41.211 6.8114L41.9103 8.68517ZM47.3545 6.16221L48.3319 7.90713L50.9596 6.43529L49.9822 4.69037L49.0049 2.94545L46.3772 4.41729L47.3545 6.16221ZM49.9822 4.69037L50.9596 6.43529L53.5873 4.96344L52.61 3.21852L51.6326 1.4736L49.0049 2.94545L49.9822 4.69037ZM52.61 3.21852L53.5873 4.96344C55.1746 4.07439 56.1683 3.9317 56.7235 4.02527L57.0559 2.05307L57.3882 0.080876C55.5192 -0.234078 53.549 0.400203 51.6326 1.4736L52.61 3.21852ZM57.0559 2.05307L56.7235 4.02527L58.5418 4.33165L58.8741 2.35946L59.2064 0.387265L57.3882 0.080876L57.0559 2.05307ZM58.8741 2.35946L58.5418 4.33165L60.36 4.63804L60.6923 2.66585L61.0246 0.693653L59.2064 0.387265L58.8741 2.35946ZM60.6923 2.66585L60.36 4.63804C60.4001 4.6448 60.2935 4.6343 60.1512 4.51585C59.9964 4.38705 59.9262 4.23631 59.9043 4.15979C59.8894 4.10765 59.9144 4.15375 59.8934 4.35505C59.873 4.55133 59.8152 4.83599 59.6914 5.22346L61.5965 5.8323L63.5015 6.44115C63.8409 5.37922 64.067 4.16977 63.7506 3.06152C63.578 2.45726 63.2432 1.88518 62.7101 1.44144C62.1894 1.00806 61.5906 0.789024 61.0246 0.693653L60.6923 2.66585ZM61.5965 5.8323L59.6914 5.22346L58.7773 8.08353L60.6824 8.69237L62.5875 9.30122L63.5015 6.44115L61.5965 5.8323ZM60.6824 8.69237L58.7773 8.08353L57.8633 10.9436L59.7683 11.5524L61.6734 12.1613L62.5875 9.30122L60.6824 8.69237ZM59.7683 11.5524L57.8633 10.9436C57.2763 12.7803 56.5896 14.5805 55.8031 16.3445L57.6297 17.1589L59.4563 17.9734C60.3026 16.0755 61.0417 14.138 61.6734 12.1613L59.7683 11.5524ZM57.6297 17.1589L55.8031 16.3445L54.5785 19.0909L56.4051 19.9054L58.2317 20.7198L59.4563 17.9734L57.6297 17.1589ZM56.4051 19.9054L54.5785 19.0909L53.3539 21.8373L55.1805 22.6518L57.0072 23.4663L58.2317 20.7198L56.4051 19.9054ZM55.1805 22.6518L53.3539 21.8373C52.5219 23.7032 51.745 25.5894 51.0232 27.4959L52.8936 28.2041L54.764 28.9122C55.4586 27.0776 56.2063 25.2623 57.0072 23.4663L55.1805 22.6518ZM52.8936 28.2041L51.0232 27.4959L49.9609 30.3017L51.8313 31.0099L53.7017 31.718L54.764 28.9122L52.8936 28.2041ZM51.8313 31.0099L49.9609 30.3017L48.8985 33.1075L50.769 33.8157L52.6394 34.5239L53.7017 31.718L51.8313 31.0099ZM50.769 33.8157L48.8985 33.1075C48.1877 34.985 47.4874 36.8664 46.7976 38.7516L48.6758 39.4388L50.554 40.1261C51.2387 38.2548 51.9338 36.3874 52.6394 34.5239L50.769 33.8157ZM48.6758 39.4388L46.7976 38.7516L45.7667 41.5689L47.6449 42.2562L49.5232 42.9434L50.554 40.1261L48.6758 39.4388ZM47.6449 42.2562L45.7667 41.5689L44.7359 44.3862L46.6141 45.0735L48.4923 45.7607L49.5232 42.9434L47.6449 42.2562ZM46.6141 45.0735L44.7359 44.3862C44.0355 46.3004 43.39 48.2345 42.7994 50.1886L44.7138 50.7672L46.6283 51.3459C47.1969 49.4647 47.8182 47.603 48.4923 45.7607L46.6141 45.0735ZM44.7138 50.7672L42.7994 50.1886L41.93 53.065L43.8445 53.6437L45.7589 54.2223L46.6283 51.3459L44.7138 50.7672ZM43.8445 53.6437L41.93 53.065L41.0606 55.9414L42.9751 56.5201L44.8896 57.0987L45.7589 54.2223L43.8445 53.6437ZM42.9751 56.5201L41.0606 55.9414C40.4806 57.8605 39.9156 59.7381 39.3656 61.5741L41.2814 62.1481L43.1973 62.722C43.7464 60.8892 44.3104 59.0148 44.8896 57.0987L42.9751 56.5201ZM41.2814 62.1481L39.3656 61.5741L38.5413 64.3257L40.4572 64.8996L42.373 65.4736L43.1973 62.722L41.2814 62.1481ZM40.4572 64.8996L38.5413 64.3257L37.717 67.0772L39.6329 67.6512L41.5488 68.2251L42.373 65.4736L40.4572 64.8996ZM39.6329 67.6512L37.717 67.0772C37.388 68.1757 37.204 69.651 38.0906 70.8776C38.9968 72.1314 40.4745 72.3819 41.6214 72.3675L41.5963 70.3677L41.5711 68.3678C41.419 68.3697 41.3043 68.3617 41.2216 68.3506C41.1386 68.3395 41.0985 68.3267 41.0906 68.3239C41.0839 68.3216 41.1149 68.3316 41.1655 68.3672C41.2185 68.4046 41.2788 68.4602 41.3325 68.5345C41.386 68.6085 41.4167 68.6785 41.4326 68.7296C41.4476 68.778 41.4459 68.7979 41.445 68.7763C41.4442 68.7538 41.4448 68.6979 41.4596 68.6021C41.4744 68.5067 41.5018 68.382 41.5488 68.2251L39.6329 67.6512ZM41.5963 70.3677L41.6214 72.3675L44.4091 72.3324L44.3839 70.3326L44.3588 68.3328L41.5711 68.3678L41.5963 70.3677ZM44.3839 70.3326L44.4091 72.3324L47.1967 72.2974L47.1716 70.2975L47.1464 68.2977L44.3588 68.3328L44.3839 70.3326ZM47.1716 70.2975L47.1967 72.2974C49.1864 72.2723 51.2215 72.0514 53.2999 71.6398L52.9114 69.6779L52.5229 67.716C50.6651 68.0839 48.8736 68.276 47.1464 68.2977L47.1716 70.2975ZM52.9114 69.6779L53.2999 71.6398L56.2521 71.0552L55.8636 69.0933L55.4751 67.1314L52.5229 67.716L52.9114 69.6779ZM55.8636 69.0933L56.2521 71.0552L59.2043 70.4706L58.8158 68.5087L58.4273 66.5468L55.4751 67.1314L55.8636 69.0933ZM58.8158 68.5087L59.2043 70.4706C61.1029 70.0946 63.013 69.8211 64.9348 69.6498L64.7573 67.6577L64.5797 65.6656C62.5159 65.8495 60.465 66.1433 58.4273 66.5468L58.8158 68.5087ZM64.7573 67.6577L64.9348 69.6498L67.924 69.3834L67.7465 67.3913L67.569 65.3992L64.5797 65.6656L64.7573 67.6577ZM67.7465 67.3913L67.924 69.3834L70.9133 69.117L70.7358 67.1249L70.5582 65.1328L67.569 65.3992L67.7465 67.3913ZM70.7358 67.1249L70.9133 69.117C72.8662 68.9429 74.8262 68.8274 76.7931 68.7703L76.7351 66.7711L76.6771 64.772C74.6306 64.8314 72.5909 64.9516 70.5582 65.1328L70.7358 67.1249ZM76.7351 66.7711L76.7931 68.7703L79.8032 68.6829L79.7452 66.6838L79.6872 64.6846L76.6771 64.772L76.7351 66.7711ZM79.7452 66.6838L79.8032 68.6829L82.8133 68.5956L82.7553 66.5964L82.6973 64.5972L79.6872 64.6846L79.7452 66.6838ZM82.7553 66.5964L82.8133 68.5956C84.9007 68.535 86.974 68.3487 89.0329 68.0368L88.7333 66.0594L88.4337 64.0819C86.5354 64.3695 84.6234 64.5413 82.6973 64.5972L82.7553 66.5964ZM88.7333 66.0594L89.0329 68.0368L92.0008 67.5871L91.7012 65.6097L91.4016 63.6322L88.4337 64.0819L88.7333 66.0594ZM91.7012 65.6097L92.0008 67.5871L94.9687 67.1374L94.6691 65.16L94.3695 63.1826L91.4016 63.6322L91.7012 65.6097ZM94.6691 65.16L94.9687 67.1374C96.9384 66.839 98.9096 66.554 100.882 66.2823L100.61 64.301L100.337 62.3197C98.3461 62.5938 96.357 62.8814 94.3695 63.1826L94.6691 65.16ZM100.61 64.301L100.882 66.2823L103.855 65.873L103.582 63.8917L103.309 61.9104L100.337 62.3197L100.61 64.301ZM103.582 63.8917L103.855 65.873L106.828 65.4637L106.555 63.4824L106.282 61.5011L103.309 61.9104L103.582 63.8917ZM106.555 63.4824L106.828 65.4637C108.119 65.286 109.329 64.8148 110.27 63.9027C111.22 62.9824 111.715 61.7878 111.886 60.5002L109.904 60.2373L107.921 59.9744C107.841 60.5773 107.653 60.8689 107.486 61.0302C107.311 61.1999 106.973 61.406 106.282 61.5011L106.555 63.4824ZM109.904 60.2373L111.886 60.5002L112.262 57.6644L110.28 57.4015L108.297 57.1386L107.921 59.9744L109.904 60.2373ZM110.28 57.4015L112.262 57.6644L112.638 54.8286L110.656 54.5657L108.673 54.3028L108.297 57.1386L110.28 57.4015ZM110.656 54.5657L112.638 54.8286C112.907 52.8053 112.976 50.7319 112.849 48.6108L110.853 48.7299L108.856 48.849C108.968 50.7279 108.906 52.5451 108.673 54.3028L110.656 54.5657ZM110.853 48.7299L112.849 48.6108L112.67 45.6108L110.674 45.7299L108.677 45.849L108.856 48.849L110.853 48.7299ZM110.674 45.7299L112.67 45.6108L112.491 42.6108L110.495 42.7299L108.498 42.849L108.677 45.849L110.674 45.7299ZM110.495 42.7299L112.491 42.6108C112.371 40.5954 112.349 39.3679 112.391 38.8067L110.397 38.6557L108.403 38.5047C108.337 39.3758 108.38 40.8644 108.498 42.849L110.495 42.7299ZM110.397 38.6557L112.391 38.8067L112.473 37.7326L110.479 37.5816L108.484 37.4305L108.403 38.5047L110.397 38.6557ZM110.479 37.5816L112.472 37.7399L112.635 35.6916L110.641 35.5332L108.647 35.3749L108.485 37.4232L110.479 37.5816ZM110.641 35.5332H112.641V35.4332H110.641H108.641V35.5332H110.641Z" fill="var(--stroke-0, black)"/>
</svg>
