<svg preserveAspectRatio="none" width="100%" height="100%" overflow="visible" style="display: block;" viewBox="0 0 118 85" fill="none" xmlns="http://www.w3.org/2000/svg">
<path id="Vector 5" d="M47.0233 83.9144C47.8043 84.6955 49.0707 84.6955 49.8517 83.9144L62.5796 71.1865C63.3607 70.4055 63.3607 69.1391 62.5796 68.3581C61.7986 67.577 60.5323 67.577 59.7512 68.3581L48.4375 79.6718L37.1238 68.3581C36.3428 67.577 35.0764 67.577 34.2954 68.3581C33.5143 69.1391 33.5143 70.4055 34.2954 71.1865L47.0233 83.9144ZM48.4375 82.4002L46.4415 82.2738L46.4375 82.337V82.4002H48.4375ZM48.8143 76.4502L46.8183 76.3238L48.8143 76.4502ZM49.1031 67.5491L51.1022 67.4895L49.1031 67.5491ZM48.9271 61.6468L46.928 61.7064L48.9271 61.6468ZM51.6577 57.7656L51.031 55.8663L51.6577 57.7656ZM57.2949 55.9053L56.6681 54.0061L57.2949 55.9053ZM62.9487 53.9948L63.6023 55.8849L62.9487 53.9948ZM65.7839 53.0143L66.4376 54.9045L65.7839 53.0143ZM68.6192 52.0338L67.9655 50.1437L68.6192 52.0338ZM74.2643 49.9994L73.5619 48.1268L74.2643 49.9994ZM91.2713 44.1033L91.8787 46.0089L91.2713 44.1033ZM96.8776 41.9561L97.6981 43.78L96.8776 41.9561ZM102.372 39.4843L101.551 37.6604L102.372 39.4843ZM107.974 37.3245L107.358 35.4216L107.974 37.3245ZM113.683 35.4765L114.299 37.3793L113.683 35.4765ZM110.415 32.397L111.08 30.5105L110.415 32.397ZM105.436 31.0643L105.845 29.1066L105.436 31.0643ZM99.5581 29.8362L99.149 31.7939L99.5581 29.8362ZM93.6714 28.6618L94.0448 26.697L93.6714 28.6618ZM75.8271 26.2317L75.6611 28.2248L75.8271 26.2317ZM69.8621 25.5216L69.5552 27.4979L69.8621 25.5216ZM63.9326 24.601L63.6258 26.5773L63.9326 24.601ZM46.4133 20.2436L46.759 18.2737L46.4133 20.2436ZM43.4584 19.725L43.1127 21.6949L43.4584 19.725ZM40.5035 19.2064L40.1578 21.1763L40.5035 19.2064ZM34.5546 18.4009L34.3638 20.3917L34.5546 18.4009ZM28.5667 17.827L28.3759 19.8179L28.5667 17.827ZM16.697 16.0497L16.3658 18.0221L16.697 16.0497ZM7.78868 14.7522L7.52192 16.7343L7.78868 14.7522ZM2.62357 3.06336L0.705448 2.49697L2.62357 3.06336ZM2.72822 2.70898L0.848658 2.02541L0.827569 2.0834L0.810094 2.14258L2.72822 2.70898ZM2.9499 2.09944L4.82945 2.78301L4.99421 2.32999L4.93449 1.85166L2.9499 2.09944ZM4.9221 1.75243C4.78525 0.656369 3.78578 -0.121228 2.68973 0.0156186C1.59367 0.152465 0.816069 1.15193 0.952916 2.24799L2.93751 2.00021L4.9221 1.75243ZM48.4375 82.5002H50.4375V82.4002H48.4375H46.4375V82.5002H48.4375ZM48.4375 82.4002L50.4335 82.5266L50.8103 76.5766L48.8143 76.4502L46.8183 76.3238L46.4415 82.2738L48.4375 82.4002ZM48.8143 76.4502L50.8103 76.5766C51.0623 72.597 51.1637 69.5538 51.1022 67.4895L49.1031 67.5491L47.104 67.6087C47.1597 69.4792 47.0686 72.3701 46.8183 76.3238L48.8143 76.4502ZM49.1031 67.5491L51.1022 67.4895L51.0142 64.5384L49.0151 64.598L47.016 64.6576L47.104 67.6087L49.1031 67.5491ZM49.0151 64.598L51.0142 64.5384L50.9262 61.5872L48.9271 61.6468L46.928 61.7064L47.016 64.6576L49.0151 64.598ZM48.9271 61.6468L50.9262 61.5872C50.9066 60.9284 51.0506 60.5663 51.2015 60.3518C51.3532 60.1362 51.6492 59.8745 52.2845 59.6648L51.6577 57.7656L51.031 55.8663C49.7872 56.2768 48.6886 56.972 47.93 58.0501C47.1708 59.1294 46.889 60.3979 46.928 61.7064L48.9271 61.6468ZM51.6577 57.7656L52.2845 59.6648L55.103 58.7347L54.4763 56.8355L53.8495 54.9362L51.031 55.8663L51.6577 57.7656ZM54.4763 56.8355L55.103 58.7347L57.9216 57.8046L57.2949 55.9053L56.6681 54.0061L53.8495 54.9362L54.4763 56.8355ZM57.2949 55.9053L57.9216 57.8046C59.8097 57.1815 61.7033 56.5416 63.6023 55.8849L62.9487 53.9948L62.295 52.1046C60.4137 52.7552 58.5381 53.389 56.6681 54.0061L57.2949 55.9053ZM62.9487 53.9948L63.6023 55.8849L66.4376 54.9045L65.7839 53.0143L65.1303 51.1241L62.295 52.1046L62.9487 53.9948ZM65.7839 53.0143L66.4376 54.9045L69.2728 53.924L68.6192 52.0338L67.9655 50.1437L65.1303 51.1241L65.7839 53.0143ZM68.6192 52.0338L69.2728 53.924C71.1793 53.2647 73.0773 52.5807 74.9668 51.872L74.2643 49.9994L73.5619 48.1268C71.7048 48.8234 69.8394 49.4957 67.9655 50.1437L68.6192 52.0338ZM74.2643 49.9994L74.9668 51.872L77.7767 50.818L77.0742 48.9454L76.3718 47.0728L73.5619 48.1268L74.2643 49.9994ZM77.0742 48.9454L77.7767 50.818L80.5866 49.764L79.8841 47.8914L79.1817 46.0188L76.3718 47.0728L77.0742 48.9454ZM79.8841 47.8914L80.5866 49.764C82.4284 49.0731 84.2864 48.429 86.1605 47.8316L85.5531 45.926L84.9457 44.0205C83.0077 44.6383 81.0864 45.3044 79.1817 46.0188L79.8841 47.8914ZM85.5531 45.926L86.1605 47.8316L89.0196 46.9202L88.4122 45.0147L87.8048 43.1091L84.9457 44.0205L85.5531 45.926ZM88.4122 45.0147L89.0196 46.9202L91.8787 46.0089L91.2713 44.1033L90.6639 42.1978L87.8048 43.1091L88.4122 45.0147ZM91.2713 44.1033L91.8787 46.0089C93.8576 45.3781 95.7975 44.635 97.6981 43.78L96.8776 41.9561L96.057 40.1321C94.2948 40.9249 92.4972 41.6134 90.6639 42.1978L91.2713 44.1033ZM96.8776 41.9561L97.6981 43.78L100.445 42.5441L99.6247 40.7202L98.8042 38.8963L96.057 40.1321L96.8776 41.9561ZM99.6247 40.7202L100.445 42.5441L103.192 41.3082L102.372 39.4843L101.551 37.6604L98.8042 38.8963L99.6247 40.7202ZM102.372 39.4843L103.192 41.3082C104.957 40.5142 106.756 39.8206 108.59 39.2273L107.974 37.3245L107.358 35.4216C105.385 36.0602 103.449 36.8066 101.551 37.6604L102.372 39.4843ZM107.974 37.3245L108.59 39.2273L111.444 38.3033L110.829 36.4005L110.213 34.4977L107.358 35.4216L107.974 37.3245ZM110.829 36.4005L111.444 38.3033L114.299 37.3793L113.683 35.4765L113.067 33.5737L110.213 34.4977L110.829 36.4005ZM113.683 35.4765L114.299 37.3793C114.828 37.2083 115.327 37.016 115.748 36.7908C116.078 36.6146 116.743 36.2257 117.106 35.4919C117.327 35.0466 117.427 34.4882 117.276 33.9027C117.136 33.3597 116.829 32.9821 116.583 32.7506C116.132 32.3255 115.566 32.0898 115.161 31.9475L114.497 33.834L113.833 35.7205C114.109 35.8177 114.019 35.8301 113.84 35.6617C113.73 35.5585 113.508 35.3113 113.403 34.9009C113.286 34.448 113.369 34.0243 113.522 33.7159C113.654 33.4486 113.816 33.309 113.857 33.2744C113.908 33.2324 113.921 33.2319 113.861 33.2639C113.738 33.3297 113.49 33.4368 113.067 33.5737L113.683 35.4765ZM114.497 33.834L115.161 31.9475L113.12 31.229L112.456 33.1155L111.792 35.002L113.833 35.7205L114.497 33.834ZM112.456 33.1155L113.12 31.229L111.08 30.5105L110.415 32.397L109.751 34.2835L111.792 35.002L112.456 33.1155ZM110.415 32.397L111.08 30.5105C109.611 29.9933 107.86 29.5277 105.845 29.1066L105.436 31.0643L105.027 33.0221C106.93 33.4197 108.499 33.8426 109.751 34.2835L110.415 32.397ZM105.436 31.0643L105.845 29.1066L102.906 28.4925L102.497 30.4502L102.088 32.408L105.027 33.0221L105.436 31.0643ZM102.497 30.4502L102.906 28.4925L99.9672 27.8784L99.5581 29.8362L99.149 31.7939L102.088 32.408L102.497 30.4502ZM99.5581 29.8362L99.9672 27.8784C97.9961 27.4666 96.022 27.0727 94.0448 26.697L93.6714 28.6618L93.298 30.6266C95.2513 30.9979 97.2017 31.3869 99.149 31.7939L99.5581 29.8362ZM93.6714 28.6618L94.0448 26.697L91.0969 26.1367L90.7235 28.1016L90.3501 30.0664L93.298 30.6266L93.6714 28.6618ZM90.7235 28.1016L91.0969 26.1367L88.1491 25.5765L87.7756 27.5413L87.4022 29.5062L90.3501 30.0664L90.7235 28.1016ZM87.7756 27.5413L88.1491 25.5765C86.115 25.1899 84.063 24.9105 81.9935 24.7382L81.8275 26.7313L81.6616 28.7244C83.5924 28.8851 85.5058 29.1457 87.4022 29.5062L87.7756 27.5413ZM81.8275 26.7313L81.9935 24.7382L78.9932 24.4884L78.8273 26.4815L78.6614 28.4746L81.6616 28.7244L81.8275 26.7313ZM78.8273 26.4815L78.9932 24.4884L75.993 24.2386L75.8271 26.2317L75.6611 28.2248L78.6614 28.4746L78.8273 26.4815ZM75.8271 26.2317L75.993 24.2386C74.0398 24.076 72.0985 23.8449 70.1689 23.5453L69.8621 25.5216L69.5552 27.4979C71.5786 27.8121 73.614 28.0544 75.6611 28.2248L75.8271 26.2317ZM69.8621 25.5216L70.1689 23.5453L67.2042 23.085L66.8973 25.0613L66.5905 27.0376L69.5552 27.4979L69.8621 25.5216ZM66.8973 25.0613L67.2042 23.085L64.2395 22.6247L63.9326 24.601L63.6258 26.5773L66.5905 27.0376L66.8973 25.0613ZM63.9326 24.601L64.2395 22.6247C62.3488 22.3312 60.4782 21.915 58.6272 21.3759L58.068 23.2961L57.5087 25.2163C59.5242 25.8033 61.5634 26.2571 63.6258 26.5773L63.9326 24.601ZM58.068 23.2961L58.6272 21.3759L55.7273 20.5312L55.168 22.4514L54.6088 24.3716L57.5087 25.2163L58.068 23.2961ZM55.168 22.4514L55.7273 20.5312L52.8274 19.6866L52.2681 21.6068L51.7088 23.527L54.6088 24.3716L55.168 22.4514ZM52.2681 21.6068L52.8274 19.6866C50.8244 19.1032 48.8015 18.6321 46.759 18.2737L46.4133 20.2436L46.0676 22.2134C47.965 22.5464 49.8453 22.9842 51.7088 23.527L52.2681 21.6068ZM46.4133 20.2436L46.759 18.2737L43.8041 17.7551L43.4584 19.725L43.1127 21.6949L46.0676 22.2134L46.4133 20.2436ZM43.4584 19.725L43.8041 17.7551L40.8492 17.2365L40.5035 19.2064L40.1578 21.1763L43.1127 21.6949L43.4584 19.725ZM40.5035 19.2064L40.8492 17.2365C38.8278 16.8817 36.7932 16.6062 34.7454 16.41L34.5546 18.4009L34.3638 20.3917C36.308 20.5781 38.2393 20.8396 40.1578 21.1763L40.5035 19.2064ZM34.5546 18.4009L34.7454 16.41L31.7514 16.123L31.5606 18.1139L31.3698 20.1048L34.3638 20.3917L34.5546 18.4009ZM31.5606 18.1139L31.7514 16.123L28.7575 15.8361L28.5667 17.827L28.3759 19.8179L31.3698 20.1048L31.5606 18.1139ZM28.5667 17.827L28.7575 15.8361C26.8084 15.6493 24.871 15.3942 22.9453 15.0709L22.6141 17.0433L22.2829 19.0156C24.302 19.3547 26.333 19.6221 28.3759 19.8179L28.5667 17.827ZM22.6141 17.0433L22.9453 15.0709L19.9867 14.5741L19.6555 16.5465L19.3243 18.5189L22.2829 19.0156L22.6141 17.0433ZM19.6555 16.5465L19.9867 14.5741L17.0281 14.0773L16.697 16.0497L16.3658 18.0221L19.3243 18.5189L19.6555 16.5465ZM16.697 16.0497L17.0281 14.0773C15.0343 13.7425 13.035 13.4402 11.0303 13.1704L10.7635 15.1526L10.4968 17.1347C12.4585 17.3987 14.4148 17.6945 16.3658 18.0221L16.697 16.0497ZM10.7635 15.1526L11.0303 13.1704L8.05544 12.7701L7.78868 14.7522L7.52192 16.7343L10.4968 17.1347L10.7635 15.1526ZM7.78868 14.7522L8.05544 12.7701L5.08059 12.3697L4.81383 14.3518L4.54708 16.334L7.52192 16.7343L7.78868 14.7522ZM4.81383 14.3518L5.08059 12.3697C4.34659 12.2709 4.12963 12.0743 4.09373 12.0355C4.07797 12.0185 4.05757 11.9925 4.03779 11.9259C4.01518 11.8497 3.98847 11.7002 4.00482 11.4469L2.00897 11.3181L0.0131263 11.1892C-0.0684823 12.4535 0.220631 13.7385 1.15666 14.7509C2.05572 15.7234 3.29784 16.1659 4.54708 16.334L4.81383 14.3518ZM2.00897 11.3181L4.00482 11.4469L4.1748 8.81345L2.17896 8.68462L0.18311 8.55579L0.0131263 11.1892L2.00897 11.3181ZM2.17896 8.68462L4.1748 8.81345L4.34479 6.18001L2.34894 6.05118L0.353094 5.92235L0.18311 8.55579L2.17896 8.68462ZM2.34894 6.05118L4.34479 6.18001C4.40101 5.30897 4.45087 4.64192 4.49419 4.17057C4.51596 3.93381 4.53479 3.76066 4.55024 3.6426C4.57116 3.48283 4.57407 3.5201 4.54169 3.62976L2.62357 3.06336L0.705448 2.49697C0.602287 2.84632 0.549792 3.38225 0.510985 3.80445C0.462766 4.32905 0.410192 5.03778 0.353094 5.92235L2.34894 6.05118ZM2.62357 3.06336L4.54169 3.62976L4.64634 3.27538L2.72822 2.70898L0.810094 2.14258L0.705448 2.49697L2.62357 3.06336ZM2.72822 2.70898L4.60777 3.39255L4.82945 2.78301L2.9499 2.09944L1.07034 1.41587L0.848658 2.02541L2.72822 2.70898ZM2.9499 2.09944L4.93449 1.85166L4.9221 1.75243L2.93751 2.00021L0.952916 2.24799L0.965305 2.34722L2.9499 2.09944Z" fill="var(--stroke-0, black)"/>
</svg>
