<svg preserveAspectRatio="none" width="100%" height="100%" overflow="visible" style="display: block;" viewBox="0 0 105 86" fill="none" xmlns="http://www.w3.org/2000/svg">
<path id="Vector 3" d="M104.32 38.187V36.187H104.272L104.224 36.1893L104.32 38.187ZM98.3705 38.4733L98.2744 36.4756L98.3705 38.4733ZM89.6206 39.4036L89.1723 37.4545L89.6206 39.4036ZM78.6659 42.9132L77.6152 41.2114L78.6659 42.9132ZM76.1108 44.4907L75.0601 42.7889L76.1108 44.4907ZM73.5557 46.0683L74.6064 47.77L73.5557 46.0683ZM68.2868 48.9393L67.4263 47.1339L68.2868 48.9393ZM65.573 50.2328L66.4335 52.0382L65.573 50.2328ZM62.8592 51.5263L61.9987 49.7209L62.8592 51.5263ZM57.6566 54.5159L56.5303 52.8631L57.6566 54.5159ZM47.4545 60.8589L48.2884 62.6767L47.4545 60.8589ZM44.7191 62.1136L43.8852 60.2957L44.7191 62.1136ZM36.6899 66.1949L35.6429 64.4908L36.6899 66.1949ZM34.1316 67.7667L33.0846 66.0626L34.1316 67.7667ZM31.5733 69.3385L32.6202 71.0426L31.5733 69.3385ZM26.2954 72.1934L27.1488 74.0022L26.2954 72.1934ZM20.8562 74.7596L20.0028 72.9508L20.8562 74.7596ZM15.5013 77.4767L14.5454 75.7199L15.5013 77.4767ZM10.2307 80.3446L11.1866 82.1014L10.2307 80.3446ZM2.80929 83.2583L2.21851 81.3476L2.80929 83.2583ZM2.76345 81.177L1.04987 80.1457L2.76345 81.177ZM4.31297 78.6024L2.59939 77.5711L4.31297 78.6024ZM5.86249 76.0278L7.57608 77.0591L5.86249 76.0278ZM8.98349 70.8936L7.27909 69.8472L8.98349 70.8936ZM10.555 68.334L8.85057 67.2876L10.555 68.334ZM12.1265 65.7744L13.8309 66.8208L12.1265 65.7744ZM15.5753 60.864L17.1381 62.1121L15.5753 60.864ZM17.4527 58.5133L15.8899 57.2652L17.4527 58.5133ZM24.1955 48.5868L22.4594 47.5939L24.1955 48.5868ZM25.6896 45.9743L27.4257 46.9671L25.6896 45.9743ZM28.9422 40.9299L27.3215 39.758L28.9422 40.9299ZM30.7008 38.4981L29.0801 37.3261L30.7008 38.4981ZM32.4594 36.0662L34.08 37.2382L32.4594 36.0662ZM36.1254 31.3041L34.5778 30.0373L36.1254 31.3041ZM38.0329 28.9739L39.5805 30.2407L38.0329 28.9739ZM39.9403 26.6437L38.3927 25.3768L39.9403 26.6437ZM42.2471 22.0553L40.2777 21.707L42.2471 22.0553ZM42.6465 19.7972L44.6159 20.1455L42.6465 19.7972ZM43.0459 17.539L41.0764 17.1907L43.0459 17.539ZM10.9137 14.3496L9.25497 13.2322L8.939 13.7012L8.91545 14.2663L10.9137 14.3496ZM11.0204 14.1912L12.6791 15.3086L14.6777 12.3418L11.1037 12.1929L11.0204 14.1912ZM9.56638 12.7152C8.75349 13.463 8.70077 14.7283 9.44863 15.5411L21.6356 28.7879C22.3835 29.6008 23.6487 29.6535 24.4616 28.9056C25.2745 28.1578 25.3272 26.8926 24.5794 26.0797L13.7465 14.3048L25.5214 3.47187C26.3342 2.72402 26.387 1.45878 25.6391 0.645897C24.8913 -0.16699 23.626 -0.219708 22.8131 0.528148L9.56638 12.7152ZM104.42 38.187V36.187H104.32V38.187V40.187H104.42V38.187ZM104.32 38.187L104.224 36.1893L98.2744 36.4756L98.3705 38.4733L98.4666 40.471L104.417 40.1847L104.32 38.187ZM98.3705 38.4733L98.2744 36.4756C94.287 36.6674 91.2217 36.9831 89.1723 37.4545L89.6206 39.4036L90.0689 41.3527C91.7527 40.9654 94.5207 40.6608 98.4666 40.471L98.3705 38.4733ZM89.6206 39.4036L89.1723 37.4545L86.3724 38.0985L86.8207 40.0476L87.2691 41.9967L90.0689 41.3527L89.6206 39.4036ZM86.8207 40.0476L86.3724 38.0985L83.5725 38.7425L84.0209 40.6916L84.4692 42.6407L87.2691 41.9967L86.8207 40.0476ZM84.0209 40.6916L83.5725 38.7425C81.4835 39.223 79.496 40.0501 77.6152 41.2114L78.6659 42.9132L79.7166 44.615C81.2425 43.6728 82.825 43.0189 84.4692 42.6407L84.0209 40.6916ZM78.6659 42.9132L77.6152 41.2114L75.0601 42.7889L76.1108 44.4907L77.1615 46.1925L79.7166 44.615L78.6659 42.9132ZM76.1108 44.4907L75.0601 42.7889L72.505 44.3665L73.5557 46.0683L74.6064 47.77L77.1615 46.1925L76.1108 44.4907ZM73.5557 46.0683L72.505 44.3665C70.8631 45.3802 69.1703 46.3026 67.4263 47.1339L68.2868 48.9393L69.1473 50.7447C71.0216 49.8513 72.8414 48.8597 74.6064 47.77L73.5557 46.0683ZM68.2868 48.9393L67.4263 47.1339L64.7125 48.4274L65.573 50.2328L66.4335 52.0382L69.1473 50.7447L68.2868 48.9393ZM65.573 50.2328L64.7125 48.4274L61.9987 49.7209L62.8592 51.5263L63.7197 53.3317L66.4335 52.0382L65.573 50.2328ZM62.8592 51.5263L61.9987 49.7209C60.097 50.6273 58.2739 51.6749 56.5303 52.8631L57.6566 54.5159L58.7828 56.1686C60.3577 55.0954 62.0031 54.1499 63.7197 53.3317L62.8592 51.5263ZM57.6566 54.5159L56.5303 52.8631L54.0414 54.5592L55.1677 56.2119L56.294 57.8647L58.7828 56.1686L57.6566 54.5159ZM55.1677 56.2119L54.0414 54.5592L51.5525 56.2553L52.6788 57.908L53.8051 59.5607L56.294 57.8647L55.1677 56.2119ZM52.6788 57.908L51.5525 56.2553C49.9859 57.3229 48.3422 58.2513 46.6206 59.041L47.4545 60.8589L48.2884 62.6767C50.214 61.7934 52.0532 60.7546 53.8051 59.5607L52.6788 57.908ZM47.4545 60.8589L46.6206 59.041L43.8852 60.2957L44.7191 62.1136L45.5529 63.9315L48.2884 62.6767L47.4545 60.8589ZM44.7191 62.1136L43.8852 60.2957L41.1498 61.5505L41.9836 63.3684L42.8175 65.1862L45.5529 63.9315L44.7191 62.1136ZM41.9836 63.3684L41.1498 61.5505C39.2531 62.4205 37.4173 63.4007 35.6429 64.4908L36.6899 66.1949L37.7369 67.899C39.3736 66.8934 41.067 65.9892 42.8175 65.1862L41.9836 63.3684ZM36.6899 66.1949L35.6429 64.4908L33.0846 66.0626L34.1316 67.7667L35.1785 69.4708L37.7369 67.899L36.6899 66.1949ZM34.1316 67.7667L33.0846 66.0626L30.5263 67.6344L31.5733 69.3385L32.6202 71.0426L35.1785 69.4708L34.1316 67.7667ZM31.5733 69.3385L30.5263 67.6344C28.8834 68.6438 27.1887 69.5605 25.442 70.3846L26.2954 72.1934L27.1488 74.0022C29.0281 73.1155 30.852 72.1289 32.6202 71.0426L31.5733 69.3385ZM26.2954 72.1934L25.442 70.3846L22.7224 71.6677L23.5758 73.4765L24.4292 75.2853L27.1488 74.0022L26.2954 72.1934ZM23.5758 73.4765L22.7224 71.6677L20.0028 72.9508L20.8562 74.7596L21.7096 76.5684L24.4292 75.2853L23.5758 73.4765ZM20.8562 74.7596L20.0028 72.9508C18.1552 73.8225 16.336 74.7456 14.5454 75.7199L15.5013 77.4767L16.4572 79.2334C18.1803 78.2958 19.9311 77.4075 21.7096 76.5684L20.8562 74.7596ZM15.5013 77.4767L14.5454 75.7199L11.9101 77.1539L12.866 78.9106L13.8219 80.6674L16.4572 79.2334L15.5013 77.4767ZM12.866 78.9106L11.9101 77.1539L9.27475 78.5878L10.2307 80.3446L11.1866 82.1014L13.8219 80.6674L12.866 78.9106ZM10.2307 80.3446L9.27475 78.5878C7.55796 79.522 6.28404 80.0906 5.40923 80.3611L6 82.2718L6.59078 84.1826C7.84311 83.7954 9.38964 83.0791 11.1866 82.1014L10.2307 80.3446ZM6 82.2718L5.40923 80.3611L3.81387 80.8543L4.40465 82.7651L4.99543 84.6758L6.59078 84.1826L6 82.2718ZM4.40465 82.7651L3.81387 80.8543L2.21851 81.3476L2.80929 83.2583L3.40007 85.1691L4.99543 84.6758L4.40465 82.7651ZM2.80929 83.2583L2.21851 81.3476C2.17206 81.362 2.1978 81.3493 2.27773 81.342C2.34878 81.3355 2.56645 81.3231 2.84903 81.4187C3.16997 81.5273 3.51015 81.7563 3.74488 82.1271C3.95999 82.4669 3.9962 82.7829 3.99967 82.9406C4.00539 83.2004 3.93011 83.2817 4.02772 83.0506C4.10412 82.8696 4.24493 82.594 4.47704 82.2083L2.76345 81.177L1.04987 80.1457C0.765476 80.6182 0.520813 81.0729 0.342778 81.4946C0.185953 81.866 -0.0127213 82.422 0.000639527 83.0287C0.00793303 83.3599 0.0807131 83.8173 0.365163 84.2666C0.669232 84.747 1.11151 85.0536 1.56731 85.2078C2.33248 85.4666 3.05561 85.2756 3.40007 85.1691L2.80929 83.2583ZM2.76345 81.177L4.47704 82.2083L6.02656 79.6337L4.31297 78.6024L2.59939 77.5711L1.04987 80.1457L2.76345 81.177ZM4.31297 78.6024L6.02656 79.6337L7.57608 77.0591L5.86249 76.0278L4.1489 74.9965L2.59939 77.5711L4.31297 78.6024ZM5.86249 76.0278L7.57608 77.0591C8.60606 75.3478 9.64333 73.6414 10.6879 71.94L8.98349 70.8936L7.27909 69.8472C6.22835 71.5586 5.18496 73.275 4.1489 74.9965L5.86249 76.0278ZM8.98349 70.8936L10.6879 71.94L12.2594 69.3804L10.555 68.334L8.85057 67.2876L7.27909 69.8472L8.98349 70.8936ZM10.555 68.334L12.2594 69.3804L13.8309 66.8208L12.1265 65.7744L10.4221 64.7279L8.85057 67.2876L10.555 68.334ZM12.1265 65.7744L13.8309 66.8208C14.8354 65.1846 15.9377 63.6151 17.1381 62.1121L15.5753 60.864L14.0125 59.6159C12.7097 61.2472 11.5128 62.9514 10.4221 64.7279L12.1265 65.7744ZM15.5753 60.864L17.1381 62.1121L19.0155 59.7613L17.4527 58.5133L15.8899 57.2652L14.0125 59.6159L15.5753 60.864ZM17.4527 58.5133L19.0155 59.7613L20.8929 57.4106L19.3301 56.1625L17.7673 54.9144L15.8899 57.2652L17.4527 58.5133ZM19.3301 56.1625L20.8929 57.4106C22.2088 55.7629 23.3905 54.0232 24.4377 52.1921L22.7015 51.1993L20.9654 50.2064C20.0205 51.8587 18.9546 53.4278 17.7673 54.9144L19.3301 56.1625ZM22.7015 51.1993L24.4377 52.1921L25.9317 49.5796L24.1955 48.5868L22.4594 47.5939L20.9654 50.2064L22.7015 51.1993ZM24.1955 48.5868L25.9317 49.5796L27.4257 46.9671L25.6896 45.9743L23.9534 44.9814L22.4594 47.5939L24.1955 48.5868ZM25.6896 45.9743L27.4257 46.9671C28.3865 45.287 29.4322 43.6654 30.5628 42.1019L28.9422 40.9299L27.3215 39.758C26.1074 41.437 24.9846 43.1782 23.9534 44.9814L25.6896 45.9743ZM28.9422 40.9299L30.5628 42.1019L32.3214 39.67L30.7008 38.4981L29.0801 37.3261L27.3215 39.758L28.9422 40.9299ZM30.7008 38.4981L32.3214 39.67L34.08 37.2382L32.4594 36.0662L30.8387 34.8942L29.0801 37.3261L30.7008 38.4981ZM32.4594 36.0662L34.08 37.2382C35.2289 35.6494 36.4266 34.0937 37.673 32.571L36.1254 31.3041L34.5778 30.0373C33.281 31.6216 32.0346 33.2406 30.8387 34.8942L32.4594 36.0662ZM36.1254 31.3041L37.673 32.571L39.5805 30.2407L38.0329 28.9739L36.4852 27.7071L34.5778 30.0373L36.1254 31.3041ZM38.0329 28.9739L39.5805 30.2407L41.4879 27.9105L39.9403 26.6437L38.3927 25.3768L36.4852 27.7071L38.0329 28.9739ZM39.9403 26.6437L41.4879 27.9105C42.9106 26.1725 43.8749 24.3357 44.2166 22.4036L42.2471 22.0553L40.2777 21.707C40.0869 22.7858 39.5133 24.0079 38.3927 25.3768L39.9403 26.6437ZM42.2471 22.0553L44.2166 22.4036L44.6159 20.1455L42.6465 19.7972L40.677 19.4488L40.2777 21.707L42.2471 22.0553ZM42.6465 19.7972L44.6159 20.1455L45.0153 17.8873L43.0459 17.539L41.0764 17.1907L40.677 19.4488L42.6465 19.7972ZM43.0459 17.539L45.0153 17.8873C45.2261 16.6955 45.0386 15.3294 43.9269 14.3375C42.9581 13.4732 41.6496 13.2432 40.4867 13.2191L40.4452 15.2186L40.4038 17.2182C40.787 17.2262 41.0372 17.2685 41.1859 17.3108C41.3329 17.3526 41.3272 17.3787 41.2639 17.3222C41.1833 17.2503 41.1226 17.1458 41.0991 17.0569C41.0819 16.9915 41.1069 17.0181 41.0764 17.1907L43.0459 17.539ZM40.4452 15.2186L40.4867 13.2191L37.4866 13.1569L37.4452 15.1565L37.4037 17.156L40.4038 17.2182L40.4452 15.2186ZM37.4452 15.1565L37.4866 13.1569L34.4866 13.0947L34.4452 15.0943L34.4037 17.0938L37.4037 17.156L37.4452 15.1565ZM34.4452 15.0943L34.4866 13.0947C32.5217 13.054 30.5589 12.9616 28.5983 12.8175L28.4517 14.8122L28.3052 16.8068C30.3358 16.956 32.3687 17.0516 34.4037 17.0938L34.4452 15.0943ZM28.4517 14.8122L28.5983 12.8175L25.6048 12.5977L25.4583 14.5923L25.3118 16.5869L28.3052 16.8068L28.4517 14.8122ZM25.4583 14.5923L25.6048 12.5977L22.6114 12.3778L22.4648 14.3724L22.3183 16.367L25.3118 16.5869L25.4583 14.5923ZM22.4648 14.3724L22.6114 12.3778C20.5669 12.2276 18.7742 12.18 17.2464 12.2442L17.3303 14.2424L17.4142 16.2406C18.7412 16.1849 20.3716 16.224 22.3183 16.367L22.4648 14.3724ZM17.3303 14.2424L17.2464 12.2442L15.1053 12.3341L15.1892 14.3323L15.2731 16.3305L17.4142 16.2406L17.3303 14.2424ZM15.1892 14.3323L15.1053 12.3341L12.9642 12.424L13.0481 14.4222L13.132 16.4204L15.2731 16.3305L15.1892 14.3323ZM13.0481 14.4222L12.9642 12.424C12.256 12.4537 11.7519 12.468 11.435 12.4693C11.3576 12.4696 11.2973 12.4691 11.252 12.4682C11.2042 12.4671 11.1852 12.4659 11.1867 12.466C11.188 12.4661 11.2036 12.4672 11.2293 12.4703C11.2506 12.473 11.3077 12.4804 11.3843 12.4978C11.4301 12.5081 11.6328 12.5532 11.8688 12.6806C11.9882 12.7451 12.2241 12.8874 12.445 13.151C12.6906 13.4441 12.9336 13.9144 12.9086 14.5141L10.9103 14.4308L8.91207 14.3476C8.85998 15.5977 9.85846 16.141 9.96777 16.2C10.2146 16.3334 10.4338 16.3838 10.5017 16.3992C10.6752 16.4384 10.8304 16.4506 10.8986 16.4556C11.0662 16.4677 11.2618 16.4701 11.4511 16.4693C11.8468 16.4677 12.4127 16.4506 13.132 16.4204L13.0481 14.4222ZM10.9103 14.4308L12.9086 14.5141L12.912 14.4328L10.9137 14.3496L8.91545 14.2663L8.91207 14.3476L10.9103 14.4308ZM10.9137 14.3496L12.5725 15.467L12.6791 15.3086L11.0204 14.1912L9.36166 13.0738L9.25497 13.2322L10.9137 14.3496ZM11.0204 14.1912L11.1037 12.1929L11.0038 12.1888L10.9205 14.187L10.8372 16.1853L10.9371 16.1895L11.0204 14.1912Z" fill="var(--stroke-0, black)"/>
</svg>
