<svg preserveAspectRatio="none" width="100%" height="100%" overflow="visible" style="display: block;" viewBox="0 0 265 30" fill="none" xmlns="http://www.w3.org/2000/svg">
<g id="Frame 4">
<path id="Rectangle 5" d="M17.3282 4.06349L17.4904 6.0569L17.3282 4.06349ZM23.3282 3.57529L23.4904 5.5687L23.3282 3.57529ZM38.6174 8.83086L36.6198 8.92884L38.6174 8.83086ZM38.762 11.7794L40.7596 11.6814L38.762 11.7794ZM38.762 17.4682L40.7592 17.5736L38.762 17.4682ZM38.6174 20.2086L36.6202 20.1032L38.6174 20.2086ZM35.3282 25.7628L35.2791 23.7634L35.3282 25.7628ZM32.3282 25.8363L32.3772 27.8357L32.3282 25.8363ZM29.3282 25.9099L29.2791 23.9105L29.3282 25.9099ZM23.3282 25.7412L23.4892 23.7477L23.3282 25.7412ZM17.3282 25.2565L17.1672 27.25L17.3282 25.2565ZM5.32818 25.8696L5.13894 23.8786L5.32818 25.8696ZM2.02566 11.2279L0.026296 11.1776L2.02566 11.2279ZM8.32818 4.01776L8.23168 6.01543L11.2317 6.16034L11.3282 4.16267L11.4247 2.165L8.42468 2.02009L8.32818 4.01776ZM11.3282 4.16267L11.2317 6.16034C13.3181 6.26113 15.4045 6.22662 17.4904 6.0569L17.3282 4.06349L17.166 2.07008C15.2518 2.22582 13.3383 2.25744 11.4247 2.165L11.3282 4.16267ZM17.3282 4.06349L17.4904 6.0569L20.4904 5.8128L20.3282 3.81939L20.166 1.82598L17.166 2.07008L17.3282 4.06349ZM20.3282 3.81939L20.4904 5.8128L23.4904 5.5687L23.3282 3.57529L23.166 1.58187L20.166 1.82598L20.3282 3.81939ZM23.3282 3.57529L23.4904 5.5687C25.4585 5.40856 27.4265 5.29591 29.3944 5.23075L29.3282 3.23184L29.262 1.23294C27.2299 1.30023 25.1978 1.41655 23.166 1.58187L23.3282 3.57529ZM29.3282 3.23184L29.3944 5.23075L32.3944 5.1314L32.3282 3.1325L32.262 1.13359L29.262 1.23294L29.3282 3.23184ZM32.3282 3.1325L32.3944 5.1314L35.3944 5.03206L35.3282 3.03315L35.262 1.03425L32.262 1.13359L32.3282 3.1325ZM35.3282 3.03315L35.3944 5.03206C36.0919 5.00896 36.2673 5.17416 36.2715 5.17789C36.2814 5.1869 36.3177 5.22093 36.3604 5.32946C36.4067 5.44744 36.4591 5.65264 36.4752 5.98031L38.4728 5.88234L40.4704 5.78437C40.4065 4.48256 40.0074 3.1652 38.9572 2.21366C37.9131 1.26767 36.5644 0.991118 35.262 1.03425L35.3282 3.03315ZM38.4728 5.88234L36.4752 5.98031L36.6198 8.92884L38.6174 8.83086L40.615 8.73289L40.4704 5.78437L38.4728 5.88234ZM38.6174 8.83086L36.6198 8.92884L36.7644 11.8774L38.762 11.7794L40.7596 11.6814L40.615 8.73289L38.6174 8.83086ZM38.762 11.7794L36.7644 11.8774C36.8577 13.7803 36.8574 15.6086 36.7648 17.3628L38.762 17.4682L40.7592 17.5736C40.8595 15.6742 40.8591 13.7098 40.7596 11.6814L38.762 11.7794ZM38.762 17.4682L36.7648 17.3628L36.6202 20.1032L38.6174 20.2086L40.6146 20.3139L40.7592 17.5736L38.762 17.4682ZM38.6174 20.2086L36.6202 20.1032L36.4756 22.8435L38.4728 22.9489L40.47 23.0543L40.6146 20.3139L38.6174 20.2086ZM38.4728 22.9489L36.4756 22.8435C36.4466 23.392 36.2989 23.5157 36.2807 23.5321C36.2345 23.5734 36.0018 23.7456 35.2791 23.7634L35.3282 25.7628L35.3772 27.7622C36.6545 27.7308 37.9459 27.4096 38.948 26.5129C39.9779 25.5913 40.4025 24.3326 40.47 23.0543L38.4728 22.9489ZM35.3282 25.7628L35.2791 23.7634L32.2791 23.8369L32.3282 25.8363L32.3772 27.8357L35.3772 27.7622L35.3282 25.7628ZM32.3282 25.8363L32.2791 23.8369L29.2791 23.9105L29.3282 25.9099L29.3772 27.9093L32.3772 27.8357L32.3282 25.8363ZM29.3282 25.9099L29.2791 23.9105C27.3494 23.9578 25.4195 23.9036 23.4892 23.7477L23.3282 25.7412L23.1672 27.7347C25.2368 27.9019 27.3069 27.9601 29.3772 27.9093L29.3282 25.9099ZM23.3282 25.7412L23.4892 23.7477L20.4892 23.5053L20.3282 25.4988L20.1672 27.4923L23.1672 27.7347L23.3282 25.7412ZM20.3282 25.4988L20.4892 23.5053L17.4892 23.263L17.3282 25.2565L17.1672 27.25L20.1672 27.4923L20.3282 25.4988ZM17.3282 25.2565L17.4892 23.263C15.3725 23.092 13.2553 23.1071 11.1389 23.3083L11.3282 25.2993L11.5174 27.2903C13.4011 27.1113 15.2839 27.0979 17.1672 27.25L17.3282 25.2565ZM11.3282 25.2993L11.1389 23.3083L8.13894 23.5934L8.32818 25.5844L8.51741 27.5755L11.5174 27.2903L11.3282 25.2993ZM8.32818 25.5844L8.13894 23.5934L5.13894 23.8786L5.32818 25.8696L5.51741 27.8606L8.51741 27.5755L8.32818 25.5844ZM5.32818 25.8696L5.13894 23.8786C4.44876 23.9442 4.34561 23.7766 4.40362 23.8296C4.44764 23.8697 4.25819 23.7453 4.23595 22.9892L2.23682 23.048L0.237683 23.1068C0.276356 24.4219 0.632581 25.8033 1.70706 26.784C2.79552 27.7774 4.2076 27.9851 5.51741 27.8606L5.32818 25.8696ZM2.23682 23.048L4.23595 22.9892L4.14459 19.8825L2.14546 19.9413L0.146323 20.0001L0.237683 23.1068L2.23682 23.048ZM2.14546 19.9413L4.14459 19.8825L4.05323 16.7758L2.0541 16.8346L0.0549632 16.8934L0.146323 20.0001L2.14546 19.9413ZM2.0541 16.8346L4.05323 16.7758C3.99315 14.7328 3.98418 12.9011 4.02503 11.2782L2.02566 11.2279L0.026296 11.1776C-0.016756 12.8881 -0.00676845 14.7942 0.0549632 16.8934L2.0541 16.8346ZM2.02566 11.2279L4.02503 11.2782L4.08795 8.77824L2.08859 8.72792L0.0892198 8.6776L0.026296 11.1776L2.02566 11.2279ZM2.08859 8.72792L4.08795 8.77824L4.15088 6.27824L2.15151 6.22792L0.152143 6.1776L0.0892198 8.6776L2.08859 8.72792ZM2.15151 6.22792L4.15088 6.27824C4.17181 5.4466 4.18968 4.83085 4.20448 4.42596C4.21197 4.22101 4.21821 4.08323 4.22299 4.00255C4.22567 3.95727 4.22648 3.95492 4.22433 3.97542C4.22423 3.97638 4.21828 4.03837 4.20192 4.12196C4.19663 4.14897 4.1719 4.27862 4.112 4.43716C4.08654 4.50456 4.00939 4.70288 3.8483 4.92005C3.73429 5.07375 3.2153 5.72792 2.24287 5.72792V3.72792V1.72792C1.26985 1.72792 0.750255 2.38251 0.635643 2.53702C0.473954 2.755 0.396191 2.95454 0.370115 3.02356C0.30899 3.18536 0.283008 3.31989 0.276445 3.35341C0.25753 3.45002 0.248943 3.53155 0.246114 3.55854C0.238507 3.63113 0.233495 3.7069 0.230003 3.76579C0.222434 3.89345 0.214883 4.06817 0.207146 4.27988C0.191489 4.70832 0.17316 5.34258 0.152143 6.1776L2.15151 6.22792ZM2.24287 3.72792V5.72792H2.27131V3.72792V1.72792H2.24287V3.72792ZM2.27131 3.72792V5.72792H2.29974V3.72792V1.72792H2.27131V3.72792ZM2.29974 3.72792V5.72792C2.2455 5.72792 2.41169 5.73489 2.97547 5.76187C3.47975 5.786 4.23175 5.82221 5.23168 5.87051L5.32818 3.87284L5.42468 1.87517C3.48657 1.78155 2.38306 1.72792 2.29974 1.72792V3.72792ZM5.32818 3.87284L5.23168 5.87051L8.23168 6.01543L8.32818 4.01776L8.42468 2.02009L5.42468 1.87517L5.32818 3.87284Z" fill="var(--stroke-0, black)"/>
<path id="Vector 3" d="M54.3282 12.7279C53.2236 12.7279 52.3282 13.6234 52.3282 14.7279C52.3282 15.8325 53.2236 16.7279 54.3282 16.7279V14.7279V12.7279ZM54.4282 14.7279V16.7279H54.4763L54.5243 16.7256L54.4282 14.7279ZM92.5782 14.429L92.4061 16.4216L92.5782 14.429ZM99.3282 14.87H101.328V14.2365L100.964 13.7186L99.3282 14.87ZM99.2282 14.7279V12.7279H95.3741L97.5928 15.8793L99.2282 14.7279ZM100.742 16.1421C101.523 15.3611 101.523 14.0948 100.742 13.3137L88.0145 0.585786C87.2334 -0.195262 85.9671 -0.195262 85.186 0.585786C84.405 1.36683 84.405 2.63316 85.186 3.41421L96.4998 14.7279L85.186 26.0416C84.405 26.8227 84.405 28.089 85.186 28.8701C85.9671 29.6511 87.2334 29.6511 88.0145 28.8701L100.742 16.1421ZM54.3282 14.7279V16.7279H54.4282V14.7279V12.7279H54.3282V14.7279ZM54.4282 14.7279L54.5243 16.7256L60.4743 16.4393L60.3782 14.4417L60.2821 12.444L54.3321 12.7302L54.4282 14.7279ZM60.3782 14.4417L60.4743 16.4393C64.4258 16.2492 67.3293 16.2083 69.2277 16.3037L69.3282 14.3063L69.4286 12.3088C67.327 12.2031 64.2639 12.2524 60.2821 12.444L60.3782 14.4417ZM69.3282 14.3063L69.2277 16.3037L72.2277 16.4546L72.3282 14.4571L72.4286 12.4597L69.4286 12.3088L69.3282 14.3063ZM72.3282 14.4571L72.2277 16.4546L75.2277 16.6055L75.3282 14.608L75.4286 12.6105L72.4286 12.4597L72.3282 14.4571ZM75.3282 14.608L75.2277 16.6055C77.2902 16.7092 79.3529 16.716 81.4155 16.6259L81.3282 14.6278L81.2409 12.6298C79.3035 12.7144 77.3661 12.708 75.4286 12.6105L75.3282 14.608ZM81.3282 14.6278L81.4155 16.6259L84.4155 16.4949L84.3282 14.4968L84.2409 12.4987L81.2409 12.6298L81.3282 14.6278ZM84.3282 14.4968L84.4155 16.4949L87.4155 16.3638L87.3282 14.3657L87.2409 12.3676L84.2409 12.4987L84.3282 14.4968ZM87.3282 14.3657L87.4155 16.3638C89.3553 16.2791 91.0151 16.3015 92.4061 16.4216L92.5782 14.429L92.7503 12.4364C91.1413 12.2975 89.3011 12.2777 87.2409 12.3676L87.3282 14.3657ZM92.5782 14.429L92.4061 16.4216L94.6561 16.6159L94.8282 14.6233L95.0003 12.6308L92.7503 12.4364L92.5782 14.429ZM94.8282 14.6233L94.6561 16.6159L96.9061 16.8102L97.0782 14.8177L97.2503 12.8251L95.0003 12.6308L94.8282 14.6233ZM97.0782 14.8177L96.9061 16.8102C97.6607 16.8754 98.2487 16.9203 98.6562 16.9427C98.853 16.9534 99.045 16.9611 99.2042 16.9598C99.2704 16.9593 99.4077 16.9572 99.5598 16.9367C99.6163 16.9291 99.8121 16.9027 100.041 16.814C100.15 16.7719 100.402 16.6655 100.657 16.4376C100.938 16.1876 101.328 15.6831 101.328 14.941H99.3282H97.3282C97.3282 14.2018 97.7172 13.7001 97.9946 13.4527C98.2472 13.2274 98.4945 13.1235 98.5974 13.0837C98.8149 12.9995 98.9932 12.9769 99.0263 12.9724C99.1315 12.9583 99.1985 12.9597 99.1709 12.96C99.1426 12.9602 99.0534 12.9584 98.8751 12.9486C98.5327 12.9299 97.9957 12.8895 97.2503 12.8251L97.0782 14.8177ZM99.3282 14.941H101.328V14.87H99.3282H97.3282V14.941H99.3282ZM99.3282 14.87L100.964 13.7186L100.864 13.5765L99.2282 14.7279L97.5928 15.8793L97.6928 16.0213L99.3282 14.87ZM99.2282 14.7279V16.7279H99.3282V14.7279V12.7279H99.2282V14.7279Z" fill="var(--stroke-0, black)"/>
<path id="Rectangle 1" d="M129.328 4.06349L129.49 6.0569L129.328 4.06349ZM135.328 3.57529L135.49 5.5687L135.328 3.57529ZM150.617 8.83086L148.62 8.92884L150.617 8.83086ZM150.762 11.7794L152.76 11.6814L150.762 11.7794ZM150.762 17.4682L152.759 17.5736L150.762 17.4682ZM150.617 20.2086L148.62 20.1032L150.617 20.2086ZM147.328 25.7628L147.279 23.7634L147.328 25.7628ZM144.328 25.8363L144.377 27.8357L144.328 25.8363ZM141.328 25.9099L141.279 23.9105L141.328 25.9099ZM135.328 25.7412L135.489 23.7477L135.328 25.7412ZM129.328 25.2565L129.167 27.25L129.328 25.2565ZM117.328 25.8696L117.139 23.8786L117.328 25.8696ZM114.026 11.2279L112.026 11.1776L114.026 11.2279ZM120.328 4.01776L120.232 6.01543L123.232 6.16034L123.328 4.16267L123.425 2.165L120.425 2.02009L120.328 4.01776ZM123.328 4.16267L123.232 6.16034C125.318 6.26113 127.405 6.22662 129.49 6.0569L129.328 4.06349L129.166 2.07008C127.252 2.22582 125.338 2.25744 123.425 2.165L123.328 4.16267ZM129.328 4.06349L129.49 6.0569L132.49 5.8128L132.328 3.81939L132.166 1.82598L129.166 2.07008L129.328 4.06349ZM132.328 3.81939L132.49 5.8128L135.49 5.5687L135.328 3.57529L135.166 1.58187L132.166 1.82598L132.328 3.81939ZM135.328 3.57529L135.49 5.5687C137.459 5.40856 139.427 5.29591 141.394 5.23075L141.328 3.23184L141.262 1.23294C139.23 1.30023 137.198 1.41655 135.166 1.58187L135.328 3.57529ZM141.328 3.23184L141.394 5.23075L144.394 5.1314L144.328 3.1325L144.262 1.13359L141.262 1.23294L141.328 3.23184ZM144.328 3.1325L144.394 5.1314L147.394 5.03206L147.328 3.03315L147.262 1.03425L144.262 1.13359L144.328 3.1325ZM147.328 3.03315L147.394 5.03206C148.092 5.00896 148.267 5.17416 148.271 5.17789C148.281 5.1869 148.318 5.22093 148.36 5.32946C148.407 5.44744 148.459 5.65264 148.475 5.98031L150.473 5.88234L152.47 5.78437C152.407 4.48256 152.007 3.1652 150.957 2.21366C149.913 1.26767 148.564 0.991118 147.262 1.03425L147.328 3.03315ZM150.473 5.88234L148.475 5.98031L148.62 8.92884L150.617 8.83086L152.615 8.73289L152.47 5.78437L150.473 5.88234ZM150.617 8.83086L148.62 8.92884L148.764 11.8774L150.762 11.7794L152.76 11.6814L152.615 8.73289L150.617 8.83086ZM150.762 11.7794L148.764 11.8774C148.858 13.7803 148.857 15.6086 148.765 17.3628L150.762 17.4682L152.759 17.5736C152.859 15.6742 152.859 13.7098 152.76 11.6814L150.762 11.7794ZM150.762 17.4682L148.765 17.3628L148.62 20.1032L150.617 20.2086L152.615 20.3139L152.759 17.5736L150.762 17.4682ZM150.617 20.2086L148.62 20.1032L148.476 22.8435L150.473 22.9489L152.47 23.0543L152.615 20.3139L150.617 20.2086ZM150.473 22.9489L148.476 22.8435C148.447 23.392 148.299 23.5157 148.281 23.5321C148.235 23.5734 148.002 23.7456 147.279 23.7634L147.328 25.7628L147.377 27.7622C148.655 27.7308 149.946 27.4096 150.948 26.5129C151.978 25.5913 152.403 24.3326 152.47 23.0543L150.473 22.9489ZM147.328 25.7628L147.279 23.7634L144.279 23.8369L144.328 25.8363L144.377 27.8357L147.377 27.7622L147.328 25.7628ZM144.328 25.8363L144.279 23.8369L141.279 23.9105L141.328 25.9099L141.377 27.9093L144.377 27.8357L144.328 25.8363ZM141.328 25.9099L141.279 23.9105C139.349 23.9578 137.42 23.9036 135.489 23.7477L135.328 25.7412L135.167 27.7347C137.237 27.9019 139.307 27.9601 141.377 27.9093L141.328 25.9099ZM135.328 25.7412L135.489 23.7477L132.489 23.5053L132.328 25.4988L132.167 27.4923L135.167 27.7347L135.328 25.7412ZM132.328 25.4988L132.489 23.5053L129.489 23.263L129.328 25.2565L129.167 27.25L132.167 27.4923L132.328 25.4988ZM129.328 25.2565L129.489 23.263C127.372 23.092 125.255 23.1071 123.139 23.3083L123.328 25.2993L123.517 27.2903C125.401 27.1113 127.284 27.0979 129.167 27.25L129.328 25.2565ZM123.328 25.2993L123.139 23.3083L120.139 23.5934L120.328 25.5844L120.517 27.5755L123.517 27.2903L123.328 25.2993ZM120.328 25.5844L120.139 23.5934L117.139 23.8786L117.328 25.8696L117.517 27.8606L120.517 27.5755L120.328 25.5844ZM117.328 25.8696L117.139 23.8786C116.449 23.9442 116.346 23.7766 116.404 23.8296C116.448 23.8697 116.258 23.7453 116.236 22.9892L114.237 23.048L112.238 23.1068C112.276 24.4219 112.633 25.8033 113.707 26.784C114.796 27.7774 116.208 27.9851 117.517 27.8606L117.328 25.8696ZM114.237 23.048L116.236 22.9892L116.145 19.8825L114.145 19.9413L112.146 20.0001L112.238 23.1068L114.237 23.048ZM114.145 19.9413L116.145 19.8825L116.053 16.7758L114.054 16.8346L112.055 16.8934L112.146 20.0001L114.145 19.9413ZM114.054 16.8346L116.053 16.7758C115.993 14.7328 115.984 12.9011 116.025 11.2782L114.026 11.2279L112.026 11.1776C111.983 12.8881 111.993 14.7942 112.055 16.8934L114.054 16.8346ZM114.026 11.2279L116.025 11.2782L116.088 8.77824L114.089 8.72792L112.089 8.6776L112.026 11.1776L114.026 11.2279ZM114.089 8.72792L116.088 8.77824L116.151 6.27824L114.152 6.22792L112.152 6.1776L112.089 8.6776L114.089 8.72792ZM114.152 6.22792L116.151 6.27824C116.172 5.4466 116.19 4.83085 116.204 4.42596C116.212 4.22101 116.218 4.08323 116.223 4.00255C116.226 3.95727 116.226 3.95492 116.224 3.97542C116.224 3.97638 116.218 4.03837 116.202 4.12196C116.197 4.14897 116.172 4.27862 116.112 4.43716C116.087 4.50456 116.009 4.70288 115.848 4.92005C115.734 5.07375 115.215 5.72792 114.243 5.72792V3.72792V1.72792C113.27 1.72792 112.75 2.38251 112.636 2.53702C112.474 2.755 112.396 2.95454 112.37 3.02356C112.309 3.18536 112.283 3.31989 112.276 3.35341C112.258 3.45002 112.249 3.53155 112.246 3.55854C112.239 3.63113 112.233 3.7069 112.23 3.76579C112.222 3.89345 112.215 4.06817 112.207 4.27988C112.191 4.70832 112.173 5.34258 112.152 6.1776L114.152 6.22792ZM114.243 3.72792V5.72792H114.271V3.72792V1.72792H114.243V3.72792ZM114.271 3.72792V5.72792H114.3V3.72792V1.72792H114.271V3.72792ZM114.3 3.72792V5.72792C114.245 5.72792 114.412 5.73489 114.975 5.76187C115.48 5.786 116.232 5.82221 117.232 5.87051L117.328 3.87284L117.425 1.87517C115.487 1.78155 114.383 1.72792 114.3 1.72792V3.72792ZM117.328 3.87284L117.232 5.87051L120.232 6.01543L120.328 4.01776L120.425 2.02009L117.425 1.87517L117.328 3.87284Z" fill="var(--stroke-0, black)"/>
<path id="Vector 4" d="M166.328 12.7279C165.224 12.7279 164.328 13.6234 164.328 14.7279C164.328 15.8325 165.224 16.7279 166.328 16.7279V14.7279V12.7279ZM166.428 14.7279V16.7279H166.476L166.524 16.7256L166.428 14.7279ZM204.578 14.429L204.406 16.4216L204.578 14.429ZM211.328 14.87H213.328V14.2365L212.964 13.7186L211.328 14.87ZM211.228 14.7279V12.7279H207.374L209.593 15.8793L211.228 14.7279ZM212.742 16.1421C213.523 15.3611 213.523 14.0948 212.742 13.3137L200.014 0.585786C199.233 -0.195262 197.967 -0.195262 197.186 0.585786C196.405 1.36683 196.405 2.63316 197.186 3.41421L208.5 14.7279L197.186 26.0416C196.405 26.8227 196.405 28.089 197.186 28.8701C197.967 29.6511 199.233 29.6511 200.014 28.8701L212.742 16.1421ZM166.328 14.7279V16.7279H166.428V14.7279V12.7279H166.328V14.7279ZM166.428 14.7279L166.524 16.7256L172.474 16.4393L172.378 14.4417L172.282 12.444L166.332 12.7302L166.428 14.7279ZM172.378 14.4417L172.474 16.4393C176.426 16.2492 179.329 16.2083 181.228 16.3037L181.328 14.3063L181.429 12.3088C179.327 12.2031 176.264 12.2524 172.282 12.444L172.378 14.4417ZM181.328 14.3063L181.228 16.3037L184.228 16.4546L184.328 14.4571L184.429 12.4597L181.429 12.3088L181.328 14.3063ZM184.328 14.4571L184.228 16.4546L187.228 16.6055L187.328 14.608L187.429 12.6105L184.429 12.4597L184.328 14.4571ZM187.328 14.608L187.228 16.6055C189.29 16.7092 191.353 16.716 193.415 16.6259L193.328 14.6278L193.241 12.6298C191.303 12.7144 189.366 12.708 187.429 12.6105L187.328 14.608ZM193.328 14.6278L193.415 16.6259L196.415 16.4949L196.328 14.4968L196.241 12.4987L193.241 12.6298L193.328 14.6278ZM196.328 14.4968L196.415 16.4949L199.415 16.3638L199.328 14.3657L199.241 12.3676L196.241 12.4987L196.328 14.4968ZM199.328 14.3657L199.415 16.3638C201.355 16.2791 203.015 16.3015 204.406 16.4216L204.578 14.429L204.75 12.4364C203.141 12.2975 201.301 12.2777 199.241 12.3676L199.328 14.3657ZM204.578 14.429L204.406 16.4216L206.656 16.6159L206.828 14.6233L207 12.6308L204.75 12.4364L204.578 14.429ZM206.828 14.6233L206.656 16.6159L208.906 16.8102L209.078 14.8177L209.25 12.8251L207 12.6308L206.828 14.6233ZM209.078 14.8177L208.906 16.8102C209.661 16.8754 210.249 16.9203 210.656 16.9427C210.853 16.9534 211.045 16.9611 211.204 16.9598C211.27 16.9593 211.408 16.9572 211.56 16.9367C211.616 16.9291 211.812 16.9027 212.041 16.814C212.15 16.7719 212.402 16.6655 212.657 16.4376C212.938 16.1876 213.328 15.6831 213.328 14.941H211.328H209.328C209.328 14.2018 209.717 13.7001 209.995 13.4527C210.247 13.2274 210.495 13.1235 210.597 13.0837C210.815 12.9995 210.993 12.9769 211.026 12.9724C211.132 12.9583 211.198 12.9597 211.171 12.96C211.143 12.9602 211.053 12.9584 210.875 12.9486C210.533 12.9299 209.996 12.8895 209.25 12.8251L209.078 14.8177ZM211.328 14.941H213.328V14.87H211.328H209.328V14.941H211.328ZM211.328 14.87L212.964 13.7186L212.864 13.5765L211.228 14.7279L209.593 15.8793L209.693 16.0213L211.328 14.87ZM211.228 14.7279V16.7279H211.328V14.7279V12.7279H211.228V14.7279Z" fill="var(--stroke-0, black)"/>
<g id="Rectangle 4">
<path d="M241.328 4.06349L241.49 6.0569L241.328 4.06349ZM247.328 3.57529L247.49 5.5687L247.328 3.57529ZM262.617 8.83086L260.62 8.92884L262.617 8.83086ZM262.762 11.7794L264.76 11.6814L262.762 11.7794ZM262.762 17.4682L264.759 17.5736L262.762 17.4682ZM262.617 20.2086L260.62 20.1032L262.617 20.2086ZM259.328 25.7628L259.279 23.7634L259.328 25.7628ZM256.328 25.8363L256.377 27.8357L256.328 25.8363ZM253.328 25.9099L253.279 23.9105L253.328 25.9099ZM247.328 25.7412L247.489 23.7477L247.328 25.7412ZM241.328 25.2565L241.167 27.25L241.328 25.2565ZM229.328 25.8696L229.139 23.8786L229.328 25.8696ZM226.026 11.2279L224.026 11.1776L226.026 11.2279ZM232.328 4.01776L232.232 6.01543L235.232 6.16034L235.328 4.16267L235.425 2.165L232.425 2.02009L232.328 4.01776ZM235.328 4.16267L235.232 6.16034C237.318 6.26113 239.405 6.22662 241.49 6.0569L241.328 4.06349L241.166 2.07008C239.252 2.22582 237.338 2.25744 235.425 2.165L235.328 4.16267ZM241.328 4.06349L241.49 6.0569L244.49 5.8128L244.328 3.81939L244.166 1.82598L241.166 2.07008L241.328 4.06349ZM244.328 3.81939L244.49 5.8128L247.49 5.5687L247.328 3.57529L247.166 1.58187L244.166 1.82598L244.328 3.81939ZM247.328 3.57529L247.49 5.5687C249.459 5.40856 251.427 5.29591 253.394 5.23075L253.328 3.23184L253.262 1.23294C251.23 1.30023 249.198 1.41655 247.166 1.58187L247.328 3.57529ZM253.328 3.23184L253.394 5.23075L256.394 5.1314L256.328 3.1325L256.262 1.13359L253.262 1.23294L253.328 3.23184ZM256.328 3.1325L256.394 5.1314L259.394 5.03206L259.328 3.03315L259.262 1.03425L256.262 1.13359L256.328 3.1325ZM259.328 3.03315L259.394 5.03206C260.092 5.00896 260.267 5.17416 260.271 5.17789C260.281 5.1869 260.318 5.22093 260.36 5.32946C260.407 5.44744 260.459 5.65264 260.475 5.98031L262.473 5.88234L264.47 5.78437C264.407 4.48256 264.007 3.1652 262.957 2.21366C261.913 1.26767 260.564 0.991118 259.262 1.03425L259.328 3.03315ZM262.473 5.88234L260.475 5.98031L260.62 8.92884L262.617 8.83086L264.615 8.73289L264.47 5.78437L262.473 5.88234ZM262.617 8.83086L260.62 8.92884L260.764 11.8774L262.762 11.7794L264.76 11.6814L264.615 8.73289L262.617 8.83086ZM262.762 11.7794L260.764 11.8774C260.858 13.7803 260.857 15.6086 260.765 17.3628L262.762 17.4682L264.759 17.5736C264.859 15.6742 264.859 13.7098 264.76 11.6814L262.762 11.7794ZM262.762 17.4682L260.765 17.3628L260.62 20.1032L262.617 20.2086L264.615 20.3139L264.759 17.5736L262.762 17.4682ZM262.617 20.2086L260.62 20.1032L260.476 22.8435L262.473 22.9489L264.47 23.0543L264.615 20.3139L262.617 20.2086ZM262.473 22.9489L260.476 22.8435C260.447 23.392 260.299 23.5157 260.281 23.5321C260.235 23.5734 260.002 23.7456 259.279 23.7634L259.328 25.7628L259.377 27.7622C260.655 27.7308 261.946 27.4096 262.948 26.5129C263.978 25.5913 264.403 24.3326 264.47 23.0543L262.473 22.9489ZM259.328 25.7628L259.279 23.7634L256.279 23.8369L256.328 25.8363L256.377 27.8357L259.377 27.7622L259.328 25.7628ZM256.328 25.8363L256.279 23.8369L253.279 23.9105L253.328 25.9099L253.377 27.9093L256.377 27.8357L256.328 25.8363ZM253.328 25.9099L253.279 23.9105C251.349 23.9578 249.42 23.9036 247.489 23.7477L247.328 25.7412L247.167 27.7347C249.237 27.9019 251.307 27.9601 253.377 27.9093L253.328 25.9099ZM247.328 25.7412L247.489 23.7477L244.489 23.5053L244.328 25.4988L244.167 27.4923L247.167 27.7347L247.328 25.7412ZM244.328 25.4988L244.489 23.5053L241.489 23.263L241.328 25.2565L241.167 27.25L244.167 27.4923L244.328 25.4988ZM241.328 25.2565L241.489 23.263C239.372 23.092 237.255 23.1071 235.139 23.3083L235.328 25.2993L235.517 27.2903C237.401 27.1113 239.284 27.0979 241.167 27.25L241.328 25.2565ZM235.328 25.2993L235.139 23.3083L232.139 23.5934L232.328 25.5844L232.517 27.5755L235.517 27.2903L235.328 25.2993ZM232.328 25.5844L232.139 23.5934L229.139 23.8786L229.328 25.8696L229.517 27.8606L232.517 27.5755L232.328 25.5844ZM229.328 25.8696L229.139 23.8786C228.449 23.9442 228.346 23.7766 228.404 23.8296C228.448 23.8697 228.258 23.7453 228.236 22.9892L226.237 23.048L224.238 23.1068C224.276 24.4219 224.633 25.8033 225.707 26.784C226.796 27.7774 228.208 27.9851 229.517 27.8606L229.328 25.8696ZM226.237 23.048L228.236 22.9892L228.145 19.8825L226.145 19.9413L224.146 20.0001L224.238 23.1068L226.237 23.048ZM226.145 19.9413L228.145 19.8825L228.053 16.7758L226.054 16.8346L224.055 16.8934L224.146 20.0001L226.145 19.9413ZM226.054 16.8346L228.053 16.7758C227.993 14.7328 227.984 12.9011 228.025 11.2782L226.026 11.2279L224.026 11.1776C223.983 12.8881 223.993 14.7942 224.055 16.8934L226.054 16.8346ZM226.026 11.2279L228.025 11.2782L228.088 8.77824L226.089 8.72792L224.089 8.6776L224.026 11.1776L226.026 11.2279ZM226.089 8.72792L228.088 8.77824L228.151 6.27824L226.152 6.22792L224.152 6.1776L224.089 8.6776L226.089 8.72792ZM226.152 6.22792L228.151 6.27824C228.172 5.4466 228.19 4.83085 228.204 4.42596C228.212 4.22101 228.218 4.08323 228.223 4.00255C228.226 3.95727 228.226 3.95492 228.224 3.97542C228.224 3.97638 228.218 4.03837 228.202 4.12196C228.197 4.14897 228.172 4.27862 228.112 4.43716C228.087 4.50456 228.009 4.70288 227.848 4.92005C227.734 5.07375 227.215 5.72792 226.243 5.72792V3.72792V1.72792C225.27 1.72792 224.75 2.38251 224.636 2.53702C224.474 2.755 224.396 2.95454 224.37 3.02356C224.309 3.18536 224.283 3.31989 224.276 3.35341C224.258 3.45002 224.249 3.53155 224.246 3.55854C224.239 3.63113 224.233 3.7069 224.23 3.76579C224.222 3.89345 224.215 4.06817 224.207 4.27988C224.191 4.70832 224.173 5.34258 224.152 6.1776L226.152 6.22792ZM226.243 3.72792V5.72792H226.271V3.72792V1.72792H226.243V3.72792ZM226.271 3.72792V5.72792H226.3V3.72792V1.72792H226.271V3.72792ZM226.3 3.72792V5.72792C226.245 5.72792 226.412 5.73489 226.975 5.76187C227.48 5.786 228.232 5.82221 229.232 5.87051L229.328 3.87284L229.425 1.87517C227.487 1.78155 226.383 1.72792 226.3 1.72792V3.72792ZM229.328 3.87284L229.232 5.87051L232.232 6.01543L232.328 4.01776L232.425 2.02009L229.425 1.87517L229.328 3.87284Z" fill="var(--stroke-0, black)"/>
<path d="M241.328 4.06349L241.49 6.0569L241.328 4.06349ZM247.328 3.57529L247.49 5.5687L247.328 3.57529ZM262.617 8.83086L260.62 8.92884L262.617 8.83086ZM262.762 11.7794L264.76 11.6814L262.762 11.7794ZM262.762 17.4682L264.759 17.5736L262.762 17.4682ZM262.617 20.2086L260.62 20.1032L262.617 20.2086ZM259.328 25.7628L259.279 23.7634L259.328 25.7628ZM256.328 25.8363L256.377 27.8357L256.328 25.8363ZM253.328 25.9099L253.279 23.9105L253.328 25.9099ZM247.328 25.7412L247.489 23.7477L247.328 25.7412ZM241.328 25.2565L241.167 27.25L241.328 25.2565ZM229.328 25.8696L229.139 23.8786L229.328 25.8696ZM226.026 11.2279L224.026 11.1776L226.026 11.2279ZM232.328 4.01776L232.232 6.01543L235.232 6.16034L235.328 4.16267L235.425 2.165L232.425 2.02009L232.328 4.01776ZM235.328 4.16267L235.232 6.16034C237.318 6.26113 239.405 6.22662 241.49 6.0569L241.328 4.06349L241.166 2.07008C239.252 2.22582 237.338 2.25744 235.425 2.165L235.328 4.16267ZM241.328 4.06349L241.49 6.0569L244.49 5.8128L244.328 3.81939L244.166 1.82598L241.166 2.07008L241.328 4.06349ZM244.328 3.81939L244.49 5.8128L247.49 5.5687L247.328 3.57529L247.166 1.58187L244.166 1.82598L244.328 3.81939ZM247.328 3.57529L247.49 5.5687C249.459 5.40856 251.427 5.29591 253.394 5.23075L253.328 3.23184L253.262 1.23294C251.23 1.30023 249.198 1.41655 247.166 1.58187L247.328 3.57529ZM253.328 3.23184L253.394 5.23075L256.394 5.1314L256.328 3.1325L256.262 1.13359L253.262 1.23294L253.328 3.23184ZM256.328 3.1325L256.394 5.1314L259.394 5.03206L259.328 3.03315L259.262 1.03425L256.262 1.13359L256.328 3.1325ZM259.328 3.03315L259.394 5.03206C260.092 5.00896 260.267 5.17416 260.271 5.17789C260.281 5.1869 260.318 5.22093 260.36 5.32946C260.407 5.44744 260.459 5.65264 260.475 5.98031L262.473 5.88234L264.47 5.78437C264.407 4.48256 264.007 3.1652 262.957 2.21366C261.913 1.26767 260.564 0.991118 259.262 1.03425L259.328 3.03315ZM262.473 5.88234L260.475 5.98031L260.62 8.92884L262.617 8.83086L264.615 8.73289L264.47 5.78437L262.473 5.88234ZM262.617 8.83086L260.62 8.92884L260.764 11.8774L262.762 11.7794L264.76 11.6814L264.615 8.73289L262.617 8.83086ZM262.762 11.7794L260.764 11.8774C260.858 13.7803 260.857 15.6086 260.765 17.3628L262.762 17.4682L264.759 17.5736C264.859 15.6742 264.859 13.7098 264.76 11.6814L262.762 11.7794ZM262.762 17.4682L260.765 17.3628L260.62 20.1032L262.617 20.2086L264.615 20.3139L264.759 17.5736L262.762 17.4682ZM262.617 20.2086L260.62 20.1032L260.476 22.8435L262.473 22.9489L264.47 23.0543L264.615 20.3139L262.617 20.2086ZM262.473 22.9489L260.476 22.8435C260.447 23.392 260.299 23.5157 260.281 23.5321C260.235 23.5734 260.002 23.7456 259.279 23.7634L259.328 25.7628L259.377 27.7622C260.655 27.7308 261.946 27.4096 262.948 26.5129C263.978 25.5913 264.403 24.3326 264.47 23.0543L262.473 22.9489ZM259.328 25.7628L259.279 23.7634L256.279 23.8369L256.328 25.8363L256.377 27.8357L259.377 27.7622L259.328 25.7628ZM256.328 25.8363L256.279 23.8369L253.279 23.9105L253.328 25.9099L253.377 27.9093L256.377 27.8357L256.328 25.8363ZM253.328 25.9099L253.279 23.9105C251.349 23.9578 249.42 23.9036 247.489 23.7477L247.328 25.7412L247.167 27.7347C249.237 27.9019 251.307 27.9601 253.377 27.9093L253.328 25.9099ZM247.328 25.7412L247.489 23.7477L244.489 23.5053L244.328 25.4988L244.167 27.4923L247.167 27.7347L247.328 25.7412ZM244.328 25.4988L244.489 23.5053L241.489 23.263L241.328 25.2565L241.167 27.25L244.167 27.4923L244.328 25.4988ZM241.328 25.2565L241.489 23.263C239.372 23.092 237.255 23.1071 235.139 23.3083L235.328 25.2993L235.517 27.2903C237.401 27.1113 239.284 27.0979 241.167 27.25L241.328 25.2565ZM235.328 25.2993L235.139 23.3083L232.139 23.5934L232.328 25.5844L232.517 27.5755L235.517 27.2903L235.328 25.2993ZM232.328 25.5844L232.139 23.5934L229.139 23.8786L229.328 25.8696L229.517 27.8606L232.517 27.5755L232.328 25.5844ZM229.328 25.8696L229.139 23.8786C228.449 23.9442 228.346 23.7766 228.404 23.8296C228.448 23.8697 228.258 23.7453 228.236 22.9892L226.237 23.048L224.238 23.1068C224.276 24.4219 224.633 25.8033 225.707 26.784C226.796 27.7774 228.208 27.9851 229.517 27.8606L229.328 25.8696ZM226.237 23.048L228.236 22.9892L228.145 19.8825L226.145 19.9413L224.146 20.0001L224.238 23.1068L226.237 23.048ZM226.145 19.9413L228.145 19.8825L228.053 16.7758L226.054 16.8346L224.055 16.8934L224.146 20.0001L226.145 19.9413ZM226.054 16.8346L228.053 16.7758C227.993 14.7328 227.984 12.9011 228.025 11.2782L226.026 11.2279L224.026 11.1776C223.983 12.8881 223.993 14.7942 224.055 16.8934L226.054 16.8346ZM226.026 11.2279L228.025 11.2782L228.088 8.77824L226.089 8.72792L224.089 8.6776L224.026 11.1776L226.026 11.2279ZM226.089 8.72792L228.088 8.77824L228.151 6.27824L226.152 6.22792L224.152 6.1776L224.089 8.6776L226.089 8.72792ZM226.152 6.22792L228.151 6.27824C228.172 5.4466 228.19 4.83085 228.204 4.42596C228.212 4.22101 228.218 4.08323 228.223 4.00255C228.226 3.95727 228.226 3.95492 228.224 3.97542C228.224 3.97638 228.218 4.03837 228.202 4.12196C228.197 4.14897 228.172 4.27862 228.112 4.43716C228.087 4.50456 228.009 4.70288 227.848 4.92005C227.734 5.07375 227.215 5.72792 226.243 5.72792V3.72792V1.72792C225.27 1.72792 224.75 2.38251 224.636 2.53702C224.474 2.755 224.396 2.95454 224.37 3.02356C224.309 3.18536 224.283 3.31989 224.276 3.35341C224.258 3.45002 224.249 3.53155 224.246 3.55854C224.239 3.63113 224.233 3.7069 224.23 3.76579C224.222 3.89345 224.215 4.06817 224.207 4.27988C224.191 4.70832 224.173 5.34258 224.152 6.1776L226.152 6.22792ZM226.243 3.72792V5.72792H226.271V3.72792V1.72792H226.243V3.72792ZM226.271 3.72792V5.72792H226.3V3.72792V1.72792H226.271V3.72792ZM226.3 3.72792V5.72792C226.245 5.72792 226.412 5.73489 226.975 5.76187C227.48 5.786 228.232 5.82221 229.232 5.87051L229.328 3.87284L229.425 1.87517C227.487 1.78155 226.383 1.72792 226.3 1.72792V3.72792ZM229.328 3.87284L229.232 5.87051L232.232 6.01543L232.328 4.01776L232.425 2.02009L229.425 1.87517L229.328 3.87284Z" fill="var(--stroke-1, black)" fill-opacity="0.2"/>
</g>
</g>
</svg>
